<svg width="156" height="156" viewBox="0 0 156 156" fill="none" xmlns="http://www.w3.org/2000/svg">
<g id="idea">
<rect width="156" height="156" rx="78" fill="#FCA311"/>
<path id="Vector" d="M90.6834 80.5188L90.6833 80.5188L90.6806 80.6321C90.6806 80.6323 90.6806 80.6326 90.6806 80.6328L90.6806 80.6333L90.1807 80.6215C90.1617 81.5124 89.5868 82.2972 88.7108 82.7829L90.6834 80.5188ZM90.6834 80.5188V80.507C90.6834 78.0304 91.801 75.6056 93.8921 73.6506C96.2055 71.4924 97.6471 68.629 97.6471 65.4686C97.6471 58.479 90.6989 53.0762 82.5481 53.0762C75.6122 53.0762 69.5785 56.97 67.9048 62.4291C57.6622 62.7591 49.2641 69.2593 49.2641 77.4713V82.016L45.1366 85.1847C45.1366 85.1847 45.1366 85.1847 45.1366 85.1847C43.5659 86.3903 43.0392 88.2745 43.9343 89.9334L43.9344 89.9336C44.8061 91.5479 46.7985 92.5274 48.9197 92.5274H49.2641V95.1062C49.2641 97.7121 50.6416 100.037 52.8015 101.695C54.9608 103.352 57.9222 104.363 61.1727 104.363H64.6847V109.28C64.6847 110.219 65.1818 111.035 65.9182 111.6C66.6542 112.165 67.6494 112.5 68.7285 112.5H84.1482C85.2273 112.5 86.2225 112.165 86.9585 111.6C87.695 111.035 88.192 110.219 88.192 109.28V87.5795C88.8242 86.874 89.2108 85.9992 89.2108 85.0387V83.0647L90.6834 80.5188ZM53.6123 83.7859L53.8078 83.6358V83.3893V77.4713C53.8078 71.6368 59.7049 66.6658 67.4725 66.1751C67.6694 69.0559 69.0649 71.6555 71.2076 73.6525C73.296 75.6045 74.4137 78.0302 74.4137 80.507V80.5771C74.4137 81.6145 75.017 82.4958 75.8846 83.0647V85.0387C75.8846 86.3033 76.5535 87.4142 77.5681 88.1931C78.5821 88.9716 79.9616 89.439 81.4651 89.439H83.6302C83.6362 89.439 83.6422 89.439 83.6482 89.439V108.78H69.2285V101.143V100.643H68.7285H61.1727C59.1013 100.643 57.2444 99.9979 55.9158 98.9782C54.5877 97.9588 53.8078 96.5855 53.8078 95.1062V89.3074V88.8074H53.3078H48.9197C48.4941 88.8074 48.1918 88.6094 48.089 88.4183L48.0886 88.4175C48.0098 88.2718 48.0216 88.0778 48.2514 87.9007C49.3855 87.0306 50.7257 86.0019 51.7824 85.1907L53.0936 84.1841L53.475 83.8914L53.577 83.813L53.6034 83.7928L53.6101 83.7877L53.6117 83.7864L53.6122 83.786L53.6123 83.786L53.3078 83.3893L53.6123 83.7859ZM74.626 71.1935L74.6255 71.193C72.9744 69.6541 71.992 67.6476 71.992 65.4686C71.992 60.7655 76.6307 56.7962 82.5481 56.7962C88.4646 56.7962 93.1033 60.7655 93.1033 65.4686C93.1033 67.6476 92.1209 69.6542 90.4714 71.1939L90.4712 71.1941C87.8031 73.688 86.2717 76.8115 86.1479 80.0771H78.9493C78.8255 76.8115 77.2941 73.6873 74.626 71.1935ZM80.4283 85.0387V83.7971H84.6671V85.0387C84.6671 85.1769 84.5953 85.3361 84.4124 85.4767C84.2289 85.6176 83.9541 85.719 83.6302 85.719H81.4651C81.1413 85.719 80.8664 85.6176 80.683 85.4767C80.5 85.3361 80.4283 85.1769 80.4283 85.0387ZM110.228 64.929H103.801C103.212 64.929 102.66 65.1121 102.244 65.4308C101.829 65.75 101.53 66.2258 101.53 66.789C101.53 67.3523 101.829 67.8281 102.244 68.1472C102.66 68.466 103.212 68.649 103.801 68.649H110.228C110.818 68.649 111.37 68.466 111.785 68.1472C112.201 67.8281 112.5 67.3523 112.5 66.789C112.5 66.2258 112.201 65.75 111.785 65.4308C111.37 65.1121 110.818 64.929 110.228 64.929ZM60.3557 53.3477L64.9002 56.8358C65.7713 57.5044 67.1439 57.5044 68.015 56.8358C68.4673 56.4886 68.7292 56.001 68.7292 55.4774C68.7292 54.9539 68.4673 54.4662 68.015 54.1191L63.4705 50.631C62.5994 49.9623 61.2268 49.9623 60.3557 50.631C59.9034 50.9781 59.6415 51.4657 59.6415 51.9893C59.6415 52.5129 59.9034 53.0005 60.3557 53.3477ZM101.782 50.631L97.2377 54.1191C96.7854 54.4662 96.5234 54.9539 96.5234 55.4774C96.5234 56.001 96.7854 56.4886 97.2377 56.8358C98.1088 57.5044 99.4813 57.5044 100.352 56.8358L104.897 53.3477C105.349 53.0005 105.611 52.5129 105.611 51.9893C105.611 51.4657 105.349 50.9781 104.897 50.631C104.026 49.9623 102.653 49.9623 101.782 50.631ZM80.4399 45.36V50.2935C80.4399 50.8569 80.7393 51.3327 81.155 51.6517C81.5703 51.9704 82.1225 52.1535 82.7118 52.1535C83.3014 52.1535 83.8536 51.9704 84.2689 51.6516C84.6847 51.3325 84.9836 50.8567 84.9836 50.2935V45.36C84.9836 44.7968 84.6847 44.3209 84.2689 44.0018C83.8536 43.6831 83.3014 43.5 82.7118 43.5C82.1225 43.5 81.5703 43.6831 81.155 44.0018C80.7393 44.3208 80.4399 44.7966 80.4399 45.36Z" fill="#FFFDFD" stroke="#FFFDFD"/>
</g>
</svg>
