<svg width="641" height="389" viewBox="0 0 641 389" fill="none" xmlns="http://www.w3.org/2000/svg">
<g clip-path="url(#clip0_1153_3313)">
<path d="M40.6013 324.881L38.6019 336.159C38.4513 337.021 38.2938 337.899 38.1226 338.769C36.4515 338.379 34.7188 338.488 33.0966 339.085C34.3836 341.152 35.5369 343.321 36.5477 345.574C35.2878 349.939 33.439 353.973 30.344 356.891C28.2769 358.796 25.808 360.071 23.1754 360.591C20.5428 361.112 17.8354 360.861 15.3141 359.863L15.4031 359.416C12.0753 352.157 13.883 343.003 18.0188 336.298C20.1282 332.99 22.6275 330.019 25.4482 327.468C28.2419 324.85 31.2616 322.502 34.2538 320.185C34.9259 319.665 35.7205 319.383 36.5361 319.373C37.3517 319.364 38.1512 319.628 38.8326 320.132C39.514 320.636 40.0462 321.357 40.3612 322.203C40.6763 323.049 40.7599 323.981 40.6013 324.881Z" fill="#FED188"/>
<path d="M16.0259 387C15.1844 380.108 14.3188 373.127 14.9091 366.161C15.4336 359.975 17.1119 353.932 20.5301 348.977C22.3443 346.352 24.5519 344.103 27.0535 342.331C27.7061 341.869 28.3059 343.031 27.6568 343.491C23.3284 346.567 19.9805 351.108 18.0958 356.461C16.0142 362.413 15.6801 368.902 16.0416 375.225C16.2587 379.049 16.7182 382.847 17.1817 386.642C17.219 386.814 17.1966 386.995 17.1189 387.149C17.0413 387.302 16.9143 387.417 16.764 387.469C16.6112 387.515 16.4482 387.492 16.3105 387.404C16.1728 387.316 16.0715 387.171 16.0286 386.999L16.0259 387Z" fill="#FEEDCF"/>
<path d="M23.2487 41.2901C52.5808 40.7167 81.916 40.6343 111.254 41.043C140.589 41.4541 169.913 42.3584 199.227 43.756C215.677 44.5403 232.12 45.4799 248.556 46.5748C249.877 46.6627 249.872 44.3528 248.556 44.2653C219.271 42.3169 189.964 40.8591 160.636 39.8917C131.312 38.9269 101.98 38.4555 72.6391 38.4773C56.1747 38.4896 39.7112 38.6574 23.2487 38.9806C21.9283 39.0064 21.9241 41.316 23.2487 41.2901V41.2901Z" fill="#FCA311"/>
<path d="M227.665 26.8085L240.491 25.7353C241.802 25.6256 241.812 23.3152 240.491 23.4257L227.665 24.499C226.355 24.6086 226.345 26.919 227.665 26.8085Z" fill="#FDB239"/>
<path d="M227.665 40.6659L240.491 39.5927C241.802 39.483 241.812 37.1726 240.491 37.2831L227.665 38.3564C226.355 38.466 226.345 40.7765 227.665 40.6659Z" fill="#FDB239"/>
<path d="M226.701 34.3367L244.937 36.1993C246.253 36.3337 246.245 34.0234 244.937 33.8898L226.701 32.0271C225.385 31.8927 225.393 34.2031 226.701 34.3367Z" fill="#FDB239"/>
<path d="M30.8386 23.7032C29.9467 23.697 29.0728 23.9861 28.326 24.5345C27.5792 25.0828 26.9925 25.8662 26.639 26.7869C26.2436 27.688 26.1215 28.7099 26.2915 29.6964C26.4614 30.6829 26.9141 31.5797 27.5803 32.2496C28.2065 32.8486 28.9576 33.2593 29.7634 33.4433C30.5691 33.6274 31.4032 33.5787 32.1877 33.3019C32.99 32.9869 33.6857 32.4 34.1791 31.6221C34.6724 30.8441 34.9392 29.9134 34.9426 28.9579C34.9785 27.8979 34.723 26.8512 34.2111 25.9602C33.6992 25.0691 32.9556 24.377 32.0814 23.9778C31.8188 23.8976 31.5386 23.9374 31.3019 24.0885C31.0653 24.2395 30.8913 24.4897 30.818 24.7844C30.7532 25.0794 30.7915 25.3911 30.9249 25.6553C31.0584 25.9195 31.2768 26.1162 31.5353 26.2049C31.7144 26.2826 31.3718 26.1059 31.539 26.2083C31.6077 26.2504 31.6777 26.2884 31.7452 26.3334C31.8026 26.3716 31.8575 26.4134 31.9133 26.4543C32.105 26.595 31.8197 26.3511 31.9422 26.4775C32.0485 26.5872 32.1538 26.6942 32.2504 26.8153C32.2869 26.861 32.43 26.9882 32.3188 26.8993C32.2337 26.8313 32.286 26.8473 32.3188 26.9019C32.3437 26.9434 32.37 26.9837 32.3946 27.0254C32.4746 27.1617 32.5474 27.3032 32.6126 27.4491C32.6277 27.4829 32.6415 27.5175 32.6568 27.5511C32.6856 27.6141 32.7273 27.6306 32.6596 27.5517C32.595 27.4763 32.6362 27.4815 32.6593 27.554C32.6745 27.6017 32.6911 27.6487 32.7058 27.6966C32.754 27.8523 32.7944 28.011 32.8269 28.1718C32.842 28.2461 32.8541 28.3209 32.867 28.3957C32.9129 28.6609 32.8604 28.2308 32.8715 28.4278C32.8807 28.5923 32.8915 28.755 32.889 28.9201C32.8878 28.9957 32.8849 29.0712 32.8802 29.1465C32.8778 29.1841 32.8741 29.2216 32.8719 29.2592C32.8612 29.4404 32.8609 29.193 32.8835 29.1761C32.8365 29.3299 32.8054 29.4893 32.7906 29.6511C32.7722 29.7229 32.7504 29.7931 32.7299 29.8641C32.6585 30.1119 32.797 29.7291 32.7209 29.8984C32.6582 30.0439 32.5881 30.1852 32.511 30.3216C32.4775 30.3787 32.3514 30.5078 32.4545 30.418C32.5665 30.3205 32.3958 30.4883 32.3594 30.5315C32.3126 30.587 32.2641 30.6405 32.2138 30.6922C32.1815 30.7275 32.1475 30.7608 32.1119 30.7917C32.1054 30.788 32.2835 30.658 32.1875 30.7268C32.0654 30.8143 31.9499 30.9079 31.8213 30.9841C31.8063 30.993 31.6419 31.0786 31.6425 31.0817C31.6355 31.0505 31.8539 30.9952 31.704 31.0497C31.6725 31.0611 31.6416 31.0749 31.6102 31.0868C31.4736 31.1385 31.3343 31.1802 31.193 31.2118C31.1606 31.219 31.1264 31.2227 31.0945 31.232C30.9883 31.2628 31.196 31.2139 31.2022 31.2179C31.1237 31.2141 31.0451 31.2219 30.9685 31.2412C30.8228 31.2505 30.6767 31.2505 30.5309 31.2411C30.4972 31.2389 30.4636 31.2352 30.4299 31.233C30.3516 31.2279 30.2942 31.1645 30.3983 31.2333C30.4787 31.2864 30.472 31.2476 30.4008 31.2329C30.3675 31.2259 30.3341 31.2201 30.3008 31.2131C30.1565 31.1827 30.0139 31.1434 29.8735 31.0954C29.798 31.0695 29.7239 31.0394 29.6494 31.0101C29.6169 30.9996 29.5853 30.9859 29.5549 30.9692C29.5545 30.9597 29.747 31.0727 29.6453 31.0111C29.517 30.9333 29.3844 30.8682 29.2591 30.7832C29.1922 30.7379 29.128 30.6886 29.063 30.64C29.0344 30.6207 29.0073 30.5988 28.9817 30.5746C28.9839 30.5648 29.141 30.7285 29.0585 30.6401C28.9542 30.5284 28.8427 30.4284 28.7439 30.3094C28.7213 30.2822 28.6999 30.2537 28.6774 30.2264L28.6556 30.1984C28.6 30.1219 28.5989 30.1223 28.6525 30.1995C28.707 30.2175 28.7045 30.2847 28.6528 30.1975C28.6344 30.1664 28.6149 30.1362 28.5965 30.1051C28.5131 29.9714 28.442 29.8286 28.3842 29.6788C28.3892 29.6745 28.4732 29.9567 28.409 29.7437C28.3968 29.7035 28.3832 29.6639 28.3713 29.6235C28.3477 29.5435 28.3269 29.4626 28.309 29.3809C28.2912 29.2998 28.2821 29.2163 28.2642 29.1356C28.234 28.9996 28.2818 29.2429 28.2764 29.2368C28.2593 29.2178 28.2666 29.0999 28.2653 29.0716C28.2571 28.8904 28.2754 28.7146 28.2783 28.5345C28.2805 28.3949 28.268 28.6432 28.2654 28.6359C28.2661 28.5941 28.2726 28.5527 28.2849 28.5133C28.3035 28.4183 28.3208 28.3234 28.3436 28.2295C28.3697 28.1219 28.3997 28.0157 28.4336 27.9107C28.4463 27.8715 28.4617 27.8328 28.4735 27.7932C28.5168 27.6482 28.388 27.9683 28.459 27.8376C28.5567 27.6577 28.6295 27.463 28.7332 27.2853C28.7578 27.2432 28.9073 27.0086 28.828 27.127C28.7489 27.245 28.9092 27.0214 28.9395 26.9834C29.0655 26.8257 29.2136 26.6962 29.3441 26.5452C29.4213 26.4558 29.2902 26.5892 29.2824 26.5954C29.3228 26.563 29.3624 26.5293 29.4033 26.4976C29.4746 26.4424 29.5477 26.3901 29.6225 26.3409C29.7067 26.2853 29.802 26.244 29.8837 26.1852C29.9802 26.1158 29.8099 26.2157 29.8068 26.2178C29.8509 26.1932 29.897 26.1735 29.9444 26.1588C30.024 26.1271 30.3699 25.9593 30.4424 26.0118C30.4391 26.0094 30.1798 26.0353 30.3894 26.0201C30.439 26.0165 30.4883 26.0111 30.538 26.0088C30.6383 26.0041 30.7384 26.0069 30.8386 26.0128C31.1105 26.0108 31.3707 25.8885 31.5629 25.6724C31.7552 25.4562 31.8639 25.1637 31.8657 24.858C31.8599 24.5538 31.7498 24.2639 31.5584 24.0487C31.3671 23.8336 31.1092 23.7098 30.8386 23.7033L30.8386 23.7032Z" fill="#FDB239"/>
<path d="M45.2185 23.7032C44.3265 23.697 43.4527 23.9861 42.7059 24.5345C41.9591 25.0828 41.3724 25.8662 41.0189 26.7869C40.6234 27.688 40.5014 28.7099 40.6713 29.6964C40.8413 30.6829 41.294 31.5797 41.9602 32.2496C42.5864 32.8486 43.3375 33.2593 44.1432 33.4433C44.949 33.6274 45.7831 33.5787 46.5676 33.3019C47.3699 32.9869 48.0656 32.4 48.5589 31.6221C49.0523 30.8441 49.3191 29.9134 49.3225 28.9579C49.3583 27.8979 49.1029 26.8512 48.591 25.9602C48.0791 25.0691 47.3355 24.377 46.4613 23.9778C46.1987 23.8976 45.9185 23.9374 45.6818 24.0885C45.4451 24.2395 45.2712 24.4897 45.1979 24.7844C45.1331 25.0794 45.1713 25.3911 45.3048 25.6553C45.4382 25.9195 45.6567 26.1162 45.9152 26.2049C46.0942 26.2826 45.7517 26.1059 45.9188 26.2083C45.9876 26.2504 46.0576 26.2884 46.1251 26.3334C46.1824 26.3716 46.2374 26.4134 46.2932 26.4543C46.4849 26.595 46.1996 26.3511 46.3221 26.4775C46.4284 26.5872 46.5337 26.6942 46.6303 26.8153C46.6668 26.861 46.8099 26.9882 46.6987 26.8993C46.6136 26.8313 46.6659 26.8473 46.6987 26.9019C46.7236 26.9434 46.7499 26.9837 46.7744 27.0254C46.8545 27.1617 46.9273 27.3032 46.9924 27.4491C47.0075 27.4829 47.0213 27.5175 47.0367 27.5511C47.0654 27.6141 47.1071 27.6306 47.0395 27.5517C46.9749 27.4763 47.016 27.4815 47.0392 27.554C47.0544 27.6017 47.0709 27.6487 47.0857 27.6966C47.1339 27.8523 47.1743 28.011 47.2068 28.1718C47.2219 28.2461 47.234 28.3209 47.2469 28.3957C47.2928 28.6609 47.2403 28.2308 47.2513 28.4278C47.2606 28.5923 47.2714 28.755 47.2688 28.9201C47.2677 28.9957 47.2648 29.0712 47.2601 29.1465C47.2577 29.1841 47.254 29.2216 47.2518 29.2592C47.2411 29.4404 47.2408 29.193 47.2633 29.1761C47.2164 29.3299 47.1852 29.4893 47.1705 29.6511C47.1521 29.7229 47.1303 29.7931 47.1098 29.8641C47.0383 30.1119 47.1769 29.7291 47.1007 29.8984C47.038 30.0439 46.968 30.1852 46.8909 30.3216C46.8574 30.3787 46.7312 30.5078 46.8344 30.418C46.9464 30.3205 46.7757 30.4883 46.7393 30.5315C46.6925 30.587 46.644 30.6405 46.5936 30.6922C46.5614 30.7275 46.5274 30.7608 46.4918 30.7917C46.4852 30.788 46.6634 30.658 46.5674 30.7268C46.4453 30.8143 46.3298 30.9079 46.2011 30.9841C46.1862 30.993 46.0217 31.0786 46.0224 31.0817C46.0153 31.0505 46.2338 30.9952 46.0838 31.0497C46.0523 31.0611 46.0214 31.0749 45.9901 31.0868C45.8535 31.1385 45.7142 31.1802 45.5728 31.2118C45.5405 31.219 45.5063 31.2227 45.4744 31.232C45.3682 31.2628 45.5759 31.2139 45.5821 31.2179C45.5036 31.2141 45.425 31.2219 45.3484 31.2412C45.2026 31.2505 45.0565 31.2505 44.9108 31.2411C44.8771 31.2389 44.8435 31.2352 44.8097 31.233C44.7315 31.2279 44.674 31.1645 44.7782 31.2333C44.8585 31.2864 44.8519 31.2476 44.7807 31.2329C44.7474 31.2259 44.7139 31.2201 44.6807 31.2131C44.5364 31.1827 44.3938 31.1434 44.2534 31.0954C44.1778 31.0695 44.1038 31.0394 44.0293 31.0101C43.9968 30.9996 43.9652 30.9859 43.9348 30.9692C43.9343 30.9597 44.1269 31.0727 44.0252 31.0111C43.8969 30.9333 43.7643 30.8682 43.639 30.7832C43.5721 30.7379 43.5079 30.6886 43.4429 30.64C43.4143 30.6207 43.3871 30.5988 43.3616 30.5746C43.3638 30.5648 43.5209 30.7285 43.4384 30.6401C43.3341 30.5284 43.2226 30.4284 43.1238 30.3094C43.1012 30.2822 43.0798 30.2537 43.0573 30.2264L43.0355 30.1984C42.9798 30.1219 42.9788 30.1223 43.0324 30.1995C43.0868 30.2175 43.0844 30.2847 43.0327 30.1975C43.0143 30.1664 42.9947 30.1362 42.9764 30.1051C42.893 29.9714 42.8218 29.8286 42.7641 29.6788C42.7691 29.6745 42.8531 29.9567 42.7888 29.7437C42.7767 29.7035 42.7631 29.6639 42.7512 29.6235C42.7276 29.5435 42.7068 29.4626 42.6889 29.3809C42.6711 29.2998 42.662 29.2163 42.6441 29.1356C42.6139 28.9996 42.6617 29.2429 42.6563 29.2368C42.6392 29.2178 42.6464 29.0999 42.6452 29.0716C42.6369 28.8904 42.6553 28.7146 42.6582 28.5345C42.6604 28.3949 42.6479 28.6432 42.6453 28.6359C42.646 28.5941 42.6525 28.5527 42.6648 28.5133C42.6834 28.4183 42.7007 28.3234 42.7235 28.2295C42.7495 28.1219 42.7795 28.0157 42.8135 27.9107C42.8262 27.8715 42.8416 27.8328 42.8534 27.7932C42.8967 27.6482 42.7678 27.9683 42.8389 27.8376C42.9366 27.6577 43.0094 27.463 43.1131 27.2853C43.1377 27.2432 43.2872 27.0086 43.2078 27.127C43.1288 27.245 43.289 27.0214 43.3194 26.9834C43.4454 26.8257 43.5935 26.6962 43.724 26.5452C43.8012 26.4558 43.6701 26.5892 43.6623 26.5954C43.7027 26.563 43.7423 26.5293 43.7832 26.4976C43.8545 26.4424 43.9275 26.3901 44.0024 26.3409C44.0866 26.2853 44.1819 26.244 44.2636 26.1852C44.36 26.1158 44.1898 26.2157 44.1867 26.2178C44.2308 26.1932 44.2769 26.1735 44.3243 26.1588C44.4038 26.1271 44.7497 25.9593 44.8223 26.0118C44.819 26.0094 44.5597 26.0353 44.7693 26.0201C44.8189 26.0165 44.8682 26.0111 44.9178 26.0088C45.0182 26.0041 45.1182 26.0069 45.2185 26.0128C45.4904 26.0108 45.7506 25.8885 45.9428 25.6724C46.135 25.4562 46.2438 25.1637 46.2456 24.858C46.2398 24.5538 46.1297 24.2639 45.9383 24.0487C45.747 23.8336 45.4891 23.7098 45.2185 23.7033L45.2185 23.7032Z" fill="#FDB239"/>
<path d="M59.5974 23.7032C58.7054 23.697 57.8316 23.9861 57.0848 24.5345C56.338 25.0828 55.7513 25.8662 55.3978 26.7869C55.0023 27.688 54.8803 28.7099 55.0502 29.6964C55.2202 30.6829 55.6729 31.5797 56.3391 32.2496C56.9653 32.8486 57.7164 33.2593 58.5221 33.4433C59.3279 33.6274 60.162 33.5787 60.9465 33.3019C61.7488 32.9869 62.4445 32.4 62.9378 31.6221C63.4312 30.8441 63.698 29.9134 63.7014 28.9579C63.7372 27.8979 63.4818 26.8512 62.9699 25.9602C62.458 25.0691 61.7144 24.377 60.8402 23.9778C60.5776 23.8976 60.2974 23.9374 60.0607 24.0885C59.824 24.2395 59.6501 24.4897 59.5768 24.7844C59.512 25.0794 59.5503 25.3911 59.6837 25.6553C59.8171 25.9195 60.0356 26.1162 60.2941 26.2049C60.4731 26.2826 60.1306 26.1059 60.2978 26.2083C60.3665 26.2504 60.4365 26.2884 60.504 26.3334C60.5613 26.3716 60.6163 26.4134 60.6721 26.4543C60.8638 26.595 60.5785 26.3511 60.701 26.4775C60.8073 26.5872 60.9126 26.6942 61.0092 26.8153C61.0457 26.861 61.1888 26.9882 61.0776 26.8993C60.9925 26.8313 61.0448 26.8473 61.0776 26.9019C61.1025 26.9434 61.1288 26.9837 61.1534 27.0254C61.2334 27.1617 61.3062 27.3032 61.3713 27.4491C61.3864 27.4829 61.4002 27.5175 61.4156 27.5511C61.4444 27.6141 61.486 27.6306 61.4184 27.5517C61.3538 27.4763 61.395 27.4815 61.4181 27.554C61.4333 27.6017 61.4499 27.6487 61.4646 27.6966C61.5128 27.8523 61.5532 28.011 61.5857 28.1718C61.6008 28.2461 61.6129 28.3209 61.6258 28.3957C61.6717 28.6609 61.6192 28.2308 61.6302 28.4278C61.6395 28.5923 61.6503 28.755 61.6477 28.9201C61.6466 28.9957 61.6437 29.0712 61.639 29.1465C61.6366 29.1841 61.6329 29.2216 61.6307 29.2592C61.62 29.4404 61.6197 29.193 61.6422 29.1761C61.5953 29.3299 61.5642 29.4893 61.5494 29.6511C61.531 29.7229 61.5092 29.7931 61.4887 29.8641C61.4172 30.1119 61.5558 29.7291 61.4796 29.8984C61.417 30.0439 61.3469 30.1852 61.2698 30.3216C61.2363 30.3787 61.1101 30.5078 61.2133 30.418C61.3253 30.3205 61.1546 30.4883 61.1182 30.5315C61.0714 30.587 61.0229 30.6405 60.9725 30.6922C60.9403 30.7275 60.9063 30.7608 60.8707 30.7917C60.8641 30.788 61.0423 30.658 60.9463 30.7268C60.8242 30.8143 60.7087 30.9079 60.5801 30.9841C60.5651 30.993 60.4007 31.0786 60.4013 31.0817C60.3942 31.0505 60.6127 30.9952 60.4628 31.0497C60.4313 31.0611 60.4004 31.0749 60.369 31.0868C60.2324 31.1385 60.0931 31.1802 59.9517 31.2118C59.9194 31.219 59.8852 31.2227 59.8533 31.232C59.7471 31.2628 59.9548 31.2139 59.961 31.2179C59.8825 31.2141 59.8039 31.2219 59.7273 31.2412C59.5815 31.2505 59.4354 31.2505 59.2897 31.2411C59.256 31.2389 59.2224 31.2352 59.1887 31.233C59.1104 31.2279 59.053 31.1645 59.1571 31.2333C59.2375 31.2864 59.2308 31.2476 59.1596 31.2329C59.1263 31.2259 59.0928 31.2201 59.0596 31.2131C58.9153 31.1827 58.7727 31.1434 58.6323 31.0954C58.5567 31.0695 58.4827 31.0394 58.4082 31.0101C58.3757 30.9996 58.3441 30.9859 58.3137 30.9692C58.3133 30.9597 58.5058 31.0727 58.4041 31.0111C58.2758 30.9333 58.1432 30.8682 58.0179 30.7832C57.951 30.7379 57.8868 30.6886 57.8218 30.64C57.7932 30.6207 57.766 30.5988 57.7405 30.5746C57.7427 30.5648 57.8998 30.7285 57.8173 30.6401C57.713 30.5284 57.6015 30.4284 57.5027 30.3094C57.4801 30.2822 57.4587 30.2537 57.4362 30.2264L57.4144 30.1984C57.3587 30.1219 57.3577 30.1223 57.4113 30.1995C57.4658 30.2175 57.4633 30.2847 57.4116 30.1975C57.3932 30.1664 57.3737 30.1362 57.3553 30.1051C57.2719 29.9714 57.2007 29.8286 57.143 29.6788C57.148 29.6745 57.232 29.9567 57.1678 29.7437C57.1556 29.7035 57.142 29.6639 57.1301 29.6235C57.1065 29.5435 57.0857 29.4626 57.0678 29.3809C57.05 29.2998 57.0409 29.2163 57.023 29.1356C56.9928 28.9996 57.0406 29.2429 57.0352 29.2368C57.0181 29.2178 57.0254 29.0999 57.0241 29.0716C57.0159 28.8904 57.0342 28.7146 57.0371 28.5345C57.0393 28.3949 57.0268 28.6432 57.0242 28.6359C57.0249 28.5941 57.0314 28.5527 57.0437 28.5133C57.0623 28.4183 57.0796 28.3234 57.1024 28.2295C57.1284 28.1219 57.1584 28.0157 57.1924 27.9107C57.2051 27.8715 57.2205 27.8328 57.2323 27.7932C57.2756 27.6482 57.1467 27.9683 57.2178 27.8376C57.3155 27.6577 57.3883 27.463 57.492 27.2853C57.5166 27.2432 57.6661 27.0086 57.5867 27.127C57.5077 27.245 57.6679 27.0214 57.6983 26.9834C57.8243 26.8257 57.9724 26.6962 58.1029 26.5452C58.1801 26.4558 58.049 26.5892 58.0412 26.5954C58.0816 26.563 58.1212 26.5293 58.1621 26.4976C58.2334 26.4424 58.3065 26.3901 58.3813 26.3409C58.4655 26.2853 58.5608 26.244 58.6425 26.1852C58.7389 26.1158 58.5687 26.2157 58.5656 26.2178C58.6097 26.1932 58.6558 26.1735 58.7032 26.1588C58.7828 26.1271 59.1287 25.9593 59.2012 26.0118C59.1979 26.0094 58.9386 26.0353 59.1482 26.0201C59.1978 26.0165 59.2471 26.0111 59.2968 26.0088C59.3971 26.0041 59.4971 26.0069 59.5974 26.0128C59.8693 26.0108 60.1295 25.8885 60.3217 25.6724C60.5139 25.4562 60.6227 25.1637 60.6245 24.858C60.6187 24.5538 60.5086 24.2639 60.3172 24.0487C60.1259 23.8336 59.868 23.7098 59.5974 23.7033L59.5974 23.7032Z" fill="#FDB239"/>
<path d="M267.328 279.454H15.4108C12.2253 279.45 9.17121 278.026 6.91868 275.493C4.66615 272.961 3.39909 269.527 3.39551 265.946V13.5088C3.39908 9.92725 4.66611 6.49358 6.91864 3.96106C9.17116 1.42854 12.2252 0.00401616 15.4108 0H267.328C270.513 0.00401616 273.567 1.42854 275.82 3.96106C278.072 6.49358 279.339 9.92725 279.343 13.5088V265.946C279.339 269.527 278.072 272.961 275.82 275.493C273.567 278.026 270.513 279.45 267.328 279.454ZM15.4108 1.53969C12.5883 1.5433 9.88238 2.80549 7.8866 5.04934C5.89082 7.2932 4.76819 10.3355 4.76497 13.5088V265.946C4.76826 269.119 5.89093 272.161 7.88671 274.405C9.88248 276.649 12.5884 277.911 15.4108 277.914H267.328C270.15 277.911 272.856 276.649 274.852 274.405C276.848 272.161 277.97 269.119 277.973 265.946V13.5088C277.97 10.3355 276.848 7.2932 274.852 5.04934C272.856 2.80549 270.15 1.5433 267.328 1.53969H15.4108Z" fill="#FDB239"/>
<path d="M14.9931 171.758L103.583 171.455L191.721 171.153L241.44 170.983C241.707 170.973 241.959 170.847 242.144 170.631C242.329 170.416 242.433 170.128 242.433 169.829C242.433 169.529 242.329 169.241 242.144 169.026C241.959 168.81 241.707 168.684 241.44 168.674L152.85 168.977L64.7121 169.278L14.9931 169.448C14.7269 169.459 14.4746 169.585 14.2895 169.8C14.1044 170.016 14.001 170.304 14.001 170.603C14.001 170.903 14.1044 171.19 14.2895 171.406C14.4746 171.621 14.7269 171.747 14.9931 171.758Z" fill="#FCA311"/>
<path d="M59.6852 169.885L60.233 133.519C60.2554 132.033 58.2012 132.032 58.1788 133.519L57.631 169.885C57.6086 171.371 59.6628 171.372 59.6852 169.885Z" fill="#E6E6E6"/>
<path d="M102.027 170.278L103.362 124.569L103.743 111.509C103.786 110.022 101.732 110.024 101.689 111.509L100.354 157.218L99.9724 170.278C99.9289 171.764 101.983 171.763 102.027 170.278Z" fill="#FCA311"/>
<path d="M144.253 89.8425C143.447 106.032 141.958 153.786 141.152 169.976C141.078 171.461 143.133 171.456 143.207 169.976C144.012 153.786 145.502 106.032 146.307 89.8425C146.381 88.3574 144.326 88.3622 144.253 89.8425Z" fill="#FCA311"/>
<path d="M186.275 153.73L186.024 169.291C186 170.778 188.054 170.778 188.078 169.291C188.375 150.912 189.138 151.511 189.222 146.324C189.246 144.838 187.192 144.837 187.168 146.324C187.168 146.324 186.573 135.351 186.275 153.73Z" fill="#FCA311"/>
<path d="M227.437 112.85L227.669 156.507L227.735 169.008C227.745 169.307 227.857 169.591 228.048 169.799C228.24 170.007 228.496 170.123 228.762 170.123C229.029 170.123 229.285 170.007 229.476 169.799C229.668 169.591 229.78 169.307 229.79 169.008L229.557 125.351L229.491 112.85C229.481 112.55 229.369 112.267 229.178 112.059C228.986 111.851 228.73 111.734 228.464 111.734C228.197 111.734 227.941 111.851 227.75 112.059C227.558 112.267 227.446 112.55 227.437 112.85Z" fill="#FCA311"/>
<path d="M15.1584 170.458C13.4581 165.205 17.291 160.152 21.2295 157.882C25.948 155.162 31.376 154.545 36.1445 151.923C43.2536 148.014 48.4316 140.998 53.0391 133.975C57.7814 126.747 62.1206 118.989 68.1465 112.983C71.3219 109.748 75.0722 107.308 79.1493 105.824C84.2863 104.022 89.7344 103.898 95.0425 104.625C106.011 106.126 116.179 111.219 126.762 114.456C136.74 117.508 147.734 119.225 157.528 114.478C162.504 112.067 166.573 108.023 170.943 104.523C175.173 101.1 179.902 98.5355 184.917 96.9441C194.749 93.8705 205.485 94.6912 214.638 99.8873C223.052 104.602 229.714 112.507 233.448 122.207C237.787 133.861 237.222 146.885 235.804 159.152C235.438 162.323 235.002 165.483 234.561 168.641C234.358 170.095 236.337 170.722 236.542 169.255C238.307 156.606 240.067 143.556 237.871 130.828C235.972 119.713 230.536 109.757 222.58 102.823C214.59 95.8704 204.658 92.3463 194.566 92.8836C189.278 93.1595 184.072 94.4613 179.178 96.7315C174.097 99.0941 169.795 102.596 165.426 106.28C160.933 110.069 156.302 113.203 150.724 114.438C145.313 115.637 139.685 115.187 134.298 114.056C123.183 111.721 112.823 106.369 101.803 103.626C91.5923 101.086 80.5743 100.832 71.4311 107.317C64.3979 112.306 59.4282 120.05 54.6588 127.528C49.9311 134.941 45.1437 142.868 38.2306 147.932C34.0135 151.02 29.273 152.16 24.5555 153.897C19.8259 155.639 15.2854 158.577 13.3569 164.025C12.5257 166.269 12.4619 168.779 13.1776 171.072C13.6261 172.458 15.612 171.86 15.1584 170.458V170.458Z" fill="#FCA311"/>
<path d="M59.0039 128.49L59.001 128.492L59.0068 128.49H59.0039Z" fill="#E6E6E6"/>
<path d="M62.5655 126.366C62.0908 125.421 61.3333 124.695 60.4278 124.319C59.5223 123.942 58.5273 123.938 57.6196 124.308C57.1684 124.493 56.7547 124.778 56.4032 125.146C56.0516 125.514 55.7693 125.958 55.5729 126.451C55.5335 126.555 55.5106 126.665 55.4785 126.773C55.434 126.854 55.3805 126.927 55.3406 127.011C54.9148 127.965 54.7983 129.056 55.0109 130.096C55.2236 131.136 55.7522 132.06 56.5057 132.709C57.2592 133.358 58.1904 133.692 59.139 133.652C60.0875 133.612 60.994 133.202 61.7023 132.491C62.4468 131.735 62.9384 130.714 63.0954 129.6C63.2525 128.486 63.0655 127.344 62.5655 126.366ZM59.9928 128.327C60.0012 128.386 59.9981 128.439 59.9928 128.327V128.327ZM59.7313 127.659C59.7212 127.646 59.7225 127.647 59.7313 127.659V127.659ZM58.5786 128.18C58.5632 128.153 58.5617 128.149 58.5786 128.18V128.18ZM58.8519 128.44C58.9169 128.465 58.8912 128.46 58.8519 128.44V128.44ZM58.9739 128.506L59.0009 128.492C58.9943 128.492 58.9876 128.491 58.9817 128.487L58.9825 128.487L59.0037 128.49L59.0077 128.488L58.9955 128.485C59.0061 128.485 59.0073 128.486 59.008 128.488C59.1302 128.425 59.0475 128.456 58.9766 128.48L58.9719 128.479C58.9276 128.454 58.8801 128.437 58.831 128.428C58.8265 128.425 58.8211 128.423 58.8174 128.42C58.778 128.389 58.5793 128.214 58.7637 128.397C58.7235 128.357 58.6839 128.318 58.6461 128.275C58.6239 128.249 58.6037 128.222 58.5859 128.192C58.5617 128.145 58.5382 128.098 58.5155 128.051L58.5121 128.025C58.5091 128.004 58.5068 127.995 58.5043 127.982C58.5055 127.969 58.5073 127.955 58.5092 127.941C58.5229 127.899 58.5317 127.856 58.5353 127.812L58.5432 127.801C58.5727 127.754 58.5985 127.7 58.6267 127.652C58.4778 127.906 58.6849 127.624 58.7004 127.588C58.703 127.582 58.6984 127.586 58.6996 127.581C58.7056 127.578 58.7037 127.58 58.711 127.575C58.7571 127.545 58.8009 127.511 58.8477 127.482C58.9035 127.447 59.1233 127.377 58.8954 127.45C58.9471 127.433 58.9968 127.412 59.0492 127.397C59.0586 127.394 59.1354 127.382 59.1767 127.374C59.213 127.373 59.2482 127.372 59.2519 127.372C59.269 127.372 59.286 127.374 59.3031 127.375C59.2653 127.381 59.4329 127.421 59.4827 127.43C59.4898 127.436 59.4935 127.44 59.5033 127.449C59.5454 127.483 59.5966 127.514 59.641 127.546C59.4424 127.402 59.6436 127.558 59.6816 127.6C59.7043 127.626 59.7251 127.653 59.7465 127.68C59.7661 127.705 59.7838 127.733 59.7994 127.761C59.832 127.829 59.8666 127.896 59.9008 127.962L59.9103 127.979C59.9101 127.982 59.91 127.984 59.91 127.986C59.9279 128.093 59.9542 128.198 59.9887 128.3C59.9904 128.308 59.9917 128.317 59.9926 128.326C59.9958 128.385 60.0001 128.443 60.0002 128.502L59.9998 128.514C59.8416 128.421 59.6661 128.372 59.4877 128.371C59.3093 128.369 59.1332 128.415 58.9738 128.506H58.9739Z" fill="#D2880E"/>
<path d="M59.0106 128.49C59.0149 128.492 59.0107 128.491 59.0098 128.492L59.0106 128.49Z" fill="#E6E6E6"/>
<path d="M59.0103 128.49L59.0068 128.491C59.0113 128.491 59.0097 128.49 59.0103 128.49Z" fill="#E6E6E6"/>
<path d="M59.0078 128.488L59.0098 128.489L59.0078 128.488Z" fill="#E6E6E6"/>
<path d="M102.827 106.936L102.824 106.937L102.83 106.936H102.827Z" fill="#E6E6E6"/>
<path d="M106.389 104.811C105.914 103.866 105.157 103.141 104.251 102.764C103.346 102.387 102.351 102.383 101.443 102.753C100.992 102.938 100.578 103.224 100.226 103.592C99.8749 103.96 99.5925 104.403 99.3961 104.896C99.3568 105.001 99.3338 105.111 99.3017 105.218C99.2572 105.299 99.2037 105.372 99.1638 105.457C98.7381 106.411 98.6215 107.501 98.8342 108.541C99.0469 109.582 99.5755 110.506 100.329 111.155C101.082 111.804 102.014 112.137 102.962 112.097C103.911 112.057 104.817 111.647 105.526 110.936C106.27 110.18 106.762 109.16 106.919 108.045C107.076 106.931 106.889 105.79 106.389 104.811ZM103.816 106.773C103.824 106.831 103.821 106.885 103.816 106.773V106.773ZM103.555 106.104C103.544 106.091 103.546 106.092 103.555 106.104V106.104ZM102.402 106.625C102.386 106.599 102.385 106.594 102.402 106.625V106.625ZM102.675 106.886C102.74 106.911 102.714 106.905 102.675 106.886V106.886ZM102.797 106.951L102.824 106.937C102.817 106.938 102.811 106.936 102.805 106.933L102.806 106.933L102.827 106.936L102.831 106.934L102.819 106.93C102.829 106.93 102.83 106.932 102.831 106.933C102.953 106.871 102.871 106.901 102.8 106.925L102.795 106.924C102.751 106.899 102.703 106.882 102.654 106.873C102.65 106.871 102.644 106.869 102.641 106.865C102.601 106.834 102.402 106.659 102.587 106.842C102.547 106.803 102.507 106.763 102.469 106.72C102.447 106.695 102.427 106.667 102.409 106.637C102.385 106.591 102.361 106.543 102.339 106.496L102.335 106.47C102.332 106.449 102.33 106.44 102.327 106.427C102.329 106.414 102.331 106.4 102.332 106.386C102.346 106.345 102.355 106.301 102.358 106.257L102.366 106.246C102.396 106.2 102.422 106.146 102.45 106.098C102.301 106.352 102.508 106.07 102.524 106.034C102.526 106.028 102.522 106.031 102.523 106.027C102.529 106.023 102.527 106.026 102.534 106.021C102.58 105.99 102.624 105.956 102.671 105.927C102.727 105.892 102.946 105.822 102.719 105.895C102.77 105.879 102.82 105.858 102.872 105.842C102.882 105.84 102.959 105.828 103 105.819C103.036 105.818 103.071 105.817 103.075 105.817C103.092 105.817 103.109 105.82 103.126 105.82C103.088 105.826 103.256 105.867 103.306 105.875C103.313 105.882 103.317 105.886 103.327 105.894C103.369 105.928 103.42 105.959 103.464 105.991C103.266 105.847 103.467 106.003 103.505 106.046C103.527 106.071 103.548 106.098 103.57 106.125C103.589 106.151 103.607 106.178 103.623 106.207C103.655 106.274 103.69 106.342 103.724 106.408L103.734 106.425C103.733 106.427 103.733 106.429 103.733 106.431C103.751 106.538 103.777 106.643 103.812 106.745C103.814 106.754 103.815 106.762 103.816 106.771C103.819 106.83 103.823 106.888 103.823 106.947L103.823 106.959C103.665 106.866 103.489 106.817 103.311 106.816C103.133 106.815 102.956 106.861 102.797 106.951Z" fill="#D2880E"/>
<path d="M102.834 106.936L102.83 106.936C102.835 106.937 102.833 106.936 102.834 106.936Z" fill="#E6E6E6"/>
<path d="M102.831 106.934L102.833 106.935L102.831 106.934Z" fill="#E6E6E6"/>
<path d="M102.834 106.934C102.838 106.935 102.834 106.935 102.833 106.935L102.834 106.934Z" fill="#E6E6E6"/>
<path d="M145.284 117.711L145.286 117.712L145.284 117.711Z" fill="#E6E6E6"/>
<path d="M148.842 83.2547C148.367 82.3095 147.61 81.584 146.704 81.2072C145.799 80.8304 144.804 80.8267 143.896 81.1967C143.445 81.3818 143.031 81.6669 142.68 82.0349C142.328 82.4029 142.046 82.8464 141.849 83.3393C141.81 83.444 141.787 83.5541 141.755 83.6615C141.71 83.7424 141.657 83.8154 141.617 83.9001C141.191 84.8539 141.075 85.9448 141.287 86.9848C141.5 88.0249 142.029 88.949 142.782 89.5981C143.536 90.2471 144.467 90.5804 145.415 90.5405C146.364 90.5007 147.27 90.0902 147.979 89.3798C148.723 88.6232 149.215 87.6029 149.372 86.4885C149.529 85.3742 149.342 84.233 148.842 83.2547ZM146.269 85.216C146.278 85.2743 146.275 85.3279 146.269 85.216V85.216ZM146.008 84.5475C145.998 84.5344 145.999 84.5359 146.008 84.5475V84.5475ZM144.855 85.0686C144.84 85.0419 144.838 85.0374 144.855 85.0686V85.0686ZM145.128 85.329C145.193 85.3539 145.168 85.3487 145.128 85.329V85.329ZM145.25 85.3943L145.277 85.3804C145.271 85.3811 145.264 85.3796 145.258 85.3762L145.259 85.376L145.28 85.379L145.284 85.3769L145.272 85.3737C145.282 85.3733 145.284 85.375 145.284 85.3768C145.407 85.3139 145.324 85.3442 145.253 85.3688L145.248 85.3676C145.204 85.3424 145.156 85.3252 145.107 85.3168C145.103 85.3139 145.097 85.3119 145.094 85.3088C145.054 85.2773 144.856 85.1028 145.04 85.2858C145 85.246 144.96 85.2068 144.922 85.1638C144.9 85.1381 144.88 85.1103 144.862 85.0806C144.838 85.0339 144.815 84.9868 144.792 84.9394L144.788 84.9137C144.785 84.8925 144.783 84.8836 144.781 84.8708C144.782 84.8576 144.784 84.8435 144.786 84.8297C144.799 84.7882 144.808 84.7448 144.812 84.7006L144.82 84.6893C144.849 84.6431 144.875 84.5891 144.903 84.5409C144.754 84.7952 144.961 84.5129 144.977 84.4771C144.979 84.471 144.975 84.4744 144.976 84.4701C144.982 84.4664 144.98 84.469 144.987 84.4642C145.033 84.4336 145.077 84.3996 145.124 84.3704C145.18 84.3356 145.4 84.2655 145.172 84.3387C145.223 84.3221 145.273 84.3011 145.325 84.2857C145.335 84.2829 145.412 84.2709 145.453 84.2625C145.489 84.2615 145.525 84.2602 145.528 84.2603C145.545 84.2605 145.562 84.2629 145.579 84.2637C145.542 84.2694 145.709 84.3101 145.759 84.3187C145.766 84.3251 145.77 84.3292 145.78 84.3372C145.822 84.3718 145.873 84.4025 145.917 84.4348C145.719 84.2905 145.92 84.4463 145.958 84.4889C145.981 84.5144 146.001 84.5417 146.023 84.5685C146.042 84.594 146.06 84.6213 146.076 84.6501C146.108 84.7172 146.143 84.7851 146.177 84.8511L146.187 84.868C146.186 84.8702 146.186 84.8724 146.186 84.8746C146.204 84.9817 146.231 85.0867 146.265 85.1885C146.267 85.1971 146.268 85.2058 146.269 85.2146C146.272 85.2732 146.276 85.3317 146.277 85.3907L146.276 85.4026C146.118 85.3098 145.942 85.2608 145.764 85.2593C145.586 85.2579 145.41 85.3042 145.25 85.3943Z" fill="#D2880E"/>
<path d="M145.28 117.713L145.277 117.714L145.283 117.713H145.28Z" fill="#E6E6E6"/>
<path d="M145.287 117.713L145.283 117.713C145.288 117.714 145.286 117.713 145.287 117.713Z" fill="#E6E6E6"/>
<path d="M145.287 117.711C145.291 117.712 145.287 117.712 145.286 117.712L145.287 117.711Z" fill="#E6E6E6"/>
<path d="M191.981 142.534C191.506 141.589 190.748 140.863 189.843 140.487C188.937 140.11 187.942 140.106 187.035 140.476C186.583 140.661 186.17 140.946 185.818 141.314C185.467 141.682 185.184 142.126 184.988 142.619C184.949 142.723 184.926 142.833 184.893 142.941C184.849 143.022 184.795 143.095 184.756 143.179C184.33 144.133 184.213 145.224 184.426 146.264C184.639 147.304 185.167 148.228 185.921 148.877C186.674 149.526 187.605 149.86 188.554 149.82C189.503 149.78 190.409 149.369 191.117 148.659C191.862 147.902 192.353 146.882 192.51 145.768C192.667 144.653 192.48 143.512 191.981 142.534ZM189.408 144.495C189.416 144.554 189.413 144.607 189.408 144.495V144.495ZM189.146 143.827C189.136 143.814 189.138 143.815 189.146 143.827V143.827ZM187.994 144.348C187.978 144.321 187.977 144.317 187.994 144.348V144.348ZM188.267 144.608C188.332 144.633 188.306 144.628 188.267 144.608V144.608ZM188.389 144.674L188.416 144.66C188.409 144.66 188.403 144.659 188.397 144.655L188.398 144.655L188.419 144.658L188.423 144.656L188.41 144.653C188.421 144.653 188.422 144.654 188.423 144.656C188.545 144.593 188.462 144.623 188.392 144.648L188.387 144.647C188.343 144.622 188.295 144.605 188.246 144.596C188.242 144.593 188.236 144.591 188.232 144.588C188.193 144.557 187.994 144.382 188.179 144.565C188.139 144.525 188.099 144.486 188.061 144.443C188.039 144.417 188.019 144.39 188.001 144.36C187.977 144.313 187.953 144.266 187.93 144.219L187.927 144.193C187.924 144.172 187.922 144.163 187.919 144.15C187.92 144.137 187.922 144.123 187.924 144.109C187.938 144.067 187.947 144.024 187.95 143.98L187.958 143.969C187.988 143.922 188.014 143.868 188.042 143.82C187.893 144.074 188.1 143.792 188.115 143.756C188.118 143.75 188.113 143.754 188.115 143.749C188.121 143.746 188.119 143.748 188.126 143.743C188.172 143.713 188.216 143.679 188.263 143.65C188.318 143.615 188.538 143.545 188.31 143.618C188.362 143.601 188.412 143.58 188.464 143.565C188.474 143.562 188.55 143.55 188.592 143.542C188.628 143.541 188.663 143.54 188.667 143.54C188.684 143.54 188.701 143.542 188.718 143.543C188.68 143.549 188.848 143.589 188.898 143.598C188.905 143.604 188.909 143.608 188.918 143.617C188.96 143.651 189.012 143.682 189.056 143.714C188.857 143.57 189.059 143.726 189.097 143.768C189.119 143.794 189.14 143.821 189.162 143.848C189.181 143.873 189.199 143.901 189.214 143.929C189.247 143.996 189.282 144.064 189.316 144.13L189.325 144.147C189.325 144.149 189.325 144.152 189.325 144.154C189.343 144.261 189.369 144.366 189.404 144.468C189.405 144.476 189.407 144.485 189.408 144.494C189.411 144.553 189.415 144.611 189.415 144.67L189.415 144.682C189.257 144.589 189.081 144.54 188.903 144.539C188.724 144.537 188.548 144.583 188.389 144.674Z" fill="#D2880E"/>
<path d="M188.419 93.8477L188.416 93.8491L188.422 93.8477H188.419Z" fill="#E6E6E6"/>
<path d="M188.424 93.8477L188.421 93.8482C188.425 93.8487 188.424 93.8479 188.424 93.8477Z" fill="#E6E6E6"/>
<path d="M188.426 93.8457C188.43 93.847 188.426 93.8468 188.425 93.8472L188.426 93.8457Z" fill="#E6E6E6"/>
<path d="M188.423 93.8457L188.425 93.8467L188.423 93.8457Z" fill="#E6E6E6"/>
<path d="M232.38 107.12C231.905 106.175 231.148 105.449 230.242 105.072C229.337 104.696 228.342 104.692 227.434 105.062C226.983 105.247 226.569 105.532 226.218 105.9C225.866 106.268 225.584 106.712 225.387 107.204C225.348 107.309 225.325 107.419 225.293 107.527C225.248 107.608 225.195 107.681 225.155 107.765C224.729 108.719 224.613 109.81 224.825 110.85C225.038 111.89 225.567 112.814 226.32 113.463C227.074 114.112 228.005 114.446 228.953 114.406C229.902 114.366 230.808 113.955 231.517 113.245C232.261 112.488 232.753 111.468 232.91 110.354C233.067 109.239 232.88 108.098 232.38 107.12ZM229.807 109.081C229.816 109.14 229.813 109.193 229.807 109.081V109.081ZM229.546 108.413C229.536 108.4 229.537 108.401 229.546 108.413V108.413ZM228.393 108.934C228.378 108.907 228.376 108.903 228.393 108.934V108.934ZM228.666 109.194C228.731 109.219 228.706 109.214 228.666 109.194V109.194ZM228.788 109.26L228.815 109.246C228.809 109.246 228.802 109.245 228.796 109.241L228.797 109.241L228.818 109.244L228.822 109.242L228.81 109.239C228.82 109.239 228.822 109.24 228.822 109.242C228.945 109.179 228.862 109.209 228.791 109.234L228.786 109.233C228.742 109.208 228.694 109.19 228.645 109.182C228.641 109.179 228.636 109.177 228.632 109.174C228.592 109.143 228.394 108.968 228.578 109.151C228.538 109.111 228.498 109.072 228.461 109.029C228.438 109.003 228.418 108.976 228.4 108.946C228.376 108.899 228.353 108.852 228.33 108.805L228.326 108.779C228.323 108.758 228.321 108.749 228.319 108.736C228.32 108.723 228.322 108.709 228.324 108.695C228.337 108.653 228.346 108.61 228.35 108.566L228.358 108.555C228.387 108.508 228.413 108.454 228.441 108.406C228.292 108.66 228.499 108.378 228.515 108.342C228.517 108.336 228.513 108.34 228.514 108.335C228.52 108.332 228.518 108.334 228.525 108.329C228.572 108.299 228.615 108.265 228.662 108.236C228.718 108.201 228.938 108.131 228.71 108.204C228.762 108.187 228.811 108.166 228.864 108.151C228.873 108.148 228.95 108.136 228.991 108.128C229.027 108.127 229.063 108.125 229.066 108.126C229.083 108.126 229.1 108.128 229.117 108.129C229.08 108.135 229.247 108.175 229.297 108.184C229.304 108.19 229.308 108.194 229.318 108.202C229.36 108.237 229.411 108.268 229.455 108.3C229.257 108.156 229.458 108.312 229.496 108.354C229.519 108.38 229.54 108.407 229.561 108.434C229.58 108.459 229.598 108.487 229.614 108.515C229.646 108.582 229.681 108.65 229.715 108.716L229.725 108.733C229.725 108.735 229.724 108.738 229.724 108.74C229.742 108.847 229.769 108.952 229.803 109.054C229.805 109.062 229.806 109.071 229.807 109.08C229.81 109.138 229.815 109.197 229.815 109.256L229.814 109.268C229.656 109.175 229.48 109.126 229.302 109.125C229.124 109.123 228.948 109.169 228.788 109.26Z" fill="#D2880E"/>
<path d="M228.818 109.244L228.815 109.246L228.821 109.244H228.818Z" fill="#E6E6E6"/>
<path d="M228.822 109.242L228.824 109.243L228.822 109.242Z" fill="#E6E6E6"/>
<path d="M228.824 109.244C228.828 109.245 228.824 109.245 228.823 109.246L228.824 109.244Z" fill="#E6E6E6"/>
<path d="M228.824 109.244L228.82 109.245C228.825 109.245 228.823 109.244 228.824 109.244Z" fill="#E6E6E6"/>
<path d="M217.747 144.525L185.909 146.515C185.729 146.526 185.553 146.459 185.416 146.329C185.279 146.198 185.192 146.013 185.172 145.812C185.153 145.611 185.202 145.409 185.311 145.249C185.42 145.088 185.58 144.98 185.757 144.948L218.299 138.994L217.747 144.525Z" fill="#3F3D56"/>
<path d="M258.209 224.217L270.207 201.523L279.074 206.232C279.074 206.232 263.794 227.689 263.307 228.306C263.516 229.349 263.438 230.439 263.084 231.431C262.729 232.423 262.116 233.27 261.323 233.862C260.531 234.453 259.598 234.76 258.648 234.742C257.697 234.724 256.774 234.382 256 233.761C255.226 233.14 254.638 232.27 254.313 231.265C253.989 230.261 253.943 229.169 254.183 228.134C254.422 227.1 254.935 226.171 255.654 225.472C256.373 224.772 257.264 224.335 258.209 224.217Z" fill="#FFB6B6"/>
<path d="M263.199 171.502L282.637 182.904C283.852 183.888 284.871 185.146 285.628 186.598C286.386 188.049 286.866 189.663 287.037 191.335C287.209 193.007 287.068 194.701 286.624 196.309C286.18 197.916 285.443 199.402 284.459 200.671L271.058 217.953L265.221 209.059L269.72 198.482L261.008 195.899L263.199 171.502Z" fill="#00BBF9"/>
<path d="M207.807 144.897L205.617 171.182L195.811 171.2C195.811 171.2 201.437 144.451 201.642 143.659C201.056 142.817 200.711 141.795 200.653 140.728C200.595 139.661 200.826 138.6 201.317 137.684C201.807 136.768 202.533 136.041 203.399 135.599C204.264 135.157 205.229 135.021 206.165 135.209C207.101 135.397 207.964 135.9 208.64 136.652C209.316 137.403 209.774 138.368 209.952 139.418C210.13 140.468 210.02 141.554 209.637 142.532C209.254 143.51 208.616 144.335 207.807 144.897V144.897Z" fill="#FFB6B6"/>
<path d="M227.327 198.649L204.756 193.995C195.25 192.71 191.35 185.678 193.065 178.82L198.584 156.748L207.249 161.971L207.215 173.696L219.344 171.831L227.327 198.649Z" fill="#00BBF9"/>
<path d="M218.088 380.298H211.881L208.929 353.383H218.089L218.088 380.298Z" fill="#FFB6B6"/>
<path d="M218.307 387.578L199.221 387.577V387.306C199.221 385.091 200.004 382.967 201.397 381.4C202.79 379.834 204.679 378.954 206.649 378.954H206.65L210.136 375.98L216.641 378.955L218.307 378.955L218.307 387.578Z" fill="#2F2E41"/>
<path d="M262.003 380.298H268.21L271.162 353.383H262.002L262.003 380.298Z" fill="#FFB6B6"/>
<path d="M261.784 387.578L280.87 387.577V387.306C280.87 385.091 280.087 382.967 278.694 381.4C277.301 379.834 275.412 378.954 273.442 378.954H273.441L269.955 375.98L263.45 378.955L261.784 378.955L261.784 387.578Z" fill="#2F2E41"/>
<path d="M208.656 333.603C208.748 332.067 209.477 323.574 209.477 323.574L211.223 305.561L214.299 257.814L217.042 245.264L230.617 251.209L241.633 245.272L254.725 249.978L264.92 254.276C264.92 254.276 264.938 256.116 265.016 258.339C265.121 261.249 265.304 264.816 265.741 265.743C266.469 267.382 266.286 276.18 266.286 276.18C266.286 276.18 267.011 294.079 267.923 296.042C268.835 298.005 269.018 302.092 268.743 302.911C268.468 303.731 269.655 325.227 269.655 325.227C269.655 325.227 272.702 363.268 270.79 369.004C268.879 374.74 261.656 370.982 261.656 370.982C261.656 370.982 262.005 369.451 259.91 368.73C257.815 368.009 251.435 314.069 251.435 314.069C251.435 314.069 250.248 303.01 249.156 299.84C248.065 296.67 247.062 287.764 247.062 287.764C247.062 287.764 240.323 273.025 240.236 269.747C240.236 269.747 239.354 266.68 238.521 270.056C237.687 273.432 235.23 281.518 235.23 281.518L232.834 291.449L230.015 306.287L228.191 318.78C228.191 318.78 225.459 335.359 225.022 336.076C224.586 336.792 225.022 351.939 225.022 351.939C225.022 351.939 222.91 364.839 219.925 367.091C216.94 369.343 209.031 367.127 209.031 367.127C209.031 367.127 208.565 335.139 208.656 333.603Z" fill="#2F2E41"/>
<path d="M218.805 204.881L217.07 230.146L214.464 233.178C214.229 233.451 214.046 233.775 213.925 234.13C213.804 234.485 213.748 234.864 213.76 235.244C213.772 235.624 213.852 235.997 213.996 236.342C214.14 236.686 214.344 236.994 214.596 237.247L213.16 240.016L212.652 248.738C212.507 249.417 212.497 250.123 212.622 250.807C212.748 251.49 213.007 252.134 213.38 252.692C213.752 253.25 214.23 253.709 214.779 254.036C215.328 254.362 215.934 254.548 216.554 254.581L261.494 256.955C262.111 256.987 262.726 256.867 263.297 256.603C263.868 256.339 264.38 255.937 264.798 255.426C265.215 254.915 265.528 254.307 265.714 253.645C265.899 252.983 265.953 252.283 265.872 251.595L262.051 219.251V216.832L260.34 212.162L261.219 196.515L263.264 171.681L251.376 168.228L244.93 163.242L233.731 163.443L226.936 169.717L217.876 171.312L211.024 172.844L210.151 174.976L211.897 174.55L218.224 202.296L218.805 204.881Z" fill="#00BBF9"/>
<path d="M239.08 159.857C246.365 159.857 252.272 153.217 252.272 145.025C252.272 136.834 246.365 130.193 239.08 130.193C231.794 130.193 225.888 136.834 225.888 145.025C225.888 153.217 231.794 159.857 239.08 159.857Z" fill="#FFB6B6"/>
<path d="M235.899 158.9L245.43 158.354C246.652 158.284 247.985 158.162 248.873 157.217C249.351 156.634 249.718 155.947 249.953 155.2C250.834 152.898 251.716 150.597 252.574 148.285C253.762 145.087 254.928 141.711 254.625 138.262C254.554 136.687 253.967 135.198 252.976 134.081C252.471 133.543 251.821 133.208 251.128 133.129C250.436 133.051 249.74 133.232 249.148 133.645C249.002 132.554 248.636 131.515 248.079 130.607C247.523 129.698 246.79 128.944 245.936 128.4C244.211 127.329 242.241 126.86 240.278 127.052C237.43 127.258 234.71 128.463 232.502 130.498C231.881 131.142 231.218 131.732 230.519 132.265C230.167 132.53 229.77 132.711 229.354 132.797C228.938 132.884 228.51 132.874 228.097 132.769C227.689 132.646 227.333 132.361 227.097 131.966C226.86 131.571 226.759 131.094 226.811 130.621C226.14 131.186 225.68 132.011 225.52 132.936C225.361 133.861 225.514 134.82 225.949 135.625C225.454 135.858 224.914 135.943 224.381 135.873C223.849 135.802 223.341 135.577 222.908 135.221C222.445 135.479 222.034 135.844 221.703 136.291C221.372 136.739 221.128 137.259 220.986 137.818C220.844 138.378 220.808 138.965 220.879 139.541C220.951 140.117 221.128 140.671 221.401 141.165C221.674 141.66 222.035 142.085 222.462 142.414C222.889 142.742 223.373 142.967 223.882 143.073C224.391 143.179 224.914 143.165 225.417 143.031C225.921 142.897 226.394 142.646 226.807 142.294C227.385 143.205 227.17 144.443 227.094 145.559C227.019 146.675 227.285 148.062 228.242 148.371C229.536 148.788 230.584 146.829 231.93 146.85C232.262 146.881 232.582 147.003 232.862 147.205C233.142 147.408 233.373 147.686 233.534 148.013C233.852 148.671 234.069 149.383 234.177 150.122L235.899 158.839" fill="#2F2E41"/>
<path d="M607.535 292.261C607.535 289.965 606.848 288.101 606.006 288.096H376.385C375.539 288.101 374.856 289.965 374.852 292.261V386.806C374.853 387.019 374.782 387.224 374.655 387.382C374.527 387.54 374.352 387.639 374.163 387.66C373.547 387.726 372.931 387.788 372.314 387.846C372.299 387.846 372.284 387.85 372.268 387.85C371.933 387.884 371.598 387.91 371.262 387.94H371.259C371.086 387.581 370.915 387.22 370.747 386.855C370.69 386.732 370.66 386.595 370.66 386.457V286.858C370.66 286.224 370.683 285.585 370.721 284.955C370.775 284.09 370.871 283.229 371.007 282.376C371.651 278.395 373.107 275.7 374.761 275.691H607.626C607.867 275.693 608.106 275.75 608.327 275.858C608.652 276.02 608.946 276.252 609.192 276.54C609.527 276.93 609.812 277.37 610.042 277.847C610.991 279.973 611.538 282.297 611.647 284.673C611.647 284.698 611.651 284.724 611.651 284.75C611.704 285.444 611.731 286.151 611.727 286.858L611.78 296.041L611.814 301.517L611.917 318.699L611.955 324.801L612.123 387.447C612.123 387.674 612.043 387.892 611.9 388.053C611.757 388.214 611.563 388.304 611.361 388.304H608.297C608.095 388.304 607.901 388.214 607.758 388.053C607.615 387.892 607.535 387.674 607.535 387.447V292.261Z" fill="#1F132E"/>
<path d="M545.138 232.725H520.396C520.046 232.725 519.711 232.882 519.464 233.161C519.216 233.439 519.078 233.817 519.078 234.21V278.154H546.46V234.21C546.46 234.015 546.426 233.822 546.359 233.642C546.293 233.461 546.196 233.298 546.073 233.16C545.95 233.022 545.805 232.912 545.644 232.837C545.484 232.763 545.312 232.725 545.138 232.725ZM532.851 257.693C532.077 257.689 531.336 257.341 530.789 256.726C530.241 256.111 529.933 255.278 529.929 254.408V249.34C529.929 248.468 530.237 247.633 530.785 247.017C531.333 246.401 532.076 246.055 532.851 246.055C533.625 246.055 534.369 246.401 534.916 247.017C535.464 247.633 535.772 248.468 535.772 249.34V254.408C535.769 255.278 535.46 256.111 534.912 256.726C534.365 257.341 533.624 257.689 532.851 257.693Z" fill="#AC78E9"/>
<path d="M518.993 276.748V280.988C518.994 281.207 519.071 281.418 519.21 281.573C519.348 281.729 519.535 281.816 519.73 281.817H545.808C546.003 281.815 546.19 281.728 546.328 281.573C546.466 281.417 546.544 281.207 546.545 280.988V276.748H518.993Z" fill="#3F3D56"/>
<path d="M586.11 164.145H480.347C479.438 164.146 478.567 164.553 477.925 165.275C477.282 165.997 476.92 166.977 476.919 167.998V248.239C476.92 249.261 477.281 250.24 477.924 250.963C478.567 251.685 479.438 252.092 480.347 252.093H586.11C587.019 252.092 587.89 251.685 588.533 250.963C589.175 250.24 589.537 249.261 589.538 248.239V167.998C589.536 166.977 589.174 165.997 588.532 165.275C587.889 164.553 587.018 164.146 586.11 164.145Z" fill="#4E2F73"/>
<path d="M585.226 166.93H481.23C480.743 166.931 480.277 167.149 479.933 167.536C479.59 167.923 479.397 168.448 479.396 168.995V247.247C479.397 247.793 479.591 248.317 479.934 248.703C480.278 249.089 480.744 249.307 481.23 249.308H585.226C585.712 249.307 586.178 249.089 586.521 248.703C586.865 248.317 587.059 247.793 587.059 247.247V168.995C587.059 168.448 586.866 167.923 586.523 167.536C586.179 167.149 585.713 166.931 585.226 166.93Z" fill="white"/>
<path d="M564.969 283.291H503.097C502.928 283.291 502.761 283.249 502.608 283.167C502.455 283.085 502.32 282.966 502.213 282.818C502.107 282.67 502.031 282.497 501.991 282.312C501.951 282.127 501.949 281.934 501.983 281.748L502.943 276.621C502.998 276.335 503.138 276.078 503.341 275.893C503.543 275.708 503.796 275.607 504.057 275.605H564.01C564.27 275.607 564.523 275.708 564.726 275.893C564.928 276.078 565.068 276.335 565.123 276.621L566.083 281.748C566.118 281.934 566.116 282.127 566.076 282.312C566.036 282.497 565.96 282.67 565.853 282.818C565.746 282.966 565.612 283.085 565.459 283.167C565.306 283.249 565.139 283.291 564.969 283.291Z" fill="#CDAEF2"/>
<path d="M506.068 276.529H504.831C504.647 276.529 504.497 276.698 504.497 276.905V277.439C504.497 277.646 504.647 277.815 504.831 277.815H506.068C506.253 277.815 506.403 277.646 506.403 277.439V276.905C506.403 276.698 506.253 276.529 506.068 276.529Z" fill="#E6E6E6"/>
<path d="M509.879 276.529H508.642C508.457 276.529 508.308 276.698 508.308 276.905V277.439C508.308 277.646 508.457 277.815 508.642 277.815H509.879C510.064 277.815 510.213 277.646 510.213 277.439V276.905C510.213 276.698 510.064 276.529 509.879 276.529Z" fill="#E6E6E6"/>
<path d="M513.69 276.529H512.453C512.269 276.529 512.119 276.698 512.119 276.905V277.439C512.119 277.646 512.269 277.815 512.453 277.815H513.69C513.875 277.815 514.025 277.646 514.025 277.439V276.905C514.025 276.698 513.875 276.529 513.69 276.529Z" fill="#E6E6E6"/>
<path d="M517.502 276.529H516.265C516.08 276.529 515.931 276.698 515.931 276.905V277.439C515.931 277.646 516.08 277.815 516.265 277.815H517.502C517.687 277.815 517.836 277.646 517.836 277.439V276.905C517.836 276.698 517.687 276.529 517.502 276.529Z" fill="#E6E6E6"/>
<path d="M521.314 276.529H520.076C519.892 276.529 519.742 276.698 519.742 276.905V277.439C519.742 277.646 519.892 277.815 520.076 277.815H521.314C521.498 277.815 521.648 277.646 521.648 277.439V276.905C521.648 276.698 521.498 276.529 521.314 276.529Z" fill="#E6E6E6"/>
<path d="M525.124 276.529H523.887C523.702 276.529 523.553 276.698 523.553 276.905V277.439C523.553 277.646 523.702 277.815 523.887 277.815H525.124C525.309 277.815 525.458 277.646 525.458 277.439V276.905C525.458 276.698 525.309 276.529 525.124 276.529Z" fill="#E6E6E6"/>
<path d="M528.936 276.529H527.699C527.514 276.529 527.364 276.698 527.364 276.905V277.439C527.364 277.646 527.514 277.815 527.699 277.815H528.936C529.12 277.815 529.27 277.646 529.27 277.439V276.905C529.27 276.698 529.12 276.529 528.936 276.529Z" fill="#E6E6E6"/>
<path d="M532.747 276.529H531.51C531.325 276.529 531.176 276.698 531.176 276.905V277.439C531.176 277.646 531.325 277.815 531.51 277.815H532.747C532.932 277.815 533.081 277.646 533.081 277.439V276.905C533.081 276.698 532.932 276.529 532.747 276.529Z" fill="#E6E6E6"/>
<path d="M536.558 276.529H535.321C535.136 276.529 534.986 276.698 534.986 276.905V277.439C534.986 277.646 535.136 277.815 535.321 277.815H536.558C536.742 277.815 536.892 277.646 536.892 277.439V276.905C536.892 276.698 536.742 276.529 536.558 276.529Z" fill="#E6E6E6"/>
<path d="M540.369 276.529H539.132C538.947 276.529 538.798 276.698 538.798 276.905V277.439C538.798 277.646 538.947 277.815 539.132 277.815H540.369C540.554 277.815 540.703 277.646 540.703 277.439V276.905C540.703 276.698 540.554 276.529 540.369 276.529Z" fill="#E6E6E6"/>
<path d="M544.181 276.529H542.944C542.759 276.529 542.609 276.698 542.609 276.905V277.439C542.609 277.646 542.759 277.815 542.944 277.815H544.181C544.365 277.815 544.515 277.646 544.515 277.439V276.905C544.515 276.698 544.365 276.529 544.181 276.529Z" fill="#E6E6E6"/>
<path d="M547.991 276.529H546.754C546.57 276.529 546.42 276.698 546.42 276.905V277.439C546.42 277.646 546.57 277.815 546.754 277.815H547.991C548.176 277.815 548.326 277.646 548.326 277.439V276.905C548.326 276.698 548.176 276.529 547.991 276.529Z" fill="#E6E6E6"/>
<path d="M551.803 276.529H550.566C550.381 276.529 550.231 276.698 550.231 276.905V277.439C550.231 277.646 550.381 277.815 550.566 277.815H551.803C551.987 277.815 552.137 277.646 552.137 277.439V276.905C552.137 276.698 551.987 276.529 551.803 276.529Z" fill="#E6E6E6"/>
<path d="M555.614 276.529H554.377C554.193 276.529 554.043 276.698 554.043 276.905V277.439C554.043 277.646 554.193 277.815 554.377 277.815H555.614C555.799 277.815 555.949 277.646 555.949 277.439V276.905C555.949 276.698 555.799 276.529 555.614 276.529Z" fill="#E6E6E6"/>
<path d="M559.425 276.529H558.188C558.003 276.529 557.854 276.698 557.854 276.905V277.439C557.854 277.646 558.003 277.815 558.188 277.815H559.425C559.609 277.815 559.759 277.646 559.759 277.439V276.905C559.759 276.698 559.609 276.529 559.425 276.529Z" fill="#E6E6E6"/>
<path d="M563.236 276.529H561.999C561.815 276.529 561.665 276.698 561.665 276.905V277.439C561.665 277.646 561.815 277.815 561.999 277.815H563.236C563.421 277.815 563.571 277.646 563.571 277.439V276.905C563.571 276.698 563.421 276.529 563.236 276.529Z" fill="#E6E6E6"/>
<path d="M506.023 278.672H504.786C504.602 278.672 504.452 278.84 504.452 279.048V279.582C504.452 279.789 504.602 279.957 504.786 279.957H506.023C506.208 279.957 506.358 279.789 506.358 279.582V279.048C506.358 278.84 506.208 278.672 506.023 278.672Z" fill="#E6E6E6"/>
<path d="M509.834 278.672H508.597C508.412 278.672 508.263 278.84 508.263 279.048V279.582C508.263 279.789 508.412 279.957 508.597 279.957H509.834C510.019 279.957 510.168 279.789 510.168 279.582V279.048C510.168 278.84 510.019 278.672 509.834 278.672Z" fill="#E6E6E6"/>
<path d="M513.646 278.672H512.409C512.224 278.672 512.074 278.84 512.074 279.048V279.582C512.074 279.789 512.224 279.957 512.409 279.957H513.646C513.83 279.957 513.98 279.789 513.98 279.582V279.048C513.98 278.84 513.83 278.672 513.646 278.672Z" fill="#E6E6E6"/>
<path d="M517.457 278.672H516.22C516.035 278.672 515.886 278.84 515.886 279.048V279.582C515.886 279.789 516.035 279.957 516.22 279.957H517.457C517.642 279.957 517.791 279.789 517.791 279.582V279.048C517.791 278.84 517.642 278.672 517.457 278.672Z" fill="#E6E6E6"/>
<path d="M521.268 278.672H520.031C519.846 278.672 519.696 278.84 519.696 279.048V279.582C519.696 279.789 519.846 279.957 520.031 279.957H521.268C521.452 279.957 521.602 279.789 521.602 279.582V279.048C521.602 278.84 521.452 278.672 521.268 278.672Z" fill="#E6E6E6"/>
<path d="M525.079 278.672H523.842C523.657 278.672 523.508 278.84 523.508 279.048V279.582C523.508 279.789 523.657 279.957 523.842 279.957H525.079C525.264 279.957 525.413 279.789 525.413 279.582V279.048C525.413 278.84 525.264 278.672 525.079 278.672Z" fill="#E6E6E6"/>
<path d="M528.891 278.672H527.654C527.469 278.672 527.319 278.84 527.319 279.048V279.582C527.319 279.789 527.469 279.957 527.654 279.957H528.891C529.075 279.957 529.225 279.789 529.225 279.582V279.048C529.225 278.84 529.075 278.672 528.891 278.672Z" fill="#E6E6E6"/>
<path d="M532.701 278.672H531.464C531.28 278.672 531.13 278.84 531.13 279.048V279.582C531.13 279.789 531.28 279.957 531.464 279.957H532.701C532.886 279.957 533.036 279.789 533.036 279.582V279.048C533.036 278.84 532.886 278.672 532.701 278.672Z" fill="#E6E6E6"/>
<path d="M536.513 278.672H535.276C535.091 278.672 534.941 278.84 534.941 279.048V279.582C534.941 279.789 535.091 279.957 535.276 279.957H536.513C536.697 279.957 536.847 279.789 536.847 279.582V279.048C536.847 278.84 536.697 278.672 536.513 278.672Z" fill="#E6E6E6"/>
<path d="M540.324 278.672H539.087C538.903 278.672 538.753 278.84 538.753 279.048V279.582C538.753 279.789 538.903 279.957 539.087 279.957H540.324C540.509 279.957 540.659 279.789 540.659 279.582V279.048C540.659 278.84 540.509 278.672 540.324 278.672Z" fill="#E6E6E6"/>
<path d="M544.135 278.672H542.898C542.713 278.672 542.563 278.84 542.563 279.048V279.582C542.563 279.789 542.713 279.957 542.898 279.957H544.135C544.319 279.957 544.469 279.789 544.469 279.582V279.048C544.469 278.84 544.319 278.672 544.135 278.672Z" fill="#E6E6E6"/>
<path d="M547.946 278.672H546.709C546.525 278.672 546.375 278.84 546.375 279.048V279.582C546.375 279.789 546.525 279.957 546.709 279.957H547.946C548.131 279.957 548.281 279.789 548.281 279.582V279.048C548.281 278.84 548.131 278.672 547.946 278.672Z" fill="#E6E6E6"/>
<path d="M551.758 278.672H550.521C550.336 278.672 550.187 278.84 550.187 279.048V279.582C550.187 279.789 550.336 279.957 550.521 279.957H551.758C551.942 279.957 552.092 279.789 552.092 279.582V279.048C552.092 278.84 551.942 278.672 551.758 278.672Z" fill="#E6E6E6"/>
<path d="M555.569 278.672H554.332C554.148 278.672 553.998 278.84 553.998 279.048V279.582C553.998 279.789 554.148 279.957 554.332 279.957H555.569C555.754 279.957 555.904 279.789 555.904 279.582V279.048C555.904 278.84 555.754 278.672 555.569 278.672Z" fill="#E6E6E6"/>
<path d="M559.38 278.672H558.143C557.958 278.672 557.809 278.84 557.809 279.048V279.582C557.809 279.789 557.958 279.957 558.143 279.957H559.38C559.565 279.957 559.714 279.789 559.714 279.582V279.048C559.714 278.84 559.565 278.672 559.38 278.672Z" fill="#E6E6E6"/>
<path d="M563.191 278.672H561.954C561.77 278.672 561.62 278.84 561.62 279.048V279.582C561.62 279.789 561.77 279.957 561.954 279.957H563.191C563.376 279.957 563.526 279.789 563.526 279.582V279.048C563.526 278.84 563.376 278.672 563.191 278.672Z" fill="#E6E6E6"/>
<path d="M537.657 281.242H523.08C522.896 281.242 522.746 281.41 522.746 281.618V282.152C522.746 282.359 522.896 282.528 523.08 282.528H537.657C537.841 282.528 537.991 282.359 537.991 282.152V281.618C537.991 281.41 537.841 281.242 537.657 281.242Z" fill="#E6E6E6"/>
<path d="M579.999 177.71H482.69C482.589 177.707 482.493 177.661 482.422 177.579C482.351 177.498 482.312 177.389 482.312 177.275C482.312 177.161 482.351 177.052 482.422 176.971C482.493 176.889 482.589 176.842 482.69 176.84H579.999C580.1 176.842 580.196 176.889 580.267 176.971C580.338 177.052 580.378 177.161 580.378 177.275C580.378 177.389 580.338 177.498 580.267 177.579C580.196 177.661 580.1 177.707 579.999 177.71Z" fill="#007DA6"/>
<path d="M489.314 174.619C490.566 174.619 491.582 173.452 491.582 172.013C491.582 170.573 490.566 169.406 489.314 169.406C488.061 169.406 487.046 170.573 487.046 172.013C487.046 173.452 488.061 174.619 489.314 174.619Z" fill="#CDAEF2"/>
<path d="M497.148 174.619C498.4 174.619 499.416 173.452 499.416 172.013C499.416 170.573 498.4 169.406 497.148 169.406C495.895 169.406 494.88 170.573 494.88 172.013C494.88 173.452 495.895 174.619 497.148 174.619Z" fill="#CDAEF2"/>
<path d="M504.983 174.619C506.235 174.619 507.251 173.452 507.251 172.013C507.251 170.573 506.235 169.406 504.983 169.406C503.73 169.406 502.715 170.573 502.715 172.013C502.715 173.452 503.73 174.619 504.983 174.619Z" fill="#CDAEF2"/>
<path d="M575.282 170.053H569.717C569.607 170.055 569.501 170.106 569.424 170.195C569.347 170.283 569.304 170.402 569.304 170.526C569.304 170.651 569.347 170.77 569.424 170.858C569.501 170.947 569.607 170.998 569.717 171H575.282C575.392 170.998 575.497 170.947 575.575 170.858C575.652 170.77 575.695 170.651 575.695 170.526C575.695 170.402 575.652 170.283 575.575 170.195C575.497 170.106 575.392 170.055 575.282 170.053H575.282Z" fill="#CDAEF2"/>
<path d="M575.282 171.83H569.717C569.606 171.833 569.501 171.884 569.424 171.972C569.347 172.061 569.304 172.18 569.304 172.304C569.304 172.428 569.347 172.547 569.424 172.635C569.501 172.724 569.606 172.775 569.717 172.778H575.282C575.392 172.775 575.497 172.724 575.574 172.635C575.652 172.547 575.695 172.428 575.695 172.304C575.695 172.18 575.652 172.061 575.574 171.972C575.497 171.884 575.392 171.833 575.282 171.83H575.282Z" fill="#CDAEF2"/>
<path d="M575.282 173.605H569.717C569.607 173.608 569.501 173.659 569.424 173.747C569.347 173.836 569.304 173.955 569.304 174.079C569.304 174.203 569.347 174.322 569.424 174.411C569.501 174.5 569.607 174.551 569.717 174.553H575.282C575.392 174.551 575.497 174.5 575.575 174.411C575.652 174.322 575.695 174.203 575.695 174.079C575.695 173.955 575.652 173.836 575.575 173.747C575.497 173.659 575.392 173.608 575.282 173.605H575.282Z" fill="#CDAEF2"/>
<path d="M539.201 201.414H527.041C526.128 201.414 525.388 202.246 525.388 203.273C525.388 204.3 526.128 205.133 527.041 205.133H539.201C540.114 205.133 540.854 204.3 540.854 203.273C540.854 202.246 540.114 201.414 539.201 201.414Z" fill="#00BBF9"/>
<path d="M547.056 208.852H519.187C518.274 208.852 517.533 209.684 517.533 210.711C517.533 211.738 518.274 212.57 519.187 212.57H547.056C547.969 212.57 548.71 211.738 548.71 210.711C548.71 209.684 547.969 208.852 547.056 208.852Z" fill="#AAE8FD"/>
<path d="M547.056 216.287H519.187C518.274 216.287 517.533 217.12 517.533 218.146C517.533 219.173 518.274 220.006 519.187 220.006H547.056C547.969 220.006 548.71 219.173 548.71 218.146C548.71 217.12 547.969 216.287 547.056 216.287Z" fill="#AAE8FD"/>
<path d="M359.298 332.148L353.692 329.133L361.392 302.791L369.665 307.239L359.298 332.148Z" fill="#FFB6B6"/>
<path d="M396.877 327.9C396.469 328.187 396.061 328.47 395.65 328.752C394.83 329.317 394.003 329.872 393.175 330.418C392.759 330.692 392.339 330.965 391.923 331.233V331.247L391.899 331.252L391.89 331.256L391.256 331.432L390.346 328.729L389.926 327.484L389.334 325.72L388.247 322.493L382.523 305.504L391.421 303.037L391.755 304.569H391.759L391.923 305.329L395.032 319.503L395.666 322.401L395.687 322.489L396.07 324.22L396.399 325.72L396.765 327.396L396.877 327.9Z" fill="#FFB6B6"/>
<path d="M449.955 268.239C449.391 269.258 448.814 270.271 448.234 271.276C447.155 273.146 446.048 274.989 444.911 276.803C444.911 276.808 444.907 276.808 444.903 276.812C444.24 277.503 443.508 278.104 442.721 278.604C442.688 278.632 442.651 278.65 442.618 278.673C442.038 279.033 441.422 279.312 440.782 279.502C440.551 279.567 440.316 279.632 440.086 279.696C439.254 279.919 438.431 280.108 437.611 280.275C436.154 280.567 434.713 280.775 433.28 280.905C433.164 280.919 433.049 280.928 432.934 280.937C427.042 281.423 421.306 280.641 415.32 279.358C412.363 278.729 409.345 277.974 406.22 277.192C405.199 276.933 404.174 276.678 403.137 276.424C403.058 276.405 402.976 276.382 402.894 276.363C401.411 275.998 399.904 275.637 398.36 275.28C396.417 274.831 394.412 274.396 392.328 273.984L392.477 277.285C392.6 279.824 393.069 282.326 393.868 284.705C394.758 287.631 395.462 289.945 393.975 294.764L393.259 297.097C393.63 298.256 393.758 299.495 393.631 300.719C393.505 301.942 393.128 303.116 392.53 304.148L392.386 304.393L398.36 321.387L398.747 322.488H395.688L391.925 322.493H385.547L376.345 301.736L375.904 300.745V300.694L376.855 260.805C376.868 260.453 376.892 260.097 376.934 259.745C377.101 258.145 377.551 256.6 378.256 255.198C378.96 253.796 379.906 252.565 381.039 251.579C382.124 250.626 383.366 249.924 384.694 249.516C386.023 249.107 387.41 249 388.775 249.2L391.925 249.658L398.36 250.593L402.894 251.255L402.984 251.269L416.353 253.213L417.313 248.815L417.49 248.741L423.118 246.422L442.585 238.4L442.634 238.381L443.915 237.854L444.067 238.131C444.112 238.215 444.158 238.298 444.199 238.381C445.464 240.932 446.495 243.622 447.275 246.408C448.585 250.96 449.664 255.592 450.507 260.282C450.544 260.485 450.577 260.671 450.606 260.837L450.618 260.888C450.63 260.967 450.638 261.018 450.643 261.032C451.028 263.459 450.79 265.959 449.955 268.239Z" fill="#2F2E41"/>
<path d="M450.776 253.538C450.714 253.242 450.636 252.941 450.554 252.65C449.9 250.441 449.139 248.274 448.273 246.16C447.301 243.752 446.136 241.174 444.748 238.383C444.077 237.031 443.355 235.625 442.583 234.165C442.196 233.434 441.793 232.689 441.376 231.929C441.36 231.895 441.342 231.861 441.323 231.828L441.203 231.605L421.942 234.503L414.77 235.582L414.342 239.6L414.239 240.595C414.235 240.595 414.235 240.595 414.239 240.6L413.95 243.313V243.317L413.568 246.9L413.535 246.896L402.891 245.345L391.923 243.748L386.031 242.891C384.665 242.691 383.278 242.799 381.95 243.207C380.622 243.616 379.379 244.317 378.294 245.271C377.162 246.257 376.216 247.488 375.511 248.89C374.807 250.292 374.357 251.837 374.189 253.437C374.152 253.761 374.127 254.094 374.115 254.423L368.557 269.231C365.23 278.088 363.112 287.458 362.273 297.025L358.197 311.676L358.778 311.736L367.416 312.639L369.697 312.88L374.72 304.635C375.293 303.695 375.836 302.728 376.342 301.737C377.176 300.119 377.918 298.443 378.562 296.719L389.427 267.648C390.267 267.81 391.099 267.964 391.923 268.111C395.731 268.805 399.387 269.372 402.891 269.81C414.284 271.24 424.149 271.351 432.931 270.139C435.398 269.801 437.782 269.356 440.083 268.805C440.927 268.606 441.76 268.392 442.583 268.162C442.776 268.111 442.965 268.06 443.155 268.005C444.857 267.511 446.421 266.546 447.705 265.197C448.989 263.848 449.951 262.158 450.504 260.283C451.165 258.11 451.259 255.77 450.776 253.538Z" fill="#2F2E41"/>
<path d="M361.088 327.846L355.023 324.578L354.072 324.064L352.553 328.258L341.947 330.883C341.422 331.012 340.948 331.327 340.594 331.781C340.24 332.234 340.024 332.803 339.978 333.405C339.932 334.006 340.058 334.608 340.338 335.123C340.618 335.638 341.038 336.039 341.535 336.267L351.898 341.021L355.188 337.693L354.381 342.16L358.284 343.951L362.562 328.643L361.088 327.846Z" fill="#2F2E41"/>
<path d="M398.359 321.387L398.747 322.488H398.359V321.387Z" fill="#2F2E41"/>
<path d="M396.248 322.723L389.893 325.199L388.895 325.586L390.441 329.768L384.547 340.024C384.255 340.53 384.115 341.129 384.147 341.731C384.179 342.334 384.382 342.909 384.726 343.373C385.07 343.836 385.536 344.164 386.057 344.309C386.579 344.453 387.127 344.406 387.623 344.175L397.963 339.355L398.217 334.387L400.439 338.2L404.334 336.385L397.793 322.123L396.248 322.723Z" fill="#2F2E41"/>
<path d="M357.677 169.557C357.979 170.217 358.405 170.795 358.926 171.249C359.448 171.704 360.051 172.025 360.695 172.189C361.339 172.353 362.006 172.356 362.651 172.199C363.296 172.041 363.902 171.727 364.427 171.277L377.79 181.251L377.815 171.88L365.122 163.845C364.392 162.904 363.38 162.296 362.278 162.137C361.176 161.978 360.061 162.279 359.143 162.983C358.226 163.687 357.569 164.745 357.299 165.957C357.029 167.169 357.164 168.449 357.677 169.557V169.557Z" fill="#FFB6B6"/>
<path d="M367.66 173.889L373.895 165.914L399.281 182.858L432.932 179.393C434.596 179.222 436.272 179.464 437.843 180.104C439.414 180.743 440.84 181.763 442.02 183.092C443.201 184.42 444.107 186.025 444.674 187.791C445.241 189.558 445.455 191.443 445.301 193.313C445.02 196.69 443.558 199.804 441.237 201.971C438.916 204.138 435.926 205.182 432.921 204.873L395.021 200.929L367.66 173.889Z" fill="#FDC260"/>
<path d="M445.766 174.013L445.707 173.93C440.973 173.405 436.205 174.435 431.982 176.896C427.758 179.356 424.26 183.142 421.911 187.793L419.055 193.449C409.818 206.146 416.53 214.902 416.932 216.205L413.726 232.827L414.444 238.39L414.803 240.042L451.405 261.544C453.489 250.288 451.474 240.695 443.882 233.367L451.227 207.671C452.856 201.99 453.21 195.943 452.257 190.071C451.304 184.198 449.074 178.682 445.766 174.013Z" fill="#FDC260"/>
<path d="M416.662 298.847H404.922C404.276 298.846 403.652 298.584 403.165 298.108C402.677 297.632 402.359 296.974 402.268 296.255C401.543 290.257 401.543 284.177 402.268 278.179C402.358 277.469 402.67 276.818 403.148 276.343C403.626 275.868 404.239 275.6 404.877 275.588C408.571 273.726 412.549 273.726 416.703 275.587C417.09 275.593 417.471 275.694 417.819 275.883C418.168 276.072 418.475 276.344 418.72 276.681C418.975 277.031 419.158 277.441 419.255 277.881C419.352 278.321 419.36 278.779 419.28 279.223C418.337 284.5 418.337 289.935 419.28 295.211C419.36 295.655 419.352 296.113 419.255 296.553C419.158 296.993 418.975 297.403 418.72 297.753C418.471 298.096 418.157 298.372 417.801 298.561C417.445 298.75 417.056 298.848 416.662 298.847Z" fill="#D2880E"/>
<path d="M415.432 282.481H405.551C405.469 282.481 405.388 282.464 405.313 282.429C405.237 282.395 405.168 282.344 405.111 282.279C405.053 282.215 405.007 282.138 404.975 282.053C404.944 281.969 404.928 281.878 404.928 281.786C404.928 281.695 404.944 281.604 404.975 281.519C405.007 281.434 405.053 281.358 405.111 281.293C405.168 281.228 405.237 281.177 405.313 281.143C405.388 281.108 405.469 281.091 405.551 281.092H415.432C415.514 281.091 415.595 281.108 415.67 281.143C415.746 281.177 415.815 281.228 415.873 281.293C415.931 281.358 415.977 281.434 416.008 281.519C416.039 281.604 416.056 281.695 416.056 281.786C416.056 281.878 416.039 281.969 416.008 282.053C415.977 282.138 415.931 282.215 415.873 282.279C415.815 282.344 415.746 282.395 415.67 282.429C415.595 282.464 415.514 282.481 415.432 282.481Z" fill="white"/>
<path d="M415.432 288.035H405.551C405.469 288.036 405.388 288.019 405.313 287.984C405.237 287.95 405.168 287.899 405.111 287.834C405.053 287.769 405.007 287.693 404.975 287.608C404.944 287.523 404.928 287.433 404.928 287.341C404.928 287.249 404.944 287.158 404.975 287.074C405.007 286.989 405.053 286.912 405.111 286.848C405.168 286.783 405.237 286.732 405.313 286.698C405.388 286.663 405.469 286.646 405.551 286.647H415.432C415.514 286.646 415.595 286.663 415.67 286.698C415.746 286.732 415.815 286.783 415.873 286.848C415.931 286.912 415.977 286.989 416.008 287.074C416.039 287.158 416.056 287.249 416.056 287.341C416.056 287.433 416.039 287.523 416.008 287.608C415.977 287.693 415.931 287.769 415.873 287.834C415.815 287.899 415.746 287.95 415.67 287.984C415.595 288.019 415.514 288.036 415.432 288.035Z" fill="white"/>
<path d="M415.433 293.59H405.551C405.47 293.591 405.389 293.573 405.313 293.539C405.237 293.504 405.169 293.453 405.111 293.389C405.053 293.324 405.007 293.247 404.975 293.163C404.944 293.078 404.928 292.987 404.928 292.896C404.928 292.804 404.944 292.713 404.975 292.628C405.007 292.544 405.053 292.467 405.111 292.402C405.169 292.338 405.237 292.287 405.313 292.252C405.389 292.218 405.47 292.2 405.551 292.201H415.433C415.514 292.2 415.595 292.218 415.671 292.252C415.747 292.287 415.815 292.338 415.873 292.402C415.931 292.467 415.977 292.544 416.009 292.628C416.04 292.713 416.056 292.804 416.056 292.896C416.056 292.987 416.04 293.078 416.009 293.163C415.977 293.247 415.931 293.324 415.873 293.389C415.815 293.453 415.747 293.504 415.671 293.539C415.595 293.573 415.514 293.591 415.433 293.59Z" fill="white"/>
<path d="M359.829 174.132H348.089C347.443 174.132 346.819 173.869 346.332 173.393C345.844 172.917 345.526 172.259 345.435 171.54C344.71 165.542 344.71 159.462 345.435 153.464C345.525 152.754 345.837 152.103 346.315 151.628C346.793 151.153 347.406 150.885 348.044 150.873C351.738 149.011 355.716 149.011 359.87 150.872C360.257 150.878 360.638 150.979 360.986 151.168C361.335 151.357 361.642 151.629 361.887 151.966C362.142 152.317 362.325 152.726 362.422 153.166C362.519 153.606 362.527 154.064 362.447 154.508C361.504 159.785 361.504 165.22 362.447 170.496C362.527 170.94 362.519 171.399 362.422 171.838C362.325 172.278 362.142 172.688 361.887 173.038C361.638 173.381 361.324 173.657 360.968 173.846C360.612 174.035 360.223 174.133 359.829 174.132Z" fill="#814EBF"/>
<path d="M358.6 157.764H348.719C348.637 157.765 348.556 157.747 348.481 157.713C348.405 157.678 348.336 157.627 348.279 157.563C348.221 157.498 348.175 157.421 348.143 157.337C348.112 157.252 348.096 157.161 348.096 157.069C348.096 156.978 348.112 156.887 348.143 156.802C348.175 156.718 348.221 156.641 348.279 156.576C348.336 156.512 348.405 156.461 348.481 156.426C348.556 156.392 348.637 156.374 348.719 156.375H358.6C358.682 156.374 358.763 156.392 358.838 156.426C358.914 156.461 358.983 156.512 359.041 156.576C359.099 156.641 359.145 156.718 359.176 156.802C359.207 156.887 359.223 156.978 359.223 157.069C359.223 157.161 359.207 157.252 359.176 157.337C359.145 157.421 359.099 157.498 359.041 157.563C358.983 157.627 358.914 157.678 358.838 157.713C358.763 157.747 358.682 157.765 358.6 157.764Z" fill="white"/>
<path d="M358.6 163.32H348.719C348.637 163.321 348.556 163.304 348.481 163.269C348.405 163.235 348.336 163.184 348.279 163.119C348.221 163.055 348.175 162.978 348.143 162.893C348.112 162.809 348.096 162.718 348.096 162.626C348.096 162.534 348.112 162.444 348.143 162.359C348.175 162.274 348.221 162.197 348.279 162.133C348.336 162.068 348.405 162.017 348.481 161.983C348.556 161.948 348.637 161.931 348.719 161.932H358.6C358.682 161.931 358.763 161.948 358.838 161.983C358.914 162.017 358.983 162.068 359.041 162.133C359.099 162.197 359.145 162.274 359.176 162.359C359.207 162.444 359.223 162.534 359.223 162.626C359.223 162.718 359.207 162.809 359.176 162.893C359.145 162.978 359.099 163.055 359.041 163.119C358.983 163.184 358.914 163.235 358.838 163.269C358.763 163.304 358.682 163.321 358.6 163.32Z" fill="white"/>
<path d="M358.6 168.875H348.718C348.637 168.876 348.556 168.859 348.48 168.824C348.404 168.79 348.336 168.739 348.278 168.674C348.22 168.61 348.174 168.533 348.142 168.448C348.111 168.363 348.095 168.272 348.095 168.181C348.095 168.089 348.111 167.998 348.142 167.914C348.174 167.829 348.22 167.752 348.278 167.687C348.336 167.623 348.404 167.572 348.48 167.537C348.556 167.503 348.637 167.485 348.718 167.486H358.6C358.681 167.485 358.762 167.503 358.838 167.537C358.914 167.572 358.982 167.623 359.04 167.687C359.098 167.752 359.144 167.829 359.176 167.914C359.207 167.998 359.223 168.089 359.223 168.181C359.223 168.272 359.207 168.363 359.176 168.448C359.144 168.533 359.098 168.61 359.04 168.674C358.982 168.739 358.914 168.79 358.838 168.824C358.762 168.859 358.681 168.876 358.6 168.875Z" fill="white"/>
<path d="M153.725 208.005H141.984C141.339 208.005 140.715 207.742 140.227 207.266C139.74 206.79 139.421 206.132 139.331 205.413C138.606 199.415 138.606 193.335 139.331 187.337C139.42 186.627 139.732 185.976 140.21 185.501C140.688 185.026 141.301 184.758 141.939 184.746C145.633 182.884 149.611 182.884 153.765 184.746C154.152 184.751 154.533 184.852 154.882 185.041C155.23 185.23 155.538 185.503 155.783 185.839C156.038 186.19 156.221 186.6 156.317 187.039C156.414 187.479 156.423 187.937 156.342 188.381C155.399 193.658 155.399 199.093 156.342 204.369C156.423 204.813 156.414 205.272 156.317 205.711C156.221 206.151 156.038 206.561 155.783 206.911C155.533 207.254 155.219 207.53 154.863 207.719C154.508 207.908 154.119 208.006 153.725 208.005Z" fill="#00BBF9"/>
<path d="M152.495 191.639H142.613C142.532 191.64 142.451 191.622 142.375 191.588C142.3 191.553 142.231 191.502 142.173 191.438C142.115 191.373 142.069 191.296 142.038 191.212C142.006 191.127 141.99 191.036 141.99 190.944C141.99 190.853 142.006 190.762 142.038 190.677C142.069 190.593 142.115 190.516 142.173 190.451C142.231 190.387 142.3 190.336 142.375 190.301C142.451 190.267 142.532 190.249 142.613 190.25H152.495C152.577 190.249 152.657 190.267 152.733 190.301C152.809 190.336 152.877 190.387 152.935 190.451C152.993 190.516 153.039 190.593 153.07 190.677C153.102 190.762 153.118 190.853 153.118 190.944C153.118 191.036 153.102 191.127 153.07 191.212C153.039 191.296 152.993 191.373 152.935 191.438C152.877 191.502 152.809 191.553 152.733 191.588C152.657 191.622 152.577 191.64 152.495 191.639Z" fill="white"/>
<path d="M152.495 197.193H142.613C142.532 197.194 142.451 197.177 142.375 197.142C142.3 197.108 142.231 197.057 142.173 196.992C142.115 196.928 142.069 196.851 142.038 196.766C142.006 196.682 141.99 196.591 141.99 196.499C141.99 196.407 142.006 196.317 142.038 196.232C142.069 196.147 142.115 196.07 142.173 196.006C142.231 195.941 142.3 195.89 142.375 195.856C142.451 195.821 142.532 195.804 142.613 195.805H152.495C152.577 195.804 152.657 195.821 152.733 195.856C152.809 195.89 152.877 195.941 152.935 196.006C152.993 196.07 153.039 196.147 153.07 196.232C153.102 196.317 153.118 196.407 153.118 196.499C153.118 196.591 153.102 196.682 153.07 196.766C153.039 196.851 152.993 196.928 152.935 196.992C152.877 197.057 152.809 197.108 152.733 197.142C152.657 197.177 152.577 197.194 152.495 197.193Z" fill="white"/>
<path d="M152.495 202.748H142.614C142.532 202.749 142.451 202.732 142.376 202.697C142.3 202.663 142.231 202.612 142.173 202.547C142.115 202.483 142.069 202.406 142.038 202.321C142.006 202.236 141.99 202.146 141.99 202.054C141.99 201.962 142.006 201.871 142.038 201.787C142.069 201.702 142.115 201.625 142.173 201.56C142.231 201.496 142.3 201.445 142.376 201.41C142.451 201.376 142.532 201.359 142.614 201.359H152.495C152.577 201.359 152.658 201.376 152.733 201.41C152.809 201.445 152.878 201.496 152.936 201.56C152.994 201.625 153.04 201.702 153.071 201.787C153.103 201.871 153.119 201.962 153.119 202.054C153.119 202.146 153.103 202.236 153.071 202.321C153.04 202.406 152.994 202.483 152.936 202.547C152.878 202.612 152.809 202.663 152.733 202.697C152.658 202.732 152.577 202.749 152.495 202.748Z" fill="white"/>
<path d="M420.103 281.974C420.671 281.596 421.158 281.084 421.531 280.471C421.904 279.859 422.153 279.163 422.26 278.431C422.368 277.699 422.331 276.949 422.153 276.235C421.975 275.521 421.66 274.859 421.23 274.296L429.292 258.707L420.97 259.234L414.59 273.957C413.797 274.832 413.318 276.004 413.242 277.25C413.166 278.496 413.5 279.73 414.179 280.718C414.859 281.707 415.837 282.38 416.929 282.611C418.021 282.843 419.15 282.616 420.103 281.974V281.974Z" fill="#FFB6B6"/>
<path d="M423.356 270.514L415.905 263.99L429.443 234.494L424.37 196.931C424.12 195.074 424.236 193.178 424.71 191.378C425.184 189.577 426.005 187.916 427.115 186.512C428.225 185.108 429.595 183.996 431.13 183.255C432.665 182.514 434.326 182.162 435.996 182.224C439.011 182.339 441.862 183.795 443.924 186.271C445.986 188.747 447.09 192.042 446.994 195.432L445.741 238.202L423.356 270.514Z" fill="#FDC260"/>
<path d="M63.2589 262.454C63.7282 261.924 64.0883 261.285 64.314 260.581C64.5396 259.877 64.6253 259.126 64.5649 258.382C64.5046 257.637 64.2997 256.916 63.9647 256.269C63.6297 255.623 63.1728 255.067 62.6261 254.641L69.8719 214.178L61.8702 217.066L56.0703 256.204C55.4943 257.284 55.2907 258.565 55.4981 259.802C55.7054 261.04 56.3094 262.149 57.1955 262.919C58.0816 263.689 59.1882 264.068 60.3057 263.982C61.4233 263.896 62.474 263.353 63.2589 262.454H63.2589Z" fill="#9E616A"/>
<path d="M73.9583 176.844L68.9936 172.631C68.9936 172.631 64.614 172.282 63.8384 181.162C63.0627 190.042 61.47 207.347 61.47 207.347L53.873 246.907L64.3893 249.502L72.5261 206.81L77.4074 194.132L73.9583 176.844Z" fill="#CDAEF2"/>
<path d="M65.7734 241.441L93.7496 240.917L96.0811 219.424H65.7734V241.441Z" fill="#9E616A"/>
<path d="M90.9516 373.703H97.41L100.482 345.695L90.9502 345.696L90.9516 373.703Z" fill="#9E616A"/>
<path d="M50.4912 374.377L56.9496 374.326L59.8474 346.295L51.4478 348.461L50.4912 374.377Z" fill="#9E616A"/>
<path d="M70.6908 200.914L69.2275 205.191L69.5199 209.469L98.1602 220.622L96.7394 201.901L93.5198 197.623L70.6908 200.914Z" fill="#FFB6B6"/>
<path d="M82.9772 162.419C88.6266 162.419 93.2064 157.27 93.2064 150.919C93.2064 144.567 88.6266 139.418 82.9772 139.418C77.3278 139.418 72.748 144.567 72.748 150.919C72.748 157.27 77.3278 162.419 82.9772 162.419Z" fill="#9E616A"/>
<path d="M89.3498 370.123L99.5593 369.438V374.355L109.266 381.892C109.745 382.264 110.106 382.799 110.296 383.418C110.486 384.038 110.495 384.709 110.322 385.334C110.148 385.96 109.802 386.506 109.332 386.895C108.863 387.283 108.296 387.492 107.713 387.492H95.5584L93.4634 382.628L92.6453 387.492H88.0625L89.3498 370.123Z" fill="#2F2E41"/>
<path d="M48.2817 370.812L58.4867 370.047L58.5173 374.965L68.2704 382.425C68.7521 382.793 69.1165 383.325 69.3104 383.943C69.5042 384.561 69.5173 385.232 69.3479 385.859C69.1784 386.485 68.8351 387.035 68.3683 387.427C67.9014 387.818 67.3353 388.032 66.7527 388.037L54.5983 388.132L52.473 383.285L51.6853 388.155L47.1025 388.191L48.2817 370.812Z" fill="#2F2E41"/>
<path d="M48.4813 352.902L53.1841 310.64L58.7794 266.08C54.6819 257.525 63.9083 230.957 63.9083 230.957L65.2107 231.027L94.6885 237.28L94.6821 237.248C100.711 255.736 102.709 264.87 102.378 284.558L101.191 355.334H101.563C102.182 355.334 102.775 355.61 103.212 356.102C103.649 356.593 103.895 357.26 103.895 357.955C103.895 358.651 103.649 359.317 103.212 359.809C102.775 360.3 102.182 360.577 101.563 360.577H89.9065C89.6 360.577 89.2964 360.51 89.0131 360.378C88.7298 360.247 88.4723 360.054 88.2554 359.81C88.0385 359.567 87.8664 359.278 87.749 358.959C87.6316 358.641 87.5711 358.3 87.5711 357.955C87.5711 357.611 87.6316 357.27 87.749 356.951C87.8664 356.633 88.0385 356.344 88.2554 356.1C88.4723 355.857 88.7298 355.664 89.0131 355.532C89.2964 355.401 89.6 355.334 89.9065 355.334H90.2071L79.5076 271.061L70.4361 306.446L60.1782 352.578C63.9083 351.529 63.3292 353.958 63.3292 355.334C63.3291 356.029 63.0835 356.696 62.6463 357.188C62.2091 357.679 61.6161 357.955 60.9978 357.955H49.3411C48.7989 357.956 48.2736 357.744 47.8556 357.356C47.4376 356.968 47.1531 356.428 47.0512 355.829C46.9494 355.23 47.0365 354.61 47.2976 354.076C47.5586 353.542 47.9773 353.127 48.4814 352.902H48.4813Z" fill="#2F2E41"/>
<path d="M61.6132 232.333L62.5458 221.848C62.6426 221.42 62.8574 221.038 63.1594 220.756C63.4614 220.474 63.835 220.307 64.2267 220.278C64.6153 215.284 66.25 193.737 66.3477 192.797L66.3515 192.758L67.0949 174.904C67.1219 174.255 67.3604 173.641 67.7649 173.178C68.1693 172.714 68.7114 172.435 69.2875 172.392L73.2139 172.104C73.2677 172.102 73.3188 172.076 73.3563 172.033C73.3937 171.989 73.4147 171.931 73.4147 171.87C73.4147 171.383 73.5001 170.9 73.666 170.45C73.8319 169.999 74.0751 169.59 74.3817 169.246C74.6883 168.901 75.0523 168.627 75.4529 168.441C75.8535 168.254 76.2829 168.158 76.7165 168.158H88.3411C89.0941 168.159 89.821 168.468 90.3855 169.028C90.95 169.588 91.3133 170.361 91.4071 171.201C91.4123 171.259 91.4366 171.312 91.4754 171.351C91.5141 171.389 91.5643 171.41 91.616 171.408H91.6174C92.9383 171.378 94.2251 171.881 95.2445 172.826C96.2638 173.77 96.9481 175.095 97.1732 176.559C98.7624 186.955 101.947 210.549 100.373 223.667C99.8245 228.233 101.006 224.616 101.214 228.437C101.234 228.806 101.19 229.176 101.083 229.526C100.976 229.876 100.809 230.199 100.591 230.476C101.037 230.659 101.401 231.031 101.605 231.514C101.808 231.996 101.834 232.55 101.676 233.053L101.881 232.996C101.821 233.263 101.715 233.515 101.568 233.736C101.422 233.956 101.239 234.143 101.029 234.284C100.818 234.425 100.585 234.519 100.343 234.559C100.101 234.599 99.8537 234.585 99.6162 234.517L69.2033 239.15C68.2045 238.867 61.3614 233.456 61.6132 232.333Z" fill="#CDAEF2"/>
<path d="M142.88 189.706C142.689 190.423 142.361 191.084 141.919 191.642C141.477 192.201 140.931 192.644 140.32 192.94C139.709 193.236 139.048 193.377 138.382 193.355C137.717 193.332 137.065 193.146 136.471 192.809L124.713 204.873L123.152 195.589L134.564 185.586C135.133 184.502 136.037 183.69 137.103 183.304C138.169 182.918 139.324 182.986 140.35 183.493C141.375 184.001 142.198 184.914 142.665 186.059C143.131 187.204 143.208 188.502 142.88 189.706H142.88Z" fill="#9E616A"/>
<path d="M101.958 180.484C101.958 180.484 97.8579 170.067 92.6799 172.138C87.5019 174.208 90.1754 184.315 90.1754 184.315L109.629 217.273C109.629 217.273 137.689 197.036 134.277 196.893C130.865 196.75 129.844 189.773 129.844 189.773L115.014 198.104L114.512 195.138L113.708 196.042L111.633 194.206L101.958 180.484Z" fill="#CDAEF2"/>
<path d="M437.327 169.041C445.215 169.041 451.609 161.852 451.609 152.984C451.609 144.116 445.215 136.928 437.327 136.928C429.44 136.928 423.046 144.116 423.046 152.984C423.046 161.852 429.44 169.041 437.327 169.041Z" fill="#FFB6B6"/>
<path d="M483.161 176.611C481.513 179.237 479.108 181.141 476.353 182C475.251 182.369 474.113 182.586 472.964 182.648C472.822 181.187 472.482 179.759 471.956 178.414C472.01 179.846 471.833 181.277 471.434 182.638C469.708 182.528 468.022 182.02 466.479 181.145C464.963 180.288 463.646 179.045 462.632 177.516C461.618 175.987 460.935 174.213 460.637 172.335C460.032 167.943 461.803 163.631 462.443 159.246C463.087 154.861 461.88 149.306 458.061 148.154C455.154 147.276 455.48 147.655 453.063 149.673C455.577 153.853 446.29 169.17 442.489 167.834C440.341 167.079 438.965 164.863 438.522 164.863C435.535 170.648 441.159 180.396 435.491 182.42L435.958 181.895C439.379 177.163 432.228 167.148 435.649 162.416C436.604 161.092 437.62 159.523 437.338 157.849C437.071 156.257 434.824 155.415 434.166 156.723C435.35 153.675 433.602 149.607 430.709 148.824C428.139 148.128 428.186 148.986 425.607 149.359C425.439 148.106 425.124 146.884 424.671 145.724C424.718 146.974 424.588 148.224 424.286 149.429C423.375 149.409 422.495 149.051 421.783 148.411C419.681 146.506 420.106 142.504 421.983 140.321C423.863 138.139 426.656 137.353 429.32 136.844C430.094 130.781 444.973 130.149 446.945 136.207C447.785 131.683 452.822 129.335 456.737 130.739C460.652 132.142 463.369 136.253 464.799 140.586C466.229 144.915 466.629 149.574 467.51 154.085C468.391 158.595 469.88 163.188 472.946 166.263C476.013 169.333 481.008 170.351 484.239 167.498C484.709 169.005 484.856 170.616 484.669 172.199C484.481 173.783 483.965 175.294 483.161 176.611Z" fill="#2F2E41"/>
<path d="M617.146 213.254L615.147 224.532C614.996 225.394 614.839 226.272 614.668 227.142C612.996 226.752 611.264 226.861 609.642 227.458C610.929 229.525 612.082 231.694 613.093 233.947C611.833 238.312 609.984 242.346 606.889 245.264C604.822 247.169 602.353 248.444 599.72 248.964C597.088 249.485 594.38 249.234 591.859 248.236L591.948 247.789C588.62 240.53 590.428 231.376 594.564 224.671C596.673 221.363 599.172 218.392 601.993 215.841C604.787 213.223 607.806 210.875 610.799 208.558C611.471 208.038 612.265 207.756 613.081 207.746C613.897 207.737 614.696 208.001 615.378 208.505C616.059 209.009 616.591 209.73 616.906 210.576C617.221 211.422 617.305 212.354 617.146 213.254Z" fill="#FDC260"/>
<path d="M592.571 275.371C591.729 268.479 590.864 261.498 591.454 254.532C591.979 248.346 593.657 242.303 597.075 237.348C598.889 234.723 601.097 232.474 603.598 230.702C604.251 230.24 604.851 231.402 604.202 231.862C599.873 234.938 596.525 239.479 594.641 244.832C592.559 250.784 592.225 257.274 592.587 263.596C592.804 267.42 593.263 271.218 593.727 275.013C593.764 275.185 593.741 275.366 593.664 275.52C593.586 275.673 593.459 275.788 593.309 275.84C593.156 275.886 592.993 275.863 592.855 275.775C592.718 275.687 592.616 275.542 592.574 275.37L592.571 275.371Z" fill="#FEEDCF"/>
<path d="M640.184 388.763L0.814896 389C0.599074 388.999 0.39231 388.902 0.239921 388.73C0.0875327 388.558 0.00195312 388.326 0.00195312 388.083C0.00195312 387.84 0.0875327 387.608 0.239921 387.436C0.39231 387.264 0.599074 387.167 0.814896 387.166L640.184 386.93C640.4 386.93 640.607 387.027 640.759 387.199C640.912 387.371 640.997 387.604 640.997 387.846C640.997 388.089 640.912 388.322 640.759 388.494C640.607 388.665 640.4 388.762 640.184 388.763Z" fill="#000C11"/>
<path d="M70.9383 143.877C69.3695 144.723 67.6134 143.45 66.2589 142.188L66.7434 142.658C64.3496 145.277 63.2304 149.044 62.6835 152.753C62.1361 156.457 62.0751 160.246 61.3858 163.924C60.6961 167.599 59.2652 171.291 56.5926 173.541C53.0121 176.556 48.0739 176.362 43.68 175.438C43.6214 175.425 43.5669 175.415 43.5083 175.401C44.6906 171.563 45.1712 167.496 44.9213 163.445C43.7435 167.505 41.7385 171.2 39.0659 174.235C36.1527 173.334 33.3091 172.169 30.5631 170.752C28.7863 169.832 26.8731 168.575 26.38 166.446C25.8856 164.333 27.0336 162.117 28.5687 160.783C30.1038 159.449 31.9878 158.753 33.7366 157.803C35.4825 156.857 37.2102 155.508 37.9093 153.472C39.5217 148.788 34.9285 143.414 36.7186 138.81C37.6013 136.546 39.7634 135.314 41.7956 134.365C44.898 132.919 48.0837 131.711 51.331 130.749C54.1816 129.903 57.1582 129.246 60.0621 129.8C62.9661 130.355 65.8112 132.34 66.8563 135.441C68.6003 136.104 70.4517 136.851 71.5709 138.501C72.6896 140.148 72.5994 142.982 70.9383 143.877Z" fill="#2F2E41"/>
<path d="M84.8971 138.448C80.409 134.464 76.7802 135.144 73.9808 137.619C73.5102 137.031 71.5075 138.65 70.8294 138.417L68.3768 143.594C67.1147 146.098 66.5969 148.654 66.801 150.092C64.4794 157.412 69.9846 162.355 76.4951 164.965C79.0928 166.013 81.9273 166.06 84.551 165.096L84.631 163.849L85.124 164.871C85.124 164.871 91.0758 178.649 92.4822 179.268C91.6288 176.779 89.378 164.95 88.7498 162.484C87.8883 159.129 88.4768 153.799 88.9831 150.531C89.2987 148.517 89.3152 146.457 89.032 144.436L89.0194 144.348L90.4119 147.508L93.5364 145.3C92.3423 141.389 92.3184 136.711 84.8971 138.448Z" fill="#2F2E41"/>
</g>
<defs>
<clipPath id="clip0_1153_3313">
<rect width="641" height="389" fill="white"/>
</clipPath>
</defs>
</svg>
