<svg width="157" height="156" viewBox="0 0 157 156" fill="none" xmlns="http://www.w3.org/2000/svg">
<g id="Group Discussion">
<rect x="0.5" width="156" height="156" rx="78" fill="#FDB239"/>
<g id="Layer 2">
<path id="Vector" d="M95.5 47.1875H61.5C60.091 47.1875 58.7398 47.7472 57.7435 48.7435C56.7472 49.7398 56.1875 51.091 56.1875 52.5V70.5625C56.1875 71.9715 56.7472 73.3227 57.7435 74.319C58.7398 75.3153 60.091 75.875 61.5 75.875H95.5C96.909 75.875 98.2602 75.3153 99.2565 74.319C100.253 73.3227 100.812 71.9715 100.812 70.5625V52.5C100.812 51.091 100.253 49.7398 99.2565 48.7435C98.2602 47.7472 96.909 47.1875 95.5 47.1875ZM64.6875 73.75V70.5625C64.6875 69.7171 65.0233 68.9064 65.6211 68.3086C66.2189 67.7108 67.0296 67.375 67.875 67.375H74.25C75.0954 67.375 75.9061 67.7108 76.5039 68.3086C77.1017 68.9064 77.4375 69.7171 77.4375 70.5625V73.75H64.6875ZM98.6875 70.5625C98.6875 71.4079 98.3517 72.2186 97.7539 72.8164C97.1561 73.4142 96.3454 73.75 95.5 73.75H79.5625V70.5625C79.5625 69.1535 79.0028 67.8023 78.0065 66.806C77.0102 65.8097 75.659 65.25 74.25 65.25H67.875C66.466 65.25 65.1148 65.8097 64.1185 66.806C63.1222 67.8023 62.5625 69.1535 62.5625 70.5625V73.75H61.5C60.6546 73.75 59.8439 73.4142 59.2461 72.8164C58.6483 72.2186 58.3125 71.4079 58.3125 70.5625V52.5C58.3125 51.6546 58.6483 50.8439 59.2461 50.2461C59.8439 49.6483 60.6546 49.3125 61.5 49.3125H95.5C96.3454 49.3125 97.1561 49.6483 97.7539 50.2461C98.3517 50.8439 98.6875 51.6546 98.6875 52.5V70.5625ZM61.5 96.0625H55.125C53.716 96.0625 52.3648 96.6222 51.3685 97.6185C50.3722 98.6148 49.8125 99.966 49.8125 101.375V107.75C49.8125 108.032 49.9244 108.302 50.1237 108.501C50.323 108.701 50.5932 108.812 50.875 108.812H65.75C66.0318 108.812 66.302 108.701 66.5013 108.501C66.7006 108.302 66.8125 108.032 66.8125 107.75V101.375C66.8125 99.966 66.2528 98.6148 65.2565 97.6185C64.2602 96.6222 62.909 96.0625 61.5 96.0625ZM64.6875 106.688H51.9375V101.375C51.9375 100.53 52.2733 99.7189 52.8711 99.1211C53.4689 98.5233 54.2796 98.1875 55.125 98.1875H61.5C62.3454 98.1875 63.1561 98.5233 63.7539 99.1211C64.3517 99.7189 64.6875 100.53 64.6875 101.375V106.688ZM53 88.625C53 89.6757 53.3116 90.7028 53.8953 91.5765C54.4791 92.4501 55.3088 93.131 56.2795 93.5331C57.2502 93.9352 58.3184 94.0404 59.3489 93.8354C60.3794 93.6304 61.326 93.1245 62.069 92.3815C62.812 91.6385 63.3179 90.6919 63.5229 89.6614C63.7279 88.6309 63.6227 87.5627 63.2206 86.592C62.8185 85.6213 62.1376 84.7916 61.264 84.2078C60.3903 83.6241 59.3632 83.3125 58.3125 83.3125C56.9035 83.3125 55.5523 83.8722 54.556 84.8685C53.5597 85.8648 53 87.216 53 88.625ZM58.3125 85.4375C58.9429 85.4375 59.5592 85.6244 60.0834 85.9747C60.6076 86.3249 61.0161 86.8228 61.2574 87.4052C61.4986 87.9876 61.5617 88.6285 61.4388 89.2468C61.3158 89.8652 61.0122 90.4331 60.5664 90.8789C60.1206 91.3247 59.5527 91.6283 58.9344 91.7513C58.316 91.8742 57.6751 91.8111 57.0927 91.5699C56.5103 91.3286 56.0124 90.9201 55.6622 90.3959C55.3119 89.8717 55.125 89.2554 55.125 88.625C55.125 87.7796 55.4608 86.9689 56.0586 86.3711C56.6564 85.7733 57.4671 85.4375 58.3125 85.4375ZM101.875 96.0625H95.5C94.091 96.0625 92.7398 96.6222 91.7435 97.6185C90.7472 98.6148 90.1875 99.966 90.1875 101.375V107.75C90.1875 108.032 90.2994 108.302 90.4987 108.501C90.698 108.701 90.9682 108.812 91.25 108.812H106.125C106.407 108.812 106.677 108.701 106.876 108.501C107.076 108.302 107.188 108.032 107.188 107.75V101.375C107.188 99.966 106.628 98.6148 105.632 97.6185C104.635 96.6222 103.284 96.0625 101.875 96.0625ZM105.062 106.688H92.3125V101.375C92.3125 100.53 92.6483 99.7189 93.2461 99.1211C93.8439 98.5233 94.6546 98.1875 95.5 98.1875H101.875C102.72 98.1875 103.531 98.5233 104.129 99.1211C104.727 99.7189 105.062 100.53 105.062 101.375V106.688ZM93.375 88.625C93.375 89.6757 93.6866 90.7028 94.2703 91.5765C94.8541 92.4501 95.6838 93.131 96.6545 93.5331C97.6252 93.9352 98.6934 94.0404 99.7239 93.8354C100.754 93.6304 101.701 93.1245 102.444 92.3815C103.187 91.6385 103.693 90.6919 103.898 89.6614C104.103 88.6309 103.998 87.5627 103.596 86.592C103.194 85.6213 102.513 84.7916 101.639 84.2078C100.765 83.6241 99.7382 83.3125 98.6875 83.3125C97.2785 83.3125 95.9273 83.8722 94.931 84.8685C93.9347 85.8648 93.375 87.216 93.375 88.625ZM101.875 88.625C101.875 89.2554 101.688 89.8717 101.338 90.3959C100.988 90.9201 100.49 91.3286 99.9073 91.5699C99.3249 91.8111 98.684 91.8742 98.0657 91.7513C97.4473 91.6283 96.8794 91.3247 96.4336 90.8789C95.9878 90.4331 95.6842 89.8652 95.5612 89.2468C95.4383 88.6285 95.5014 87.9876 95.7426 87.4052C95.9839 86.8228 96.3924 86.3249 96.9166 85.9747C97.4408 85.6244 98.0571 85.4375 98.6875 85.4375C99.5329 85.4375 100.344 85.7733 100.941 86.3711C101.539 86.9689 101.875 87.7796 101.875 88.625ZM81.6875 96.0625H75.3125C73.9035 96.0625 72.5523 96.6222 71.556 97.6185C70.5597 98.6148 70 99.966 70 101.375V107.75C70 108.032 70.1119 108.302 70.3112 108.501C70.5105 108.701 70.7807 108.812 71.0625 108.812H85.9375C86.2193 108.812 86.4895 108.701 86.6888 108.501C86.8881 108.302 87 108.032 87 107.75V101.375C87 99.966 86.4403 98.6148 85.444 97.6185C84.4477 96.6222 83.0965 96.0625 81.6875 96.0625ZM84.875 106.688H72.125V101.375C72.125 100.53 72.4608 99.7189 73.0586 99.1211C73.6564 98.5233 74.4671 98.1875 75.3125 98.1875H81.6875C82.5329 98.1875 83.3436 98.5233 83.9414 99.1211C84.5392 99.7189 84.875 100.53 84.875 101.375V106.688ZM73.1875 88.625C73.1875 89.6757 73.4991 90.7028 74.0828 91.5765C74.6666 92.4501 75.4963 93.131 76.467 93.5331C77.4377 93.9352 78.5059 94.0404 79.5364 93.8354C80.5669 93.6304 81.5135 93.1245 82.2565 92.3815C82.9995 91.6385 83.5054 90.6919 83.7104 89.6614C83.9154 88.6309 83.8102 87.5627 83.4081 86.592C83.006 85.6213 82.3251 84.7916 81.4515 84.2078C80.5778 83.6241 79.5507 83.3125 78.5 83.3125C77.091 83.3125 75.7398 83.8722 74.7435 84.8685C73.7472 85.8648 73.1875 87.216 73.1875 88.625ZM81.6875 88.625C81.6875 89.2554 81.5006 89.8717 81.1503 90.3959C80.8001 90.9201 80.3022 91.3286 79.7198 91.5699C79.1374 91.8111 78.4965 91.8742 77.8781 91.7513C77.2598 91.6283 76.6919 91.3247 76.2461 90.8789C75.8003 90.4331 75.4967 89.8652 75.3737 89.2468C75.2508 88.6285 75.3139 87.9876 75.5551 87.4052C75.7964 86.8228 76.2049 86.3249 76.7291 85.9747C77.2533 85.6244 77.8696 85.4375 78.5 85.4375C79.3454 85.4375 80.1561 85.7733 80.7539 86.3711C81.3517 86.9689 81.6875 87.7796 81.6875 88.625Z" fill="#FFFDFD" stroke="#FFFDFD" stroke-width="2"/>
<path id="Vector_2" d="M71.0625 52.5C70.0118 52.5 68.9847 52.8116 68.111 53.3953C67.2374 53.9791 66.5565 54.8088 66.1544 55.7795C65.7523 56.7502 65.6471 57.8184 65.8521 58.8489C66.0571 59.8794 66.563 60.826 67.306 61.569C68.049 62.312 68.9956 62.8179 70.0261 63.0229C71.0566 63.2279 72.1248 63.1227 73.0955 62.7206C74.0662 62.3185 74.8959 61.6376 75.4797 60.764C76.0634 59.8903 76.375 58.8632 76.375 57.8125C76.375 56.4035 75.8153 55.0523 74.819 54.056C73.8227 53.0597 72.4715 52.5 71.0625 52.5ZM71.0625 61C70.4321 61 69.8158 60.8131 69.2916 60.4628C68.7674 60.1126 68.3589 59.6147 68.1176 59.0323C67.8764 58.4499 67.8133 57.809 67.9362 57.1906C68.0592 56.5723 68.3628 56.0044 68.8086 55.5586C69.2544 55.1128 69.8223 54.8092 70.4407 54.6862C71.059 54.5633 71.6999 54.6264 72.2823 54.8676C72.8647 55.1089 73.3626 55.5174 73.7128 56.0416C74.0631 56.5658 74.25 57.1821 74.25 57.8125C74.25 58.6579 73.9142 59.4686 73.3164 60.0664C72.7186 60.6642 71.9079 61 71.0625 61ZM81.6875 55.6875H94.4375V57.8125H81.6875V55.6875ZM81.6875 64.1875H94.4375V66.3125H81.6875V64.1875ZM81.6875 59.9375H90.1875V62.0625H81.6875V59.9375Z" fill="#FFFDFD" stroke="#FFFDFD" stroke-width="2"/>
</g>
</g>
</svg>
