<svg width="741" height="611" viewBox="0 0 741 611" fill="none" xmlns="http://www.w3.org/2000/svg">
<g clip-path="url(#clip0_1047_3097)">
<path d="M740.84 591.806C741.066 615.59 591.686 617.769 588.841 591.807C588.614 568.025 737.995 565.846 740.84 591.806Z" fill="#FEE0B0"/>
<path d="M623.966 509.24L612.864 515.315L619.929 538.605L631.03 539.617L637.086 526.454L623.966 509.24Z" fill="#9F616A"/>
<path d="M658.28 555.818V566.956L675.437 565.944L675.198 556.77L658.28 555.818Z" fill="#9F616A"/>
<path d="M619.929 375.582L625.984 451.525L645.16 562.907L675.437 558.857L665.345 470.764L669.382 389.759L619.929 375.582Z" fill="#2F2E41"/>
<path d="M700.668 318.879L628.003 319.891L619.929 375.583L669.382 398.872L681.493 443.425L619.929 509.242L644.151 539.619C644.151 539.619 678.465 493.041 703.696 466.714C728.927 440.387 716.816 360.394 716.816 360.394L700.668 318.879Z" fill="#2F2E41"/>
<path d="M657.271 175.094C669.533 175.094 679.474 165.12 679.474 152.818C679.474 140.515 669.533 130.541 657.271 130.541C645.008 130.541 635.067 140.515 635.067 152.818C635.067 165.12 645.008 175.094 657.271 175.094Z" fill="#9F616A"/>
<path d="M649.197 168.005V190.281L664.335 214.583C664.335 214.583 687.548 197.369 682.502 193.319C677.456 189.269 676.446 157.879 676.446 157.879L649.197 168.005Z" fill="#9F616A"/>
<path d="M649.197 186.231L634.058 204.457L640.114 331.028L687.548 330.015L695.622 219.646L685.53 191.294L678.607 181.844L666.354 200.407L649.197 186.231Z" fill="#CDAEF2"/>
<path d="M624.975 252.048L613.873 294.576L624.975 337.104L606.809 361.405L590.661 284.45C590.661 284.45 602.772 221.671 603.781 214.583C604.79 207.495 606.809 206.482 606.809 206.482L614.883 207.495L624.975 252.048Z" fill="#2F2E41"/>
<path d="M705.714 268.249L712.779 281.413L714.798 303.69L710.761 329.004L724.89 352.293L739.019 288.501L723.881 206.482H717.825L705.714 268.249Z" fill="#2F2E41"/>
<path d="M619.929 508.229C619.929 508.229 605.799 512.279 600.753 513.291C595.707 514.304 603.781 533.543 603.781 533.543C603.781 533.543 608.827 559.869 609.836 564.932C610.845 569.995 617.91 587.209 626.993 589.234C636.076 591.259 630.021 553.794 630.021 553.794C630.021 553.794 634.058 541.643 634.058 537.593C634.058 533.543 628.003 535.568 628.003 535.568C611.855 533.543 619.929 508.229 619.929 508.229Z" fill="#2F2E41"/>
<path d="M653.234 586.196C654.243 592.271 652.225 592.271 668.373 594.297C684.521 596.322 680.484 583.158 680.484 583.158C679.809 576.953 678.455 570.84 676.447 564.932C673.419 556.831 657.271 566.957 657.271 566.957C657.271 566.957 652.225 580.12 653.234 586.196Z" fill="#2F2E41"/>
<path d="M676.473 158.587L676.999 167.592C676.999 167.592 683.511 152.817 684.52 137.628C685.529 122.44 668.372 119.402 658.28 118.39C648.187 117.377 631.03 124.465 631.03 132.566C631.03 140.666 649.197 138.641 656.261 136.616C663.326 134.591 666.354 151.804 666.354 151.804L670.391 152.817L676.473 158.587Z" fill="#2F2E41"/>
<path d="M643.24 193.401L649.197 186.23L666.354 200.406L649.197 212.557L643.24 193.401Z" fill="#BC93EE"/>
<path d="M685.53 191.295L678.465 182.182L666.354 200.407L681.493 211.546L685.53 191.295Z" fill="#BC93EE"/>
<path d="M621.947 266.225L625.984 304.702L617.91 327.991L612.864 350.268C612.864 350.268 612.864 371.532 633.049 372.544C653.234 373.557 670.391 308.753 670.391 308.753C670.391 308.753 673.419 322.929 675.437 331.029C677.456 339.13 711.77 371.532 711.77 371.532C711.77 371.532 719.844 370.519 726.909 354.318C733.973 338.117 712.779 322.929 712.779 322.929L706.724 301.665L708.742 275.338L722.872 206.483L680.988 184.713L685.53 242.936L670.391 288.501L647.683 187.751L640.114 193.32L607.818 206.483L621.947 266.225Z" fill="#2F2E41"/>
<path d="M223.084 419.376C221.089 419.361 219.07 419.347 217.088 419.285L217.149 417.28C219.111 417.34 221.118 417.368 223.085 417.37C225.061 417.37 227.075 417.337 229.072 417.273L229.137 419.277C227.117 419.343 225.082 419.376 223.084 419.376ZM205.065 418.529C201.084 418.151 197.063 417.638 193.115 417.006L193.43 415.025C197.336 415.65 201.315 416.158 205.254 416.532L205.065 418.529ZM241.158 418.507L240.967 416.511C244.905 416.132 248.883 415.62 252.789 414.989L253.107 416.97C249.159 417.608 245.138 418.125 241.158 418.507H241.158ZM181.285 414.717C177.387 413.83 173.464 412.803 169.627 411.665L170.194 409.741C173.99 410.867 177.871 411.882 181.728 412.759L181.285 414.717ZM264.934 414.667L264.489 412.711C268.355 411.826 272.234 410.806 276.019 409.679L276.588 411.603C272.763 412.742 268.841 413.773 264.934 414.667H264.934ZM158.189 407.868C154.427 406.482 150.663 404.955 147.002 403.33L147.812 401.495C151.433 403.102 155.156 404.613 158.878 405.985L158.189 407.868ZM288.022 407.789L287.33 405.906C291.029 404.54 294.739 403.03 298.358 401.419L299.169 403.253C295.511 404.882 291.76 406.408 288.021 407.789H288.022ZM136.134 398.078C132.594 396.224 129.059 394.225 125.628 392.139L126.665 390.422C130.06 392.488 133.557 394.465 137.06 396.299L136.134 398.078ZM310.007 398.004L309.081 396.226C312.575 394.393 316.065 392.417 319.45 390.352L320.489 392.067C317.066 394.154 313.54 396.151 310.007 398.004H310.007ZM115.525 385.537C112.247 383.241 108.997 380.806 105.866 378.302L107.113 376.732C110.211 379.211 113.426 381.62 116.67 383.891L115.525 385.537ZM330.575 385.465L329.429 383.821C332.672 381.547 335.883 379.139 338.973 376.663L340.221 378.231C337.098 380.733 333.853 383.167 330.575 385.465ZM96.688 370.463C93.7241 367.764 90.8101 364.935 88.0283 362.057L89.4639 360.66C92.2163 363.507 95.0996 366.306 98.0327 368.977L96.688 370.463ZM349.39 370.393L348.044 368.908C350.97 366.242 353.851 363.442 356.607 360.588L358.043 361.983C355.258 364.868 352.346 367.698 349.39 370.393ZM79.9209 353.118C77.3257 350.065 74.7954 346.889 72.3994 343.68L74.0005 342.476C76.3711 345.653 78.8745 348.795 81.4424 351.815L79.9209 353.118ZM366.148 353.035L364.627 351.733C367.194 348.711 369.698 345.565 372.068 342.384L373.67 343.586C371.274 346.8 368.744 349.98 366.148 353.035V353.035ZM65.4946 333.78C63.3066 330.418 61.2012 326.947 59.2363 323.462L60.9775 322.474C62.9209 325.922 65.0044 329.357 67.1694 332.683L65.4946 333.78ZM380.577 333.671L378.901 332.576C381.067 329.243 383.15 325.803 385.095 322.347L386.837 323.333C384.872 326.826 382.766 330.305 380.577 333.671ZM53.6514 312.765C51.9111 309.153 50.2671 305.442 48.7651 301.732L50.6177 300.978C52.104 304.646 53.7305 308.318 55.4521 311.891L53.6514 312.765ZM392.424 312.608L390.623 311.736C392.344 308.158 393.971 304.476 395.459 300.79L397.313 301.542C395.809 305.268 394.164 308.991 392.424 312.608ZM44.5903 290.393C43.3252 286.582 42.1694 282.683 41.1548 278.805L43.0894 278.296C44.0928 282.132 45.2364 285.989 46.4878 289.758L44.5903 290.393ZM401.479 290.181L399.581 289.55C400.825 285.784 401.965 281.926 402.966 278.082L404.901 278.59C403.889 282.476 402.737 286.375 401.479 290.181ZM38.4717 267.023C37.7075 263.086 37.061 259.072 36.5498 255.091L38.5332 254.834C39.0391 258.773 39.6787 262.744 40.4346 266.639L38.4717 267.023ZM407.57 266.802L405.607 266.422C406.357 262.528 406.993 258.555 407.494 254.614L409.479 254.869C408.972 258.852 408.329 262.867 407.57 266.802V266.802ZM35.3936 243.061C35.1372 239.062 35.0049 234.997 35.0005 230.979L37.0005 230.977C37.0049 234.952 37.1357 238.974 37.3896 242.932L35.3936 243.061ZM410.621 242.837L408.625 242.709C408.874 238.756 409 234.734 409 230.757L408.999 230.317H410.999L411 230.75C411 234.776 410.872 238.84 410.621 242.837ZM37.3618 219.023L35.3657 218.9C35.6137 214.893 35.9932 210.844 36.4937 206.866L38.478 207.117C37.9824 211.054 37.6069 215.059 37.3618 219.023ZM408.598 218.365C408.338 214.399 407.948 210.394 407.439 206.464L409.422 206.205C409.937 210.178 410.331 214.224 410.594 218.234L408.598 218.365ZM40.3511 195.309L38.3872 194.93C39.1416 190.991 40.0352 187.025 41.042 183.14L42.9776 183.644C41.9815 187.488 41.0977 191.412 40.3511 195.309ZM405.522 194.662C404.761 190.763 403.862 186.842 402.854 183.007L404.788 182.495C405.808 186.372 406.715 190.335 407.485 194.276L405.522 194.662ZM46.3496 172.174L44.4502 171.545C45.7056 167.732 47.103 163.908 48.6045 160.177L50.459 160.929C48.9736 164.619 47.5913 168.402 46.3496 172.174ZM399.444 171.549C398.188 167.782 396.795 164.01 395.302 160.335L397.153 159.578C398.663 163.292 400.072 167.105 401.341 170.912L399.444 171.549ZM55.2832 149.975L53.4805 149.105C55.2153 145.486 57.0913 141.876 59.0557 138.374L60.7988 139.359C58.855 142.823 56.9995 146.395 55.2832 149.975ZM390.455 149.428C388.732 145.865 386.87 142.306 384.917 138.851L386.657 137.861C388.631 141.353 390.514 144.95 392.254 148.553L390.455 149.428ZM66.9805 129.122L65.3037 128.027C67.4849 124.664 69.8047 121.325 72.1982 118.105L73.8018 119.304C71.4336 122.491 69.1382 125.793 66.9805 129.122ZM378.713 128.649C376.549 125.333 374.247 122.041 371.87 118.863L373.47 117.659C375.872 120.871 378.199 124.199 380.387 127.55L378.713 128.649ZM81.2324 109.947L79.709 108.648C82.2993 105.59 85.0225 102.577 87.8027 99.6906L89.2412 101.085C86.4902 103.94 83.7959 106.922 81.2324 109.947ZM364.417 109.533C361.846 106.517 359.143 103.544 356.385 100.697L357.818 99.2987C360.606 102.176 363.338 105.181 365.937 108.229L364.417 109.533ZM97.7944 92.7533L96.4478 91.2699C99.4072 88.5652 102.489 85.9242 105.607 83.4209L106.857 84.9875C103.772 87.4644 100.723 90.0775 97.7944 92.7533ZM347.806 92.3893C344.873 89.7257 341.815 87.1205 338.716 84.6466L339.962 83.076C343.094 85.5769 346.185 88.2095 349.147 90.902L347.806 92.3893ZM116.393 77.818L115.246 76.1749C118.518 73.8739 121.909 71.6493 125.323 69.5624L126.364 71.276C122.986 73.3409 119.631 75.542 116.393 77.818ZM329.151 77.4986C325.896 75.225 322.53 73.0313 319.148 70.9782L320.184 69.2616C323.602 71.3363 327.004 73.5535 330.294 75.8516L329.151 77.4986ZM136.727 65.3895L135.798 63.6122C139.334 61.7516 142.979 59.9811 146.629 58.3503L147.443 60.1834C143.831 61.7966 140.226 63.5485 136.727 65.3895ZM308.747 65.1142C305.235 63.28 301.616 61.5365 297.989 59.9316L298.797 58.0955C302.462 59.7175 306.121 61.4802 309.671 63.3339L308.747 65.1142ZM158.466 55.6823L157.771 53.8001C161.521 52.4084 165.367 51.1209 169.201 49.9741L169.772 51.8974C165.979 53.0315 162.175 54.3052 158.466 55.6823H158.466ZM286.917 55.4545C283.2 54.0902 279.392 52.8302 275.598 51.7103L276.162 49.785C279.997 50.9171 283.847 52.1909 287.605 53.5704L286.917 55.4545ZM181.298 48.8528L180.852 46.8971C184.743 46.0026 188.721 45.2232 192.675 44.579L192.996 46.5601C189.083 47.1969 185.147 47.968 181.298 48.8528ZM264.061 48.7068C260.204 47.8348 256.266 47.0774 252.354 46.4553L252.668 44.4732C256.621 45.1022 260.602 45.8679 264.5 46.7492L264.061 48.7068ZM204.816 45.0243L204.623 43.0275C208.593 42.641 212.638 42.3769 216.643 42.2432L216.709 44.2488C212.746 44.3811 208.745 44.6422 204.816 45.0243ZM240.529 44.9621C236.594 44.5932 232.591 44.3463 228.633 44.2282L228.692 42.2227C232.693 42.3422 236.738 42.5915 240.715 42.9643L240.529 44.9621Z" fill="#D0CDE1"/>
<path d="M216 94.3096C241.957 94.3096 263 73.1977 263 47.1548C263 21.1119 241.957 0 216 0C190.043 0 169 21.1119 169 47.1548C169 73.1977 190.043 94.3096 216 94.3096Z" fill="#00BBF9"/>
<path d="M398 222.731C423.957 222.731 445 201.62 445 175.577C445 149.534 423.957 128.422 398 128.422C372.043 128.422 351 149.534 351 175.577C351 201.62 372.043 222.731 398 222.731Z" fill="#00BBF9"/>
<path d="M341 419.376C366.957 419.376 388 398.264 388 372.221C388 346.178 366.957 325.066 341 325.066C315.043 325.066 294 346.178 294 372.221C294 398.264 315.043 419.376 341 419.376Z" fill="#00BBF9"/>
<path d="M115 427.403C140.957 427.403 162 406.291 162 380.249C162 354.206 140.957 333.094 115 333.094C89.0426 333.094 68 354.206 68 380.249C68 406.291 89.0426 427.403 115 427.403Z" fill="#00BBF9"/>
<path d="M47 222.731C72.9574 222.731 94 201.62 94 175.577C94 149.534 72.9574 128.422 47 128.422C21.0426 128.422 0 149.534 0 175.577C0 201.62 21.0426 222.731 47 222.731Z" fill="#00BBF9"/>
<path d="M236.141 43.3949H219.747C218.256 43.3949 216.827 42.8008 215.773 41.7432C214.719 40.6856 214.126 39.2513 214.126 37.7557V21.3078C214.126 21.2461 214.114 21.185 214.091 21.128C214.067 21.071 214.033 21.0192 213.989 20.9755C213.946 20.9319 213.894 20.8973 213.837 20.8737C213.78 20.85 213.72 20.8379 213.658 20.8379H202.885C200.897 20.8379 198.991 21.6301 197.586 23.0401C196.18 24.4502 195.391 26.3627 195.391 28.3569V65.9519C195.391 67.946 196.18 69.8585 197.586 71.2686C198.991 72.6787 200.897 73.4709 202.885 73.4709H229.115C231.103 73.4709 233.009 72.6787 234.414 71.2686C235.82 69.8585 236.609 67.946 236.609 65.9519V43.8648C236.609 43.8031 236.597 43.742 236.574 43.685C236.55 43.628 236.516 43.5762 236.472 43.5325C236.429 43.4889 236.377 43.4543 236.32 43.4307C236.263 43.4071 236.203 43.3949 236.141 43.3949ZM225.368 62.1924H206.632C206.135 62.1924 205.659 61.9944 205.307 61.6418C204.956 61.2893 204.759 60.8112 204.759 60.3126C204.759 59.8141 204.956 59.336 205.307 58.9835C205.659 58.6309 206.135 58.4329 206.632 58.4329H225.368C225.865 58.4329 226.341 58.6309 226.693 58.9835C227.044 59.336 227.241 59.8141 227.241 60.3126C227.241 60.8112 227.044 61.2893 226.693 61.6418C226.341 61.9944 225.865 62.1924 225.368 62.1924ZM225.368 52.7936H206.632C206.135 52.7936 205.659 52.5956 205.307 52.2431C204.956 51.8906 204.759 51.4124 204.759 50.9139C204.759 50.4154 204.956 49.9372 205.307 49.5847C205.659 49.2322 206.135 49.0341 206.632 49.0341H225.368C225.865 49.0341 226.341 49.2322 226.693 49.5847C227.044 49.9372 227.241 50.4154 227.241 50.9139C227.241 51.4124 227.044 51.8906 226.693 52.2431C226.341 52.5956 225.865 52.7936 225.368 52.7936Z" fill="white"/>
<path d="M235.113 39.2353L218.273 22.3398C218.24 22.3071 218.198 22.2849 218.153 22.2759C218.108 22.267 218.061 22.2716 218.018 22.2893C217.976 22.307 217.939 22.337 217.913 22.3754C217.888 22.4139 217.874 22.4591 217.874 22.5055V37.7561C217.874 38.2547 218.071 38.7328 218.422 39.0853C218.774 39.4378 219.25 39.6359 219.747 39.6359H234.948C234.994 39.6357 235.039 39.6218 235.077 39.596C235.116 39.5701 235.146 39.5335 235.163 39.4907C235.181 39.4479 235.185 39.4008 235.176 39.3553C235.168 39.3099 235.145 39.2681 235.113 39.2352L235.113 39.2353Z" fill="white"/>
<path d="M347.798 362.934C347.222 362.934 346.663 363.135 346.218 363.502C345.773 363.869 345.468 364.379 345.356 364.946C345.244 365.513 345.331 366.102 345.603 366.612C345.875 367.121 346.315 367.521 346.847 367.742C347.38 367.963 347.972 367.992 348.524 367.824C349.075 367.656 349.551 367.301 349.871 366.82C350.191 366.339 350.335 365.762 350.278 365.187C350.221 364.611 349.968 364.073 349.56 363.665C349.329 363.433 349.054 363.249 348.752 363.123C348.449 362.998 348.125 362.933 347.798 362.934Z" fill="white"/>
<path d="M361.665 352.939V352.93C361.586 352.583 361.412 352.265 361.163 352.012C360.913 351.759 360.598 351.581 360.253 351.498C357.472 350.817 353.097 351.543 348.249 353.49C343.587 355.309 339.321 358.019 335.69 361.469C334.698 362.459 333.776 363.518 332.932 364.637C331.067 364.508 329.197 364.809 327.466 365.518C322.077 367.897 320.538 373.986 320.129 376.486C320.069 376.841 320.093 377.205 320.197 377.55C320.3 377.895 320.482 378.211 320.728 378.474C320.973 378.736 321.276 378.939 321.612 379.065C321.948 379.191 322.309 379.238 322.666 379.201H322.678L328.681 378.544C328.688 378.621 328.697 378.691 328.703 378.756C328.78 379.489 329.107 380.174 329.627 380.696L332.557 383.637C333.075 384.16 333.758 384.487 334.489 384.564L334.69 384.586L334.037 390.601V390.613C334.005 390.919 334.034 391.228 334.122 391.522C334.209 391.817 334.354 392.091 334.547 392.33C334.74 392.568 334.978 392.767 335.248 392.913C335.517 393.059 335.813 393.15 336.117 393.182C336.189 393.19 336.261 393.194 336.333 393.194C336.463 393.195 336.593 393.184 336.721 393.163C339.226 392.758 345.292 391.233 347.657 385.798C348.358 384.067 348.66 382.199 348.539 380.335C349.66 379.49 350.719 378.565 351.708 377.568C355.145 373.959 357.849 369.713 359.669 365.067C361.6 360.258 362.327 355.836 361.665 352.939ZM351.674 369.313C350.907 370.083 349.93 370.607 348.867 370.82C347.803 371.033 346.7 370.925 345.697 370.509C344.695 370.093 343.838 369.388 343.235 368.483C342.632 367.579 342.31 366.515 342.309 365.427C342.309 364.338 342.63 363.274 343.232 362.369C343.834 361.464 344.69 360.758 345.692 360.341C346.694 359.924 347.797 359.815 348.861 360.026C349.925 360.238 350.902 360.762 351.67 361.531L351.674 361.535C352.702 362.551 353.286 363.935 353.297 365.383C353.307 366.83 352.745 368.223 351.732 369.254L351.674 369.313Z" fill="white"/>
<path d="M332.221 384.435C331.86 384.391 331.494 384.479 331.194 384.685C330.598 385.095 329.999 385.499 329.394 385.893C329.131 386.063 328.82 386.139 328.509 386.109C328.198 386.08 327.906 385.946 327.68 385.73C327.454 385.514 327.307 385.228 327.262 384.918C327.218 384.608 327.278 384.292 327.434 384.021L328.568 382.054C328.73 381.817 328.82 381.537 328.828 381.249C328.836 380.961 328.76 380.676 328.611 380.43C328.462 380.184 328.245 379.986 327.986 379.861C327.727 379.735 327.438 379.687 327.153 379.722C325.895 379.882 324.725 380.457 323.828 381.357C323.487 381.701 322.448 382.744 321.889 386.718C321.73 387.86 321.629 389.009 321.588 390.161C321.583 390.358 321.617 390.553 321.687 390.737C321.758 390.921 321.863 391.089 321.998 391.231C322.134 391.374 322.295 391.488 322.474 391.568C322.654 391.648 322.847 391.692 323.043 391.697C323.056 391.697 323.069 391.697 323.082 391.697H323.119C324.268 391.657 325.414 391.557 326.553 391.398C330.517 390.836 331.556 389.793 331.898 389.45C332.799 388.55 333.371 387.371 333.521 386.104C333.569 385.71 333.459 385.313 333.215 385C332.971 384.687 332.614 384.484 332.221 384.435Z" fill="white"/>
<path d="M54.4622 172.769C54.0932 172.769 53.7326 172.659 53.4258 172.453C53.119 172.248 52.8799 171.955 52.7387 171.613C52.5975 171.271 52.5606 170.895 52.6325 170.532C52.7045 170.169 52.8822 169.835 53.1431 169.574L57.4206 165.282L53.1431 160.99C52.7932 160.639 52.5967 160.163 52.5967 159.667C52.5967 159.17 52.7932 158.694 53.1431 158.343C53.4929 157.992 53.9674 157.795 54.4622 157.795C54.957 157.795 55.4315 157.992 55.7814 158.343L61.3781 163.958C61.5514 164.132 61.6888 164.338 61.7826 164.566C61.8764 164.793 61.9246 165.036 61.9246 165.282C61.9246 165.528 61.8764 165.771 61.7826 165.998C61.6888 166.225 61.5514 166.432 61.3781 166.605L55.7814 172.221C55.6083 172.395 55.4027 172.533 55.1763 172.627C54.9499 172.721 54.7073 172.769 54.4622 172.769Z" fill="white"/>
<path d="M24.6132 178.384C24.3682 178.384 24.1256 178.336 23.8992 178.242C23.6729 178.148 23.4672 178.01 23.294 177.836C23.1207 177.662 22.9833 177.456 22.8896 177.229C22.7958 177.002 22.7476 176.758 22.7476 176.512V174.641C22.7622 171.668 23.9454 168.82 26.0403 166.718C28.1351 164.615 30.9723 163.426 33.9356 163.41H58.1938C58.6886 163.41 59.1631 163.607 59.513 163.958C59.8629 164.309 60.0594 164.785 60.0594 165.282C60.0594 165.778 59.8629 166.254 59.513 166.605C59.1631 166.956 58.6886 167.154 58.1938 167.154H33.9411C31.9646 167.165 30.0725 167.959 28.6754 169.361C27.2783 170.764 26.489 172.663 26.4787 174.646V176.512C26.4788 176.758 26.4305 177.001 26.3367 177.229C26.243 177.456 26.1056 177.662 25.9323 177.836C25.7591 178.01 25.5535 178.148 25.3271 178.242C25.1008 178.336 24.8582 178.384 24.6132 178.384Z" fill="white"/>
<path d="M39.5376 193.357C39.2926 193.358 39.0499 193.309 38.8235 193.215C38.5971 193.121 38.3915 192.983 38.2184 192.809L32.6217 187.194C32.4484 187.02 32.311 186.814 32.2172 186.587C32.1235 186.36 32.0752 186.116 32.0752 185.87C32.0752 185.625 32.1235 185.381 32.2172 185.154C32.311 184.927 32.4484 184.721 32.6217 184.547L38.2184 178.932C38.5684 178.581 39.0428 178.385 39.5372 178.385C40.0317 178.385 40.5059 178.582 40.8555 178.933C41.2052 179.284 41.4017 179.759 41.4019 180.256C41.4021 180.752 41.206 181.228 40.8567 181.579L36.5792 185.87L40.8567 190.162C41.1176 190.424 41.2953 190.757 41.3673 191.121C41.4393 191.484 41.4023 191.86 41.2611 192.202C41.1199 192.544 40.8808 192.836 40.574 193.042C40.2673 193.248 39.9066 193.357 39.5376 193.357Z" fill="white"/>
<path d="M35.8065 187.743C35.3117 187.743 34.8372 187.546 34.4873 187.195C34.1375 186.844 33.9409 186.368 33.9409 185.872C33.9409 185.375 34.1375 184.899 34.4873 184.548C34.8372 184.197 35.3117 184 35.8065 184H60.0591C62.0356 183.988 63.9277 183.195 65.3248 181.792C66.7219 180.389 67.5112 178.49 67.5215 176.507V174.641C67.5215 174.145 67.718 173.669 68.0679 173.318C68.4178 172.967 68.8923 172.77 69.3871 172.77C69.8819 172.77 70.3564 172.967 70.7063 173.318C71.0561 173.669 71.2527 174.145 71.2527 174.641V176.513C71.2381 179.486 70.0548 182.333 67.96 184.436C65.8651 186.539 63.0279 187.727 60.0647 187.743L35.8065 187.743Z" fill="white"/>
<path d="M115 406.876C112.375 406.876 109.75 406.676 107.15 406.276C104.175 405.826 102.025 403.301 102 400.301V385.551C102 381.451 105.325 378.126 109.425 378.126H120.525C122.55 378.126 124.2 376.476 124.2 374.451V359.726C124.2 358.576 123.375 357.626 122.225 357.451C117.4 356.701 112.525 356.701 107.7 357.451C106.575 357.626 105.725 358.601 105.725 359.751V368.926C105.725 369.951 104.875 370.801 103.85 370.801C102.825 370.801 101.975 369.951 101.975 368.926V359.751C102 356.751 104.15 354.226 107.125 353.776C112.325 352.976 117.6 352.976 122.8 353.776C125.775 354.226 127.925 356.751 127.95 359.751V374.501C127.95 378.601 124.625 381.926 120.525 381.926H109.425C107.4 381.926 105.75 383.576 105.75 385.601V400.326C105.75 401.476 106.575 402.426 107.725 402.601C112.55 403.351 117.425 403.351 122.25 402.601C123.375 402.426 124.225 401.451 124.225 400.301V391.126C124.225 390.101 125.075 389.251 126.1 389.251C127.125 389.251 127.975 390.101 127.975 391.126V400.301C127.95 403.301 125.8 405.826 122.825 406.276C120.25 406.676 117.625 406.876 115 406.876Z" fill="#FFFDFD"/>
<path d="M115 392.975C113.975 392.975 113.125 392.125 113.125 391.1C113.125 390.075 113.975 389.225 115 389.225H135.3C136.45 389.225 137.4 388.4 137.575 387.25C138.325 382.425 138.325 377.55 137.575 372.725C137.4 371.575 136.45 370.75 135.3 370.75H126.125C125.1 370.75 124.25 369.9 124.25 368.875C124.25 367.85 125.1 367 126.125 367H135.3C138.3 367.025 140.825 369.175 141.275 372.15C142.075 377.35 142.075 382.625 141.275 387.825C140.825 390.8 138.3 392.95 135.3 392.975H115Z" fill="#FFFDFD"/>
<path d="M103.9 392.975H94.7249C91.7249 392.95 89.1999 390.8 88.7499 387.825C87.9499 382.625 87.9499 377.35 88.7499 372.15C89.1999 369.175 91.7249 367.025 94.7249 367H115C116.025 367 116.875 367.85 116.875 368.875C116.875 369.9 116.025 370.75 115 370.75H94.6999C93.5499 370.75 92.5999 371.575 92.4249 372.725C91.6749 377.55 91.6749 382.425 92.4249 387.25C92.5999 388.4 93.5499 389.225 94.6999 389.225H103.875C104.9 389.225 105.75 390.075 105.75 391.1C105.75 392.125 104.925 392.975 103.9 392.975Z" fill="#FFFDFD"/>
<path d="M110.825 363.951C109.8 363.951 108.8 362.976 108.8 361.926C108.8 360.876 109.775 359.926 110.825 359.926C111.3 359.926 111.875 360.151 112.225 360.476C112.6 360.826 112.85 361.426 112.85 361.926C112.85 362.976 111.875 363.951 110.825 363.951Z" fill="#FFFDFD"/>
<path d="M119.175 400.075C118.15 400.075 117.15 399.1 117.15 398.05C117.15 397 118.125 396.025 119.175 396.025C119.65 396.025 120.225 396.25 120.575 396.575C120.95 396.925 121.2 397.525 121.2 398.025C121.175 399.1 120.2 400.075 119.175 400.075Z" fill="#FFFDFD"/>
<path d="M397 202.526C396.275 202.526 395.55 202.351 394.875 201.976L391.175 200.201C390.25 199.751 389.85 198.626 390.3 197.701C390.75 196.776 391.85 196.376 392.8 196.826L396.575 198.651C396.85 198.801 397.1 198.801 397.275 198.701L417.275 187.601C417.475 187.501 417.6 187.276 417.6 187.051V165.001C417.6 164.776 417.475 164.576 417.275 164.451L397.275 153.351C397.075 153.251 396.85 153.251 396.675 153.351L376.675 164.451C376.475 164.551 376.35 164.776 376.35 165.001V187.051C376.35 187.276 376.475 187.476 376.675 187.601L382.95 191.076C383.925 191.626 385.075 191.601 386.05 191.026C387.025 190.451 387.6 189.451 387.6 188.326L387.625 168.501C387.625 167.476 388.475 166.626 389.5 166.626C390.525 166.626 391.375 167.476 391.375 168.501L391.35 188.326C391.35 190.776 390.075 193.001 387.95 194.251C385.825 195.501 383.275 195.526 381.125 194.326L374.85 190.851C373.45 190.076 372.6 188.601 372.6 187.026V164.976C372.6 163.401 373.45 161.926 374.85 161.151L394.85 150.051C396.175 149.301 397.775 149.301 399.1 150.051L419.1 161.151C420.5 161.926 421.35 163.401 421.35 164.976V187.026C421.35 188.601 420.5 190.076 419.1 190.851L399.1 201.951C398.45 202.326 397.725 202.526 397 202.526Z" fill="#FFFDFD"/>
<path d="M405.125 187.875H400.75C397.3 187.875 394.5 185.075 394.5 181.625C394.5 180.6 395.35 179.75 396.375 179.75C397.4 179.75 398.25 180.6 398.25 181.625C398.25 183 399.375 184.125 400.75 184.125H405.125C406.5 184.125 407.625 183 407.625 181.625C407.625 180.25 406.5 179.125 405.125 179.125H400.75C397.3 179.125 394.5 176.325 394.5 172.875C394.5 169.425 397.3 166.625 400.75 166.625H405.125C408.575 166.625 411.375 169.425 411.375 172.875C411.375 173.9 410.525 174.75 409.5 174.75C408.475 174.75 407.625 173.9 407.625 172.875C407.625 171.5 406.5 170.375 405.125 170.375H400.75C399.375 170.375 398.25 171.5 398.25 172.875C398.25 174.25 399.375 175.375 400.75 175.375H405.125C408.575 175.375 411.375 178.175 411.375 181.625C411.375 185.075 408.575 187.875 405.125 187.875Z" fill="#FFFDFD"/>
</g>
<defs>
<clipPath id="clip0_1047_3097">
<rect width="740.84" height="610.47" fill="white"/>
</clipPath>
</defs>
</svg>
