<svg width="45" height="44" viewBox="0 0 45 44" fill="none" xmlns="http://www.w3.org/2000/svg">
<path d="M42.7849 22C42.7849 20.1053 45.3678 17.8759 44.9004 16.1202C44.4142 14.3045 41.0514 13.6761 40.1326 12.0846C39.2138 10.493 40.3252 7.24999 39.0149 5.9395C37.7045 4.62902 34.487 5.75951 32.8704 4.82481C31.2537 3.8901 30.6601 0.542848 28.8382 0.0565488C27.0827 -0.410803 24.863 2.17227 22.959 2.17227C21.055 2.17227 18.8353 -0.410803 17.0797 0.0565488C15.2642 0.542848 14.6358 3.90589 13.0444 4.82481C11.4531 5.74372 8.2103 4.63218 6.89994 5.94266C5.58958 7.25314 6.71997 10.4709 5.78535 12.0877C4.85073 13.7045 1.50378 14.2982 1.01752 16.1202C0.540741 17.8759 3.13305 20.1053 3.13305 22C3.13305 23.8947 0.550213 26.1241 1.01752 27.8798C1.50378 29.6955 4.86651 30.3239 5.78535 31.9154C6.70418 33.507 5.59274 36.75 6.9031 38.0605C8.21346 39.371 11.431 38.2405 13.0476 39.1752C14.6642 40.1099 15.2578 43.4572 17.0797 43.9435C18.8353 44.4108 21.055 41.8277 22.959 41.8277C24.863 41.8277 27.0827 44.4108 28.8382 43.9435C30.6538 43.4572 31.2821 40.0941 32.8735 39.1752C34.4649 38.2563 37.7077 39.3678 39.018 38.0573C40.3284 36.7469 39.198 33.5291 40.1326 31.9123C41.0672 30.2955 44.4142 29.7018 44.9004 27.8798C45.3772 26.1241 42.7849 23.8947 42.7849 22Z" fill="#92E3A9"/>
<path d="M22.6845 29.9458L14.1182 20.8766C13.9214 20.6672 13.8159 20.3883 13.8247 20.101C13.8336 19.8138 13.9562 19.5419 14.1656 19.3451C14.3749 19.1483 14.6539 19.0427 14.9411 19.0516C15.2283 19.0605 15.5002 19.1831 15.697 19.3925L22.4224 26.5164L30.9161 14.2011C30.9933 14.0762 31.0951 13.9683 31.2152 13.884C31.3354 13.7997 31.4714 13.7407 31.6151 13.7105C31.7588 13.6804 31.907 13.6798 32.051 13.7088C32.1949 13.7377 32.3314 13.7957 32.4522 13.879C32.573 13.9624 32.6757 14.0694 32.7539 14.1936C32.8321 14.3179 32.8842 14.4567 32.9071 14.6017C32.93 14.7467 32.9231 14.8949 32.887 15.0372C32.8509 15.1795 32.7862 15.3129 32.6969 15.4294L22.6845 29.9458Z" fill="white"/>
</svg>
