<svg width="72" height="72" viewBox="0 0 72 72" fill="none" xmlns="http://www.w3.org/2000/svg">
<path d="M35.9998 67.8305C35.1298 67.8305 34.2598 67.6206 33.4498 67.1706L29.0097 65.0405C27.8997 64.5005 27.4198 63.1505 27.9598 62.0405C28.4998 60.9305 29.8198 60.4505 30.9598 60.9905L35.4898 63.1806C35.8198 63.3606 36.1197 63.3605 36.3297 63.2405L60.3297 49.9206C60.5697 49.8006 60.7197 49.5306 60.7197 49.2606V22.8006C60.7197 22.5306 60.5697 22.2906 60.3297 22.1406L36.3297 8.82057C36.0897 8.70057 35.8197 8.70057 35.6097 8.82057L11.6097 22.1406C11.3697 22.2606 11.2197 22.5306 11.2197 22.8006V49.2606C11.2197 49.5306 11.3697 49.7706 11.6097 49.9206L19.1398 54.0906C20.3098 54.7506 21.6897 54.7206 22.8597 54.0306C24.0297 53.3406 24.7197 52.1405 24.7197 50.7905L24.7498 27.0006C24.7498 25.7706 25.7698 24.7506 26.9998 24.7506C28.2298 24.7506 29.2498 25.7706 29.2498 27.0006L29.2197 50.7905C29.2197 53.7305 27.6898 56.4005 25.1398 57.9005C22.5898 59.4005 19.5298 59.4305 16.9498 57.9905L9.4198 53.8206C7.7398 52.8906 6.71973 51.1206 6.71973 49.2306V22.7705C6.71973 20.8806 7.7398 19.1106 9.4198 18.1806L33.4198 4.86055C35.0098 3.96055 36.9298 3.96055 38.5198 4.86055L62.5198 18.1806C64.1998 19.1106 65.2197 20.8806 65.2197 22.7705V49.2306C65.2197 51.1206 64.1998 52.8906 62.5198 53.8206L38.5198 67.1406C37.7398 67.5906 36.8698 67.8305 35.9998 67.8305Z" fill="#FFFDFD"/>
<path d="M45.75 50.25H40.5C36.36 50.25 33 46.89 33 42.75C33 41.52 34.02 40.5 35.25 40.5C36.48 40.5 37.5 41.52 37.5 42.75C37.5 44.4 38.85 45.75 40.5 45.75H45.75C47.4 45.75 48.75 44.4 48.75 42.75C48.75 41.1 47.4 39.75 45.75 39.75H40.5C36.36 39.75 33 36.39 33 32.25C33 28.11 36.36 24.75 40.5 24.75H45.75C49.89 24.75 53.25 28.11 53.25 32.25C53.25 33.48 52.23 34.5 51 34.5C49.77 34.5 48.75 33.48 48.75 32.25C48.75 30.6 47.4 29.25 45.75 29.25H40.5C38.85 29.25 37.5 30.6 37.5 32.25C37.5 33.9 38.85 35.25 40.5 35.25H45.75C49.89 35.25 53.25 38.61 53.25 42.75C53.25 46.89 49.89 50.25 45.75 50.25Z" fill="#FFFDFD"/>
</svg>
