<svg width="72" height="72" viewBox="0 0 72 72" fill="none" xmlns="http://www.w3.org/2000/svg">
<path d="M36.0001 68.2505C32.8501 68.2505 29.7 68.0105 26.58 67.5305C23.01 66.9905 20.4301 63.9605 20.4001 60.3605V42.6605C20.4001 37.7405 24.3901 33.7505 29.3101 33.7505H42.6301C45.0601 33.7505 47.0401 31.7705 47.0401 29.3405V11.6706C47.0401 10.2906 46.0501 9.15055 44.6701 8.94055C38.8801 8.04055 33.0301 8.04055 27.2401 8.94055C25.8901 9.15055 24.8701 10.3205 24.8701 11.7005V22.7105C24.8701 23.9405 23.8501 24.9605 22.6201 24.9605C21.3901 24.9605 20.3701 23.9405 20.3701 22.7105V11.7005C20.4001 8.1005 22.9801 5.07055 26.5501 4.53055C32.7901 3.57055 39.1201 3.57055 45.3601 4.53055C48.9301 5.07055 51.5101 8.1005 51.5401 11.7005V29.4005C51.5401 34.3205 47.5501 38.3105 42.6301 38.3105H29.3101C26.8801 38.3105 24.9001 40.2905 24.9001 42.7205V60.3905C24.9001 61.7705 25.8901 62.9105 27.2701 63.1205C33.0601 64.0205 38.9101 64.0205 44.7001 63.1205C46.0501 62.9105 47.0701 61.7405 47.0701 60.3605V49.3506C47.0701 48.1206 48.0901 47.1006 49.3201 47.1006C50.5501 47.1006 51.5701 48.1206 51.5701 49.3506V60.3605C51.5401 63.9605 48.9601 66.9905 45.3901 67.5305C42.3001 68.0105 39.1501 68.2505 36.0001 68.2505Z" fill="#FFFDFD"/>
<path d="M36 51.5704C34.77 51.5704 33.75 50.5504 33.75 49.3204C33.75 48.0904 34.77 47.0704 36 47.0704H60.36C61.74 47.0704 62.88 46.0804 63.09 44.7004C63.99 38.9104 63.99 33.0604 63.09 27.2704C62.88 25.8904 61.74 24.9004 60.36 24.9004H49.35C48.12 24.9004 47.1 23.8804 47.1 22.6504C47.1 21.4204 48.12 20.4004 49.35 20.4004H60.36C63.96 20.4304 66.99 23.0104 67.53 26.5804C68.49 32.8204 68.49 39.1504 67.53 45.3904C66.99 48.9604 63.96 51.5404 60.36 51.5704H36Z" fill="#FFFDFD"/>
<path d="M22.6803 51.5704H11.6703C8.07032 51.5404 5.04027 48.9604 4.50027 45.3904C3.54027 39.1504 3.54027 32.8204 4.50027 26.5804C5.04027 23.0104 8.07032 20.4304 11.6703 20.4004H36.0003C37.2303 20.4004 38.2503 21.4204 38.2503 22.6504C38.2503 23.8804 37.2303 24.9004 36.0003 24.9004H11.6403C10.2603 24.9004 9.12028 25.8904 8.91028 27.2704C8.01028 33.0604 8.01028 38.9104 8.91028 44.7004C9.12028 46.0804 10.2603 47.0704 11.6403 47.0704H22.6502C23.8802 47.0704 24.9002 48.0904 24.9002 49.3204C24.9002 50.5504 23.9103 51.5704 22.6803 51.5704Z" fill="#FFFDFD"/>
<path d="M30.9901 16.7401C29.7601 16.7401 28.5601 15.5701 28.5601 14.3101C28.5601 13.0501 29.7301 11.9102 30.9901 11.9102C31.5601 11.9102 32.2501 12.1802 32.6701 12.5702C33.1201 12.9902 33.4201 13.7101 33.4201 14.3101C33.4201 15.5701 32.2501 16.7401 30.9901 16.7401Z" fill="#FFFDFD"/>
<path d="M41.0102 60.0905C39.7802 60.0905 38.5801 58.9205 38.5801 57.6605C38.5801 56.4005 39.7502 55.2305 41.0102 55.2305C41.5802 55.2305 42.2702 55.5005 42.6902 55.8905C43.1402 56.3105 43.4402 57.0304 43.4402 57.6304C43.4102 58.9204 42.2402 60.0905 41.0102 60.0905Z" fill="#FFFDFD"/>
</svg>
