<svg width="198" height="156" viewBox="0 0 198 156" fill="none" xmlns="http://www.w3.org/2000/svg">
<path d="M147.831 118.457C149.148 118.942 152.309 118.882 152.309 118.882C152.309 118.882 151.629 117.099 151.567 117.001C150.869 115.752 148.665 113.686 146.869 113.893C146.572 113.935 146.289 114.03 146.038 114.172C145.787 114.314 145.573 114.499 145.411 114.716C145.248 114.933 145.141 115.177 145.096 115.432C145.051 115.687 145.069 115.947 145.148 116.196C145.447 117.249 146.724 118.043 147.831 118.457Z" fill="#263238"/>
<path d="M148.928 126.346C150.276 126.511 153.112 125.808 153.318 125.752C153.784 127.142 154.359 128.505 155.039 129.83C155.43 130.605 155.852 131.372 156.286 132.139C156.027 131.816 155.79 131.526 155.755 131.489C154.697 130.443 151.931 128.949 150.267 129.555C149.993 129.662 149.749 129.818 149.55 130.011C149.351 130.205 149.202 130.433 149.112 130.679C149.023 130.925 148.995 131.185 149.03 131.441C149.066 131.697 149.164 131.944 149.318 132.166C149.933 133.125 151.408 133.599 152.603 133.75C153.797 133.9 156.247 133.339 156.888 133.185L157.397 134.066C158.218 135.465 159.044 136.861 159.808 138.253C160.076 138.742 160.317 139.231 160.563 139.724C160.335 139.434 160.124 139.193 160.124 139.159C159.066 138.11 156.304 136.62 154.636 137.226C154.362 137.333 154.119 137.488 153.92 137.682C153.721 137.875 153.573 138.102 153.483 138.348C153.394 138.594 153.366 138.853 153.401 139.109C153.436 139.365 153.534 139.611 153.687 139.833C154.302 140.796 155.777 141.27 156.971 141.417C158.166 141.563 160.379 141.063 161.143 140.882C161.38 141.39 161.612 141.898 161.814 142.387C161.942 142.733 162.091 143.057 162.196 143.41C162.302 143.764 162.425 144.103 162.534 144.441C162.719 145.103 162.916 145.788 163.079 146.439C163.193 146.89 163.298 147.323 163.399 147.759C163.14 147.266 162.605 146.318 162.548 146.254C161.691 145.081 159.219 143.245 157.468 143.621C157.178 143.692 156.91 143.813 156.679 143.979C156.449 144.144 156.261 144.349 156.129 144.58C155.997 144.811 155.923 145.064 155.913 145.321C155.902 145.579 155.954 145.835 156.067 146.074C156.506 147.105 157.88 147.763 159.035 148.068C160.304 148.399 163.123 148.094 163.474 148.068C163.641 148.786 163.799 149.49 163.913 150.156C163.988 150.506 164.049 150.837 164.115 151.171H165.235C165.151 150.795 165.063 150.396 164.971 149.986C164.8 149.253 164.607 148.482 164.396 147.673C165.244 147.383 166.071 147.05 166.872 146.676C167.799 147.537 170.174 148.557 170.482 148.67C170.157 149.351 169.836 150.013 169.52 150.63L169.239 151.171H170.42L170.508 150.987C170.842 150.299 171.18 149.554 171.518 148.79C171.856 148.85 174.644 149.336 175.944 149.084C177.12 148.854 178.547 148.282 179.074 147.285C179.208 147.055 179.283 146.802 179.295 146.545C179.308 146.287 179.256 146.031 179.145 145.791C179.033 145.552 178.864 145.336 178.649 145.156C178.433 144.977 178.175 144.838 177.893 144.75C176.176 144.253 173.555 145.923 172.598 147.041C172.541 147.105 172.018 147.876 171.698 148.369C171.834 148.056 171.97 147.752 172.106 147.428C172.383 146.789 172.633 146.142 172.905 145.449C173.024 145.111 173.147 144.768 173.265 144.422C173.384 144.076 173.48 143.708 173.59 143.346C173.823 142.508 174.029 141.646 174.178 140.777C174.833 140.98 177.169 141.676 178.38 141.605C179.592 141.533 181.094 141.153 181.792 140.235C181.965 140.024 182.084 139.784 182.142 139.531C182.199 139.278 182.194 139.017 182.126 138.766C182.058 138.514 181.929 138.278 181.747 138.073C181.566 137.867 181.336 137.696 181.072 137.572C179.465 136.861 176.576 138.174 175.43 139.148C175.36 139.208 174.631 139.991 174.24 140.427C174.337 139.9 174.433 139.381 174.512 138.847C174.732 137.308 174.903 135.743 175.079 134.186C175.136 133.708 175.193 133.234 175.254 132.756C175.487 132.832 178.24 133.712 179.597 133.629C180.804 133.558 182.314 133.178 183.013 132.26C183.185 132.049 183.304 131.809 183.361 131.555C183.418 131.302 183.412 131.042 183.344 130.791C183.277 130.54 183.148 130.303 182.967 130.098C182.785 129.892 182.556 129.721 182.292 129.596C180.681 128.885 177.796 130.198 176.65 131.176C176.563 131.248 175.513 132.373 175.263 132.681C175.395 131.635 175.535 130.589 175.702 129.566C175.955 128.181 176.314 126.811 176.778 125.466C176.883 125.499 179.759 126.429 181.146 126.346C182.35 126.271 183.86 125.894 184.558 124.977C184.731 124.765 184.85 124.526 184.908 124.272C184.965 124.019 184.96 123.758 184.892 123.507C184.824 123.256 184.695 123.02 184.514 122.814C184.332 122.608 184.102 122.437 183.838 122.313C182.231 121.602 179.346 122.911 178.196 123.889C178.108 123.968 176.98 125.176 176.795 125.394C176.822 125.315 176.839 125.232 176.866 125.157C177.361 123.818 177.996 122.52 178.762 121.278C179.171 120.586 179.61 119.947 180.053 119.334C180.567 119.552 182.934 120.537 184.189 120.579C185.445 120.62 186.947 120.387 187.759 119.54C187.958 119.347 188.106 119.119 188.196 118.873C188.285 118.627 188.313 118.367 188.278 118.111C188.243 117.855 188.145 117.608 187.992 117.386C187.838 117.165 187.631 116.973 187.386 116.824C185.875 115.967 182.841 116.997 181.577 117.863C181.507 117.908 180.87 118.453 180.413 118.856C180.615 118.581 180.822 118.291 181.024 118.032C181.783 117.054 182.547 116.2 183.219 115.447C183.61 115.022 183.974 114.646 184.321 114.292C184.958 114.292 187.517 114.217 188.641 113.766C189.765 113.314 190.982 112.505 191.249 111.433C191.322 111.183 191.332 110.922 191.279 110.669C191.225 110.415 191.11 110.174 190.941 109.961C190.771 109.747 190.551 109.567 190.295 109.432C190.039 109.297 189.752 109.21 189.454 109.176C187.653 109.007 185.502 111.121 184.857 112.389C184.8 112.498 184.141 114.296 184.176 114.296H184.211C183.873 114.627 183.513 114.985 183.127 115.383C182.42 116.136 181.634 116.967 180.848 117.934C179.99 118.97 179.201 120.046 178.486 121.158C177.682 122.403 177.007 123.706 176.47 125.052C176.47 125.052 176.47 125.082 176.47 125.101C176.47 124.645 176.47 123.374 176.444 123.276C176.233 121.903 174.89 119.352 173.107 119.07C172.81 119.03 172.507 119.044 172.216 119.112C171.926 119.179 171.656 119.298 171.423 119.461C171.19 119.624 171 119.827 170.865 120.057C170.73 120.288 170.653 120.54 170.64 120.797C170.534 121.888 171.456 122.979 172.356 123.671C173.375 124.446 176.194 125.199 176.418 125.259C175.912 126.64 175.515 128.049 175.228 129.476C175.052 130.304 174.912 131.146 174.789 131.989C174.789 131.613 174.789 131.237 174.762 131.195C174.556 129.822 173.213 127.271 171.43 126.989C171.133 126.949 170.829 126.963 170.539 127.031C170.248 127.098 169.977 127.217 169.744 127.38C169.511 127.543 169.321 127.746 169.185 127.976C169.05 128.206 168.972 128.458 168.958 128.716C168.853 129.807 169.779 130.902 170.679 131.59C171.579 132.279 173.981 132.975 174.631 133.148L174.486 134.118C174.271 135.676 174.047 137.233 173.801 138.753C173.713 139.287 173.599 139.81 173.489 140.337C173.489 139.987 173.489 139.694 173.467 139.648C173.256 138.275 171.913 135.725 170.135 135.442C169.837 135.403 169.534 135.417 169.243 135.484C168.953 135.551 168.682 135.67 168.449 135.833C168.216 135.996 168.025 136.199 167.89 136.43C167.754 136.66 167.677 136.912 167.663 137.169C167.557 138.26 168.479 139.355 169.384 140.043C170.288 140.732 172.457 141.356 173.208 141.567C173.072 142.101 172.945 142.639 172.769 143.151C172.655 143.501 172.571 143.843 172.431 144.185C172.29 144.528 172.172 144.87 172.045 145.205C171.772 145.848 171.5 146.51 171.215 147.127C171.022 147.56 170.828 147.97 170.635 148.38C170.732 147.85 170.899 146.804 170.899 146.717C170.88 145.498 170.496 144.304 169.783 143.249C169.789 143.113 169.778 142.977 169.753 142.842C169.716 142.585 169.616 142.337 169.46 142.116C169.303 141.894 169.093 141.703 168.844 141.556C168.595 141.409 168.313 141.308 168.015 141.262C167.718 141.215 167.412 141.223 167.118 141.285C165.362 141.684 164.256 144.313 164.172 145.698C164.172 145.78 164.229 146.672 164.282 147.233C164.194 146.905 164.111 146.589 164.018 146.254C163.834 145.589 163.628 144.934 163.408 144.227C163.29 143.888 163.167 143.546 163.048 143.2C162.93 142.854 162.763 142.504 162.609 142.15C162.262 141.341 161.867 140.532 161.445 139.727C162.126 139.588 164.519 139.065 165.485 138.429C166.451 137.794 167.456 136.77 167.448 135.676C167.456 135.418 167.401 135.162 167.286 134.923C167.171 134.685 166.999 134.47 166.78 134.293C166.562 134.115 166.303 133.979 166.019 133.893C165.735 133.808 165.434 133.774 165.134 133.795C163.333 133.964 161.77 136.428 161.445 137.779C161.424 137.861 161.318 138.858 161.27 139.408C161.015 138.922 160.761 138.441 160.48 137.959C159.676 136.571 158.811 135.187 157.955 133.802C157.696 133.381 157.437 132.956 157.182 132.531C157.424 132.482 160.286 131.914 161.366 131.203C162.324 130.574 163.342 129.544 163.329 128.449C163.337 128.191 163.282 127.935 163.167 127.697C163.053 127.458 162.88 127.243 162.662 127.066C162.444 126.889 162.184 126.752 161.901 126.667C161.617 126.581 161.315 126.547 161.015 126.568C159.215 126.737 157.652 129.201 157.327 130.552C157.301 130.653 157.151 132.087 157.134 132.452C156.567 131.519 156.01 130.571 155.509 129.638C154.826 128.368 154.24 127.063 153.753 125.729C153.867 125.706 156.862 125.123 157.964 124.397C158.921 123.765 159.939 122.734 159.931 121.64C159.94 121.382 159.885 121.125 159.77 120.887C159.656 120.648 159.484 120.433 159.265 120.255C159.047 120.078 158.787 119.942 158.503 119.856C158.219 119.771 157.917 119.737 157.617 119.759C155.812 119.924 154.254 122.392 153.924 123.739C153.898 123.844 153.74 125.387 153.731 125.669C153.705 125.594 153.665 125.515 153.639 125.436C153.192 124.092 152.885 122.717 152.721 121.327C152.62 120.575 152.576 119.823 152.55 119.097C153.121 119.036 155.724 118.739 156.8 118.179C157.876 117.618 158.995 116.715 159.11 115.624C159.15 115.369 159.128 115.109 159.044 114.862C158.96 114.615 158.816 114.385 158.622 114.189C158.428 113.992 158.188 113.833 157.917 113.721C157.646 113.609 157.351 113.548 157.05 113.54C155.237 113.54 153.371 115.831 152.87 117.148C152.844 117.219 152.664 117.975 152.541 118.528C152.541 118.201 152.519 117.863 152.519 117.55C152.519 116.38 152.611 115.293 152.695 114.353C152.752 113.811 152.813 113.326 152.875 112.87C153.397 112.562 155.509 111.294 156.137 110.387C156.765 109.481 157.279 108.228 156.809 107.212C156.709 106.969 156.551 106.747 156.344 106.56C156.137 106.373 155.886 106.225 155.608 106.127C155.33 106.029 155.031 105.982 154.73 105.989C154.429 105.997 154.134 106.058 153.863 106.17C152.251 106.885 151.83 109.658 152.107 111.027C152.133 111.144 152.739 112.957 152.765 112.942L152.796 112.923C152.726 113.359 152.655 113.83 152.594 114.345C152.484 115.293 152.37 116.369 152.335 117.547C152.284 118.816 152.32 120.087 152.44 121.354C152.569 122.771 152.845 124.177 153.266 125.552V125.601C152.98 125.225 152.142 124.168 152.067 124.096C151.009 123.05 148.247 121.557 146.579 122.163C146.305 122.27 146.06 122.425 145.861 122.619C145.663 122.813 145.513 123.04 145.424 123.287C145.334 123.533 145.307 123.793 145.342 124.049C145.378 124.305 145.476 124.552 145.63 124.773C146.258 125.721 147.733 126.195 148.928 126.346Z" fill="#263238"/>
<path d="M179.983 119.07C180.009 119.07 180.558 117.261 180.58 117.14C180.8 115.771 180.29 113.002 178.661 112.329C178.387 112.223 178.089 112.168 177.788 112.168C177.487 112.168 177.19 112.221 176.915 112.326C176.64 112.431 176.393 112.584 176.192 112.776C175.991 112.967 175.839 113.193 175.746 113.439C175.307 114.466 175.86 115.73 176.519 116.599C177.309 117.603 179.979 119.07 179.983 119.07Z" fill="#263238"/>
<path d="M1.77372 54.2881C1.07999 54.2317 0.706783 54.2317 0.702393 54.2317V53.8555C0.702393 53.8555 1.10195 53.8555 1.81763 53.9157L1.77372 54.2881Z" fill="#263238"/>
<path d="M55.7927 68.66C55.0639 68.66 54.3321 68.6487 53.5974 68.6261V68.2499C54.3394 68.2499 55.077 68.28 55.7927 68.2837V68.66ZM57.9881 68.66V68.2837C58.7389 68.2837 59.4765 68.2574 60.1834 68.2311V68.6073C59.4985 68.6336 58.7608 68.66 58.0012 68.66H57.9881ZM51.3537 68.5584C50.6249 68.5283 49.8872 68.4869 49.1584 68.438L49.1935 68.0618C49.9311 68.1107 50.6644 68.1521 51.3889 68.1822L51.3537 68.5584ZM62.4095 68.5132L62.3831 68.137C63.1515 68.0956 63.8804 68.0467 64.5785 67.9941L64.618 68.3703C63.9286 68.4267 63.1954 68.4719 62.4226 68.5132H62.4095ZM46.9543 68.2837C46.2122 68.216 45.4746 68.1446 44.7589 68.0656L44.816 67.6894C45.5317 67.7684 46.2649 67.8398 47.0113 67.9038L46.9543 68.2837ZM42.5636 67.7947C41.8303 67.6931 41.0971 67.584 40.3682 67.4674L40.4473 67.0912C41.1586 67.2078 41.8874 67.3169 42.6163 67.4147L42.5636 67.7947ZM38.2168 67.0761C37.4879 66.9332 36.7635 66.7789 36.0654 66.6172L36.1795 66.241C36.8732 66.399 37.5889 66.5532 38.3134 66.6962L38.2168 67.0761ZM33.9403 66.083C33.2246 65.8873 32.5177 65.6767 31.8459 65.4622L31.9996 65.1086C32.667 65.323 33.3651 65.53 34.0764 65.7218L33.9403 66.083ZM29.7823 64.7362C29.0973 64.4766 28.4212 64.202 27.7801 63.9161L27.9821 63.5812C28.6144 63.8634 29.2993 64.1343 29.9623 64.3901L29.7823 64.7362ZM25.8307 62.9793C25.4794 62.7912 25.1282 62.6031 24.7901 62.4L23.9822 61.9372L24.2237 61.6212L25.036 62.0877C25.3696 62.2833 25.7121 62.4639 26.0634 62.6595L25.8307 62.9793ZM22.1293 60.9177C21.5058 60.5867 20.8692 60.2631 20.2413 59.9509L20.4609 59.6274C21.0931 59.9396 21.7342 60.2669 22.362 60.598L22.1293 60.9177ZM18.3182 59.0367C17.6684 58.7395 17.001 58.4499 16.36 58.179L16.5532 57.8404C17.2074 58.115 17.8704 58.4047 18.5246 58.7057L18.3182 59.0367ZM14.3666 57.3852C13.6948 57.1294 13.0143 56.8849 12.3381 56.6591L12.5006 56.3093C13.1811 56.5388 13.8661 56.7833 14.5466 57.0429L14.3666 57.3852ZM10.2789 56.0008C9.58075 55.7939 8.87823 55.5983 8.1889 55.4252L8.31623 55.049C9.00996 55.2258 9.72125 55.4252 10.4238 55.6321L10.2789 56.0008ZM6.07259 54.9399C5.34373 54.7857 4.61927 54.6578 3.92993 54.5637L4.00457 54.1875C4.70708 54.2966 5.43594 54.4283 6.19992 54.5637L6.07259 54.9399Z" fill="#263238"/>
<path d="M66.8357 68.1802L66.7874 67.804C67.165 67.7664 67.525 67.725 67.8675 67.6836L67.9289 68.0598C67.5821 68.1012 67.2176 68.1426 66.8357 68.1802Z" fill="#263238"/>
<path d="M67.6387 69.7802L70.9932 67.3688L66.8792 66.0859L67.6387 69.7802Z" fill="#263238"/>
<path d="M1.08985 12.5125L0.26001 11.8993L0.549795 11.6172L1.37524 12.2304L1.08985 12.5125Z" fill="#263238"/>
<path d="M67.4631 51.4242C66.8265 51.2173 66.1459 50.9879 65.3688 50.7245L65.5356 50.3746C66.2908 50.638 66.9845 50.8675 67.6168 51.0706L67.4631 51.4242ZM63.2964 49.9872C62.6465 49.7539 61.9601 49.5031 61.2371 49.2347L61.4128 48.8886C62.1358 49.162 62.8207 49.4128 63.4676 49.641L63.2964 49.9872ZM59.1999 48.4334L57.1626 47.6246L57.3514 47.2823C58.0583 47.5682 58.7344 47.8353 59.3843 48.0911L59.1999 48.4334ZM55.1385 46.797L53.2593 46.0145L53.1232 45.958L53.3163 45.6195L53.4525 45.6759L55.3317 46.4584L55.1385 46.797ZM51.1254 45.0589C50.5107 44.7692 49.8521 44.4457 49.1715 44.0996L49.3955 43.7761C50.0716 44.1184 50.7127 44.4382 51.3405 44.7279L51.1254 45.0589ZM47.2528 43.0989C46.6337 42.7679 45.9971 42.4218 45.356 42.0644L45.5931 41.7484C46.2342 42.1045 46.865 42.4481 47.4855 42.7791L47.2528 43.0989ZM43.4768 41.0035C42.868 40.6549 42.2489 40.295 41.6196 39.9238L41.8698 39.6115C42.4933 39.9802 43.1109 40.3401 43.7227 40.6912L43.4768 41.0035ZM39.7755 38.8253C39.1696 38.4616 38.5592 38.0854 37.9445 37.6967L38.1992 37.3919L40.0257 38.5205L39.7755 38.8253ZM36.1224 36.5681L34.3135 35.4395L34.5769 35.1385L36.3815 36.2671L36.1224 36.5681ZM32.5133 34.277C31.9161 33.9008 31.319 33.5246 30.7219 33.1183L30.9853 32.8211C31.5824 33.1973 32.1796 33.5961 32.7767 33.976L32.5133 34.277ZM28.9041 31.9671L27.1479 30.7896L27.4157 30.4924C28.0084 30.8686 28.6012 31.2787 29.1939 31.6662L28.9041 31.9671ZM25.3916 29.6121L23.6353 28.4233L23.9075 28.1261L25.6638 29.3149L25.3916 29.6121ZM21.879 27.227L20.1228 26.0307L20.395 25.7372L22.1513 26.9336L21.879 27.227ZM18.3665 24.8231L16.6102 23.6155L16.8868 23.322L18.6431 24.5296L18.3665 24.8231ZM14.8539 22.3891L13.0977 21.1664L13.3743 20.8767L15.1305 22.0956L14.8539 22.3891ZM11.3853 19.9437L9.65975 18.7136L9.94076 18.4239L11.6663 19.6541L11.3853 19.9437ZM7.9386 17.4984L6.21746 16.2607L6.50285 15.9748L8.21961 17.2125L7.9386 17.4984ZM4.5007 15.0193C3.86844 14.5603 3.29326 14.1427 2.78833 13.7703L3.07372 13.4844L4.78609 14.7334L4.5007 15.0193Z" fill="#263238"/>
<path d="M70.5501 52.3338C70.234 52.2511 69.8827 52.1533 69.5007 52.0442L69.6412 51.668C70.0188 51.7771 70.3657 51.8711 70.6818 51.9576L70.5501 52.3338Z" fill="#263238"/>
<path d="M69.4824 53.8134L73.6843 52.7638L70.523 50.168L69.4824 53.8134Z" fill="#263238"/>
<path d="M1.10206 119.108C0.386381 119.078 0 119.048 0 119.048L0.0395162 118.672C0.0395162 118.672 0.421506 118.702 1.12402 118.728L1.10206 119.108Z" fill="#263238"/>
<path d="M3.83183 119.159H3.3269V118.783H3.83183C4.35433 118.783 4.92511 118.783 5.53981 118.764V119.141C4.9295 119.156 4.35872 119.159 3.83183 119.159ZM7.78345 119.065V118.689C8.51669 118.655 9.25872 118.61 9.97879 118.561L10.0183 118.937C9.25433 118.99 8.50791 119.035 7.77028 119.069L7.78345 119.065ZM12.218 118.757L12.1697 118.381C12.903 118.313 13.6406 118.234 14.3651 118.147L14.4222 118.524C13.6845 118.61 12.9425 118.693 12.218 118.757ZM16.6087 118.241L16.5385 117.865C17.2673 117.764 18.0006 117.651 18.7338 117.53L18.8172 117.907C18.0796 118.023 17.342 118.136 16.6087 118.241ZM20.9731 117.515L20.8765 117.139C21.5965 117.004 22.3166 116.857 23.0279 116.703L23.1333 117.079C22.422 117.23 21.6931 117.376 20.9731 117.515ZM25.2803 116.579L25.1618 116.202C25.8643 116.029 26.5756 115.845 27.2781 115.653L27.4098 116.029C26.7073 116.218 25.9872 116.406 25.2803 116.579ZM29.5173 115.42L29.3724 115.066C30.0662 114.856 30.7643 114.634 31.4405 114.408L31.6029 114.758C30.918 114.987 30.2199 115.209 29.5173 115.42ZM33.6621 114.036L33.4865 113.689C34.1671 113.441 34.8432 113.182 35.5018 112.918L35.6906 113.261C35.0496 113.524 34.3427 113.802 33.6621 114.036ZM37.6884 112.422L37.4864 112.087C38.1406 111.801 38.8036 111.504 39.4359 111.195L39.651 111.526C39.0012 111.835 38.3426 112.136 37.684 112.422H37.6884ZM41.5742 110.571L41.3458 110.247C41.82 110.006 42.2898 109.754 42.7553 109.495C42.9089 109.412 43.0582 109.329 43.1943 109.239L43.4446 109.551L42.9792 109.815C42.5138 110.074 42.0484 110.326 41.5742 110.571ZM45.236 108.389L44.9506 108.099C45.4907 107.723 46.0351 107.279 46.5664 106.824L46.8781 107.091C46.3337 107.554 45.7848 107.99 45.236 108.389ZM48.3973 105.688L48.0636 105.443C48.529 104.988 48.9988 104.495 49.4642 103.983L49.8111 104.213C49.3413 104.732 48.8671 105.229 48.3973 105.688ZM51.1371 102.678L50.777 102.46C51.1898 101.963 51.6069 101.437 52.0196 100.895L52.3884 101.098C51.9713 101.651 51.5498 102.181 51.1371 102.682V102.678ZM53.5739 99.4879L53.2007 99.2922C53.5841 98.753 53.9617 98.21 54.3335 97.6633L54.7111 97.8514C54.3379 98.4044 53.9603 98.9537 53.5739 99.5067V99.4879ZM55.8088 96.1961L55.4224 96.0155C55.7824 95.4588 56.1366 94.9032 56.4849 94.349L56.8713 94.5258C56.5201 95.0863 56.1688 95.6431 55.8088 96.1999V96.1961ZM57.9119 92.8479L57.5255 92.6711L58.5529 90.9895L58.9437 91.1625L57.9119 92.8479ZM59.9667 89.4621L59.5804 89.2891C59.9316 88.7147 60.2785 88.1542 60.621 87.6074L61.0073 87.788C60.6649 88.3486 60.318 88.9091 59.9667 89.4809V89.4621ZM62.0743 86.1252L61.6923 85.9409C62.0962 85.3277 62.465 84.7897 62.8207 84.2969L63.1939 84.4925C62.8426 85.0004 62.4738 85.5346 62.0743 86.144V86.1252Z" fill="#263238"/>
<path d="M64.3891 82.9551L64.0334 82.7407C64.253 82.4698 64.4725 82.2178 64.6921 81.9883L65.0345 82.2215C64.8238 82.4397 64.6086 82.6843 64.3891 82.9551Z" fill="#263238"/>
<path d="M66.0368 83.8215L67.1037 80.1836L62.8931 81.2106L66.0368 83.8215Z" fill="#263238"/>
<path d="M2.66432 90.7276C1.94864 90.6712 1.56665 90.6223 1.56665 90.6223L1.63251 90.2461C1.63251 90.2461 2.01011 90.2912 2.70823 90.3514L2.66432 90.7276Z" fill="#263238"/>
<path d="M9.14587 90.9201V90.5439C9.84399 90.5439 10.5685 90.5175 11.2929 90.4912V90.8674C10.5772 90.8937 9.85277 90.9126 9.14587 90.9201ZM6.98566 90.9201C6.24802 90.9201 5.51917 90.89 4.82544 90.8599L4.84739 90.4837C5.53673 90.5138 6.2568 90.5364 6.99444 90.5439L6.98566 90.9201ZM13.4663 90.7583L13.4356 90.3821C14.1425 90.3407 14.8625 90.2843 15.5738 90.2241L15.6177 90.6003C14.9021 90.6605 14.1776 90.7132 13.4663 90.7583ZM17.7648 90.3821L17.7077 90.0059C18.419 89.9269 19.1347 89.8404 19.8372 89.7463L19.9031 90.1225C19.1962 90.2241 18.4761 90.3106 17.7648 90.3896V90.3821ZM22.0369 89.814L21.9579 89.4378C22.6472 89.3287 23.3497 89.2121 24.0654 89.0805L24.1532 89.4567C23.4376 89.5921 22.7307 89.7275 22.0369 89.8216V89.814ZM26.2608 89.0616L26.1598 88.6854C26.8535 88.5425 27.556 88.3882 28.241 88.2302L28.3551 88.6064C27.6658 88.7569 26.9633 88.9112 26.2695 89.0541L26.2608 89.0616ZM30.4363 88.0986L30.309 87.7224C30.9895 87.5493 31.6789 87.3462 32.3594 87.1694L32.4955 87.5267C31.815 87.7261 31.1212 87.9142 30.4363 88.091V88.0986ZM34.5372 86.9399L34.3923 86.5862C35.0597 86.3793 35.7359 86.1611 36.3989 85.9354L36.5613 86.2853C35.8939 86.5035 35.2134 86.7179 34.5372 86.9323V86.9399ZM38.5635 85.5893L38.3922 85.2432C39.0464 85.0062 39.7094 84.7541 40.3592 84.4908L40.5393 84.8331C39.8807 85.0852 39.2177 85.3373 38.5635 85.5893ZM42.5151 84.0431L42.3175 83.7045C42.7771 83.5089 43.2381 83.3095 43.7006 83.1064L44.2318 82.8656L44.4382 83.2004L43.9025 83.4374C43.3932 83.6331 42.9541 83.8362 42.4887 84.0318L42.5151 84.0431ZM46.3481 82.3465L46.1418 82.0116L48.0517 81.1577L48.2581 81.4925L46.3481 82.3465ZM50.168 80.6347L49.9617 80.3037L51.8716 79.4459L52.0736 79.7808L50.168 80.6347ZM53.9835 78.923L53.7772 78.5882L55.6827 77.7305L55.8891 78.0615L53.9835 78.923Z" fill="#263238"/>
<path d="M58.5348 76.4163L57.5642 76.8555L57.7693 77.1881L58.7399 76.7489L58.5348 76.4163Z" fill="#263238"/>
<path d="M59.0856 78.4859L61.4215 75.3145L57.0483 75.1641L59.0856 78.4859Z" fill="#263238"/>
<path d="M24.8466 98.832H21.9443V107.541H24.8466V98.832Z" fill="#263238"/>
<path d="M25.0708 107.73H21.7251V98.6445H25.0708V107.73ZM22.1642 107.354H24.6317V99.0207H22.1642V107.354Z" fill="#263238"/>
<path d="M29.932 94.1406H27.0298V107.541H29.932V94.1406Z" fill="#FCA311"/>
<path d="M29.9306 107.726H27.0284C26.9701 107.726 26.9143 107.706 26.8731 107.671C26.832 107.635 26.8088 107.587 26.8088 107.538V94.1373C26.8088 94.0874 26.832 94.0396 26.8731 94.0043C26.9143 93.969 26.9701 93.9492 27.0284 93.9492H29.9306C29.9888 93.9492 30.0447 93.969 30.0858 94.0043C30.127 94.0396 30.1501 94.0874 30.1501 94.1373V107.538C30.1501 107.587 30.127 107.635 30.0858 107.671C30.0447 107.706 29.9888 107.726 29.9306 107.726ZM27.2479 107.349H29.7111V94.3254H27.2479V107.349Z" fill="#263238"/>
<path d="M35.0114 101.453H32.1091V107.54H35.0114V101.453Z" fill="#263238"/>
<path d="M35.2312 107.729H31.8899V101.266H35.2312V107.729ZM32.329 107.353H34.7921V101.642H32.329V107.353Z" fill="#263238"/>
<path d="M40.0922 94.7969H37.1899V107.543H40.0922V94.7969Z" fill="#FCA311"/>
<path d="M40.0903 107.727H37.188C37.1302 107.726 37.075 107.706 37.034 107.671C36.9931 107.636 36.9696 107.589 36.9685 107.539V94.7936C36.9685 94.7437 36.9916 94.6958 37.0328 94.6606C37.074 94.6253 37.1298 94.6055 37.188 94.6055H40.0903C40.1485 94.6055 40.2043 94.6253 40.2455 94.6606C40.2867 94.6958 40.3098 94.7437 40.3098 94.7936V107.539C40.3098 107.589 40.2867 107.637 40.2455 107.672C40.2043 107.708 40.1485 107.727 40.0903 107.727ZM37.4076 107.351H39.8795V94.9892H37.4164L37.4076 107.351Z" fill="#263238"/>
<path d="M20.5839 93.5977H18.5466V93.9739H20.5839V93.5977Z" fill="#263238"/>
<path d="M20.5839 95.5625H18.5466V95.9387H20.5839V95.5625Z" fill="#263238"/>
<path d="M20.5839 97.5273H18.5466V97.9035H20.5839V97.5273Z" fill="#263238"/>
<path d="M20.5839 99.4922H18.5466V99.8684H20.5839V99.4922Z" fill="#263238"/>
<path d="M20.5839 101.457H18.5466V101.833H20.5839V101.457Z" fill="#263238"/>
<path d="M20.5839 103.422H18.5466V103.798H20.5839V103.422Z" fill="#263238"/>
<path d="M20.5839 105.383H18.5466V105.759H20.5839V105.383Z" fill="#263238"/>
<path d="M20.5839 107.352H18.5466V107.728H20.5839V107.352Z" fill="#263238"/>
<path d="M22.7822 96.754L22.4617 96.4945L29.017 90.543L33.5921 96.0995L38.1145 91.5662L38.4482 91.8108L33.5613 96.7089L28.9643 91.1336L22.7822 96.754Z" fill="#263238"/>
<path d="M39.5288 93.3235L40.3279 89.6367L36.2007 90.8895L39.5288 93.3235Z" fill="#263238"/>
<path d="M18.7398 67.6602H0.676514V87.2188H18.7398V67.6602Z" fill="#263238"/>
<path d="M18.9599 87.4074H0.45752V67.4688H18.9599V87.4074ZM0.896588 87.0312H18.5208V67.845H0.896588V87.0312Z" fill="#263238"/>
<path d="M19.8284 66.8984H1.76514V86.4571H19.8284V66.8984Z" fill="#FCA311"/>
<path d="M19.829 86.6457H1.76568C1.70745 86.6457 1.65161 86.6259 1.61044 86.5906C1.56927 86.5553 1.54614 86.5075 1.54614 86.4576V66.8951C1.54614 66.8452 1.56927 66.7974 1.61044 66.7621C1.65161 66.7269 1.70745 66.707 1.76568 66.707H19.829C19.8872 66.707 19.943 66.7269 19.9842 66.7621C20.0254 66.7974 20.0485 66.8452 20.0485 66.8951V86.4576C20.0485 86.5075 20.0254 86.5553 19.9842 86.5906C19.943 86.6259 19.8872 86.6457 19.829 86.6457ZM1.98521 86.2695H19.6094V67.0832H1.98521V86.2695Z" fill="#263238"/>
<path d="M16.2544 72.3242H5.13721V72.7004H16.2544V72.3242Z" fill="#263238"/>
<path d="M16.2544 75.3867H5.13721V75.7629H16.2544V75.3867Z" fill="#263238"/>
<path d="M16.2544 78.4492H5.13721V78.8254H16.2544V78.4492Z" fill="#263238"/>
<path d="M16.2544 81.5117H5.13721V81.8879H16.2544V81.5117Z" fill="#263238"/>
<path d="M18.4014 66.2578C17.2471 66.2571 16.1185 66.5497 15.1583 67.0986C14.1981 67.6475 13.4495 68.4281 13.0072 69.3416C12.5649 70.2551 12.4487 71.2605 12.6734 72.2306C12.898 73.2007 13.4534 74.0919 14.2693 74.7915C15.0852 75.4911 16.1249 75.9677 17.257 76.1609C18.389 76.3541 19.5625 76.2553 20.629 75.877C21.6955 75.4987 22.6071 74.8579 23.2485 74.0356C23.8899 73.2133 24.2322 72.2465 24.2322 71.2575C24.2322 69.9322 23.618 68.661 22.5247 67.7235C21.4313 66.786 19.9482 66.2588 18.4014 66.2578ZM18.4014 75.1851C17.4948 75.1851 16.6085 74.9547 15.8547 74.5231C15.1009 74.0916 14.5134 73.4782 14.1664 72.7605C13.8195 72.0429 13.7287 71.2532 13.9056 70.4913C14.0825 69.7294 14.519 69.0296 15.1601 68.4803C15.8012 67.9311 16.6179 67.557 17.5071 67.4055C18.3963 67.2539 19.318 67.3317 20.1556 67.629C20.9931 67.9262 21.7091 68.4296 22.2127 69.0755C22.7164 69.7214 22.9853 70.4807 22.9853 71.2575C22.9853 71.7733 22.8667 72.284 22.6363 72.7605C22.406 73.237 22.0683 73.67 21.6427 74.0347C21.217 74.3994 20.7117 74.6887 20.1556 74.8861C19.5994 75.0835 19.0033 75.1851 18.4014 75.1851Z" fill="#263238"/>
<path d="M18.4019 76.442C17.204 76.4428 16.0328 76.1391 15.0364 75.5693C14.0401 74.9995 13.2633 74.1894 12.8045 73.2412C12.3457 72.2931 12.2254 71.2497 12.4589 70.2431C12.6924 69.2364 13.2691 68.3116 14.1162 67.5859C14.9632 66.8601 16.0425 66.366 17.2174 66.1659C18.3923 65.9659 19.6101 66.0689 20.7166 66.462C21.8232 66.8551 22.7687 67.5207 23.4337 68.3744C24.0987 69.2281 24.4532 70.2316 24.4523 71.258C24.45 72.6323 23.8118 73.9497 22.6776 74.9215C21.5434 75.8932 20.0059 76.44 18.4019 76.442ZM18.4019 66.4464C17.2911 66.4456 16.2049 66.7272 15.2808 67.2554C14.3567 67.7837 13.6363 68.5349 13.2106 69.4141C12.7849 70.2932 12.673 71.2608 12.8892 72.1944C13.1054 73.128 13.6399 73.9857 14.4251 74.659C15.2103 75.3323 16.2109 75.7909 17.3003 75.9769C18.3898 76.1628 19.5192 76.0678 20.5455 75.7037C21.5719 75.3396 22.4492 74.7229 23.0665 73.9316C23.6837 73.1402 24.0132 72.2098 24.0132 71.258C24.0109 69.9831 23.4191 68.761 22.3674 67.8592C21.3157 66.9574 19.8898 66.4494 18.4019 66.4464ZM18.4019 75.3736C17.4515 75.3751 16.522 75.135 15.7309 74.6837C14.9398 74.2323 14.3228 73.5901 13.9579 72.8382C13.593 72.0863 13.4966 71.2585 13.681 70.4597C13.8653 69.6608 14.3221 68.9268 14.9935 68.3505C15.6649 67.7741 16.5208 67.3814 17.4528 67.222C18.3848 67.0626 19.3511 67.1436 20.2293 67.4549C21.1075 67.7662 21.8582 68.2937 22.3864 68.9707C22.9146 69.6477 23.1965 70.4437 23.1965 71.258C23.1954 72.3479 22.6902 73.393 21.7915 74.1644C20.8928 74.9358 19.674 75.3706 18.4019 75.3736ZM18.4019 67.5185C17.5384 67.5171 16.6937 67.7351 15.9748 68.1451C15.256 68.5551 14.6952 69.1386 14.3635 69.8217C14.0319 70.5049 13.9442 71.257 14.1116 71.9829C14.279 72.7088 14.694 73.3758 15.304 73.8995C15.914 74.4232 16.6916 74.7801 17.5385 74.925C18.3853 75.0699 19.2633 74.9963 20.0613 74.7135C20.8593 74.4307 21.5414 73.9514 22.0213 73.3363C22.5013 72.7212 22.7575 71.9979 22.7575 71.258C22.7517 70.2704 22.2907 69.3249 21.4748 68.6273C20.659 67.9297 19.5545 67.5366 18.4019 67.5336V67.5185Z" fill="#263238"/>
<path d="M32.1404 78.1268C31.9746 78.1271 31.8109 78.0949 31.6618 78.0328L22.7575 74.3046C22.4961 74.1949 22.2963 74.0006 22.202 73.7646C22.1077 73.5286 22.1267 73.2702 22.2548 73.0462C22.3829 72.8222 22.6096 72.651 22.885 72.5702C23.1604 72.4894 23.462 72.5057 23.7235 72.6155L32.619 76.3399C32.843 76.4328 33.0234 76.5882 33.1308 76.7805C33.2382 76.9729 33.2661 77.1908 33.2099 77.3985C33.1538 77.6062 33.0169 77.7914 32.8218 77.9238C32.6267 78.0561 32.3849 78.1277 32.136 78.1268H32.1404Z" fill="#263238"/>
<path d="M38.455 50.332H52.8038C53.1068 50.3315 53.4071 50.3823 53.6872 50.4813C53.9674 50.5803 54.222 50.7257 54.4366 50.9092C54.6511 51.0926 54.8213 51.3105 54.9374 51.5504C55.0535 51.7903 55.1133 52.0474 55.1133 52.3071V59.7483C55.1133 60.008 55.0535 60.2652 54.9374 60.505C54.8213 60.7449 54.6511 60.9628 54.4366 61.1462C54.222 61.3297 53.9674 61.4751 53.6872 61.5741C53.4071 61.6732 53.1068 61.7239 52.8038 61.7234H51.5393L48.8258 65.2559L48.5097 61.7234H38.455C38.1519 61.7239 37.8517 61.6732 37.5715 61.5741C37.2914 61.4751 37.0367 61.3297 36.8222 61.1462C36.6077 60.9628 36.4375 60.7449 36.3214 60.505C36.2053 60.2652 36.1455 60.008 36.1455 59.7483V52.3071C36.1455 52.0474 36.2053 51.7903 36.3214 51.5504C36.4375 51.3105 36.6077 51.0926 36.8222 50.9092C37.0367 50.7257 37.2914 50.5803 37.5715 50.4813C37.8517 50.3823 38.1519 50.3315 38.455 50.332Z" fill="#263238"/>
<path d="M48.6632 65.8208L48.3119 61.9121H38.4548C37.7856 61.9111 37.1441 61.6829 36.6709 61.2774C36.1977 60.872 35.9313 60.3223 35.9302 59.7489V52.3077C35.9313 51.7336 36.1983 51.1834 36.6725 50.7779C37.1466 50.3723 37.7892 50.1445 38.4592 50.1445H52.808C53.478 50.1445 54.1206 50.3723 54.5947 50.7779C55.0689 51.1834 55.3358 51.7336 55.337 52.3077V59.7489C55.3358 60.323 55.0689 60.8732 54.5947 61.2787C54.1206 61.6843 53.478 61.9121 52.808 61.9121H51.662L48.6632 65.8208ZM38.4592 50.5207C37.9057 50.5207 37.3748 50.7089 36.9829 51.0439C36.5911 51.3789 36.3704 51.8334 36.3692 52.3077V59.7489C36.3704 60.2232 36.5911 60.6777 36.9829 61.0127C37.3748 61.3477 37.9057 61.5359 38.4592 61.5359H48.7202L49.0012 64.6922L51.4249 61.5359H52.808C53.3615 61.5359 53.8924 61.3477 54.2842 61.0127C54.6761 60.6777 54.8968 60.2232 54.8979 59.7489V52.3077C54.8968 51.8334 54.6761 51.3789 54.2842 51.0439C53.8924 50.7089 53.3615 50.5207 52.808 50.5207H38.4592Z" fill="#263238"/>
<path d="M42.7126 55.9396C42.7117 55.7486 42.6448 55.562 42.5203 55.4035C42.3958 55.245 42.2193 55.1217 42.013 55.0491C41.8067 54.9765 41.58 54.9579 41.3614 54.9956C41.1428 55.0333 40.9421 55.1257 40.7848 55.2611C40.6274 55.3964 40.5204 55.5687 40.4772 55.7562C40.434 55.9436 40.4566 56.1378 40.5421 56.3143C40.6277 56.4907 40.7723 56.6415 40.9578 56.7476C41.1432 56.8536 41.3612 56.9102 41.5842 56.9102C41.7328 56.9102 41.8799 56.8851 42.017 56.8363C42.1542 56.7875 42.2788 56.7159 42.3837 56.6257C42.4885 56.5356 42.5715 56.4285 42.628 56.3108C42.6844 56.193 42.7132 56.0669 42.7126 55.9396Z" fill="white"/>
<path d="M46.2434 56.9063C46.8666 56.9063 47.3718 56.4735 47.3718 55.9395C47.3718 55.4055 46.8666 54.9727 46.2434 54.9727C45.6202 54.9727 45.115 55.4055 45.115 55.9395C45.115 56.4735 45.6202 56.9063 46.2434 56.9063Z" fill="white"/>
<path d="M52.0307 55.9396C52.0299 55.7486 51.9629 55.562 51.8384 55.4035C51.7139 55.245 51.5374 55.1217 51.3311 55.0491C51.1248 54.9765 50.8981 54.9579 50.6795 54.9956C50.4609 55.0333 50.2603 55.1257 50.1029 55.2611C49.9455 55.3964 49.8385 55.5687 49.7953 55.7562C49.7521 55.9436 49.7747 56.1378 49.8602 56.3143C49.9458 56.4907 50.0904 56.6415 50.2759 56.7476C50.4613 56.8536 50.6793 56.9102 50.9023 56.9102C51.0509 56.9102 51.198 56.8851 51.3352 56.8363C51.4724 56.7875 51.5969 56.7159 51.7018 56.6257C51.8066 56.5356 51.8896 56.4285 51.9461 56.3108C52.0025 56.193 52.0313 56.0669 52.0307 55.9396Z" fill="white"/>
<path d="M41.1106 45.4883H26.7619C26.1494 45.4883 25.5619 45.6968 25.1288 46.0679C24.6957 46.439 24.4524 46.9423 24.4524 47.4671V54.9084C24.4524 55.168 24.5122 55.4252 24.6283 55.665C24.7444 55.9049 24.9146 56.1228 25.1291 56.3063C25.3436 56.4897 25.5982 56.6351 25.8784 56.7341C26.1586 56.8332 26.4588 56.8839 26.7619 56.8834H28.0264L30.7399 60.4159L31.056 56.8834H41.1106C41.4137 56.8839 41.7139 56.8332 41.9941 56.7341C42.2743 56.6351 42.5289 56.4897 42.7434 56.3063C42.958 56.1228 43.1281 55.9049 43.2443 55.665C43.3604 55.4252 43.4201 55.168 43.4201 54.9084V47.4671C43.4201 46.9423 43.1768 46.439 42.7437 46.0679C42.3106 45.6968 41.7232 45.4883 41.1106 45.4883Z" fill="white"/>
<path d="M30.907 60.9808L27.9082 57.0721H26.7622C26.0922 57.0721 25.4496 56.8443 24.9754 56.4388C24.5013 56.0332 24.2343 55.483 24.2332 54.909V47.4677C24.2343 46.8933 24.5011 46.3427 24.9752 45.9366C25.4492 45.5304 26.0918 45.3018 26.7622 45.3008H41.1109C41.7813 45.3018 42.4239 45.5304 42.898 45.9366C43.372 46.3427 43.6388 46.8933 43.64 47.4677V54.909C43.6388 55.483 43.3719 56.0332 42.8977 56.4388C42.4235 56.8443 41.7809 57.0721 41.1109 57.0721H31.2583L30.907 60.9808ZM26.7622 45.677C26.2079 45.677 25.6763 45.8656 25.2844 46.2015C24.8924 46.5373 24.6722 46.9928 24.6722 47.4677V54.909C24.6734 55.3832 24.8941 55.8377 25.2859 56.1728C25.6777 56.5078 26.2087 56.6959 26.7622 56.6959H28.1453L30.5689 59.8522L30.8543 56.6959H41.1109C41.6645 56.6959 42.1954 56.5078 42.5872 56.1728C42.979 55.8377 43.1997 55.3832 43.2009 54.909V47.4677C43.2009 46.9928 42.9807 46.5373 42.5888 46.2015C42.1968 45.8656 41.6652 45.677 41.1109 45.677H26.7622Z" fill="#263238"/>
<path d="M30.4052 51.4668C30.4052 51.2756 30.3391 51.0887 30.2151 50.9297C30.0911 50.7707 29.9149 50.6468 29.7087 50.5736C29.5025 50.5004 29.2756 50.4813 29.0567 50.5186C28.8378 50.5559 28.6368 50.648 28.4789 50.7832C28.3211 50.9184 28.2137 51.0907 28.1701 51.2782C28.1266 51.4658 28.1489 51.6602 28.2343 51.8368C28.3197 52.0135 28.4644 52.1645 28.6499 52.2707C28.8355 52.377 29.0537 52.4337 29.2768 52.4337C29.5758 52.4327 29.8621 52.3305 30.0735 52.1494C30.2848 51.9683 30.4041 51.723 30.4052 51.4668Z" fill="#263238"/>
<path d="M29.2781 52.6221C29.0103 52.6228 28.7482 52.5554 28.5251 52.4284C28.3021 52.3013 28.1281 52.1204 28.0252 51.9085C27.9223 51.6967 27.8951 51.4634 27.9472 51.2383C27.9992 51.0131 28.1281 50.8063 28.3175 50.6441C28.5069 50.4818 28.7482 50.3714 29.011 50.3268C29.2737 50.2822 29.546 50.3054 29.7933 50.3936C30.0405 50.4818 30.2517 50.6309 30.4 50.822C30.5482 51.0131 30.6269 51.2377 30.626 51.4671C30.6249 51.7731 30.4825 52.0663 30.23 52.2827C29.9774 52.4991 29.6352 52.6211 29.2781 52.6221ZM29.2781 50.6846C29.0973 50.6839 28.9203 50.7292 28.7695 50.8147C28.6188 50.9002 28.501 51.0222 28.4312 51.1651C28.3614 51.308 28.3427 51.4654 28.3775 51.6175C28.4122 51.7695 28.4988 51.9093 28.6264 52.0191C28.7539 52.1289 28.9166 52.2038 29.0939 52.2343C29.2712 52.2648 29.455 52.2495 29.6222 52.1904C29.7893 52.1313 29.9322 52.031 30.0328 51.9023C30.1333 51.7735 30.187 51.6221 30.187 51.4671C30.187 51.2603 30.0914 51.0618 29.921 50.9152C29.7507 50.7685 29.5196 50.6856 29.2781 50.6846Z" fill="#263238"/>
<path d="M35.0505 51.4668C35.0505 51.2756 34.9843 51.0887 34.8603 50.9297C34.7364 50.7707 34.5601 50.6468 34.3539 50.5736C34.1477 50.5004 33.9209 50.4813 33.702 50.5186C33.4831 50.5559 33.282 50.648 33.1242 50.7832C32.9664 50.9184 32.8589 51.0907 32.8154 51.2782C32.7718 51.4658 32.7942 51.6602 32.8796 51.8368C32.965 52.0135 33.1096 52.1645 33.2952 52.2707C33.4808 52.377 33.6989 52.4337 33.9221 52.4337C34.221 52.4327 34.5074 52.3305 34.7187 52.1494C34.9301 51.9683 35.0494 51.723 35.0505 51.4668Z" fill="#263238"/>
<path d="M33.9361 52.6221C33.6682 52.6228 33.4062 52.5554 33.1831 52.4284C32.96 52.3013 32.786 52.1204 32.6831 51.9085C32.5802 51.6967 32.5531 51.4634 32.6051 51.2383C32.6572 51.0131 32.786 50.8063 32.9754 50.6441C33.1648 50.4818 33.4062 50.3714 33.6689 50.3268C33.9317 50.2822 34.2039 50.3054 34.4512 50.3936C34.6985 50.4818 34.9097 50.6309 35.0579 50.822C35.2062 51.0131 35.2849 51.2377 35.284 51.4671C35.2828 51.7731 35.1405 52.0663 34.8879 52.2827C34.6354 52.4991 34.2932 52.6211 33.9361 52.6221ZM33.9361 50.6846C33.7552 50.6839 33.5783 50.7292 33.4275 50.8147C33.2767 50.9002 33.159 51.0222 33.0892 51.1651C33.0194 51.308 33.0007 51.4654 33.0354 51.6175C33.0702 51.7695 33.1568 51.9093 33.2843 52.0191C33.4119 52.1289 33.5746 52.2038 33.7519 52.2343C33.9292 52.2648 34.113 52.2495 34.2801 52.1904C34.4473 52.1313 34.5902 52.031 34.6907 51.9023C34.7913 51.7735 34.8449 51.6221 34.8449 51.4671C34.8449 51.2603 34.7493 51.0618 34.579 50.9152C34.4087 50.7685 34.1775 50.6856 33.9361 50.6846Z" fill="#263238"/>
<path d="M39.7239 51.4668C39.7239 51.2756 39.6577 51.0887 39.5337 50.9297C39.4097 50.7707 39.2335 50.6468 39.0273 50.5736C38.8211 50.5004 38.5942 50.4813 38.3753 50.5186C38.1564 50.5559 37.9554 50.648 37.7975 50.7832C37.6397 50.9184 37.5323 51.0907 37.4887 51.2782C37.4452 51.4658 37.4675 51.6602 37.5529 51.8368C37.6383 52.0135 37.783 52.1645 37.9685 52.2707C38.1541 52.377 38.3723 52.4337 38.5954 52.4337C38.8944 52.4327 39.1807 52.3305 39.3921 52.1494C39.6034 51.9683 39.7227 51.723 39.7239 51.4668Z" fill="#263238"/>
<path d="M38.5938 52.6221C38.3259 52.6228 38.0639 52.5554 37.8408 52.4284C37.6177 52.3013 37.4437 52.1204 37.3408 51.9085C37.2379 51.6967 37.2108 51.4634 37.2628 51.2383C37.3149 51.0131 37.4438 50.8063 37.6331 50.6441C37.8225 50.4818 38.0639 50.3714 38.3266 50.3268C38.5894 50.2822 38.8616 50.3054 39.1089 50.3936C39.3562 50.4818 39.5674 50.6309 39.7156 50.822C39.8639 51.0131 39.9426 51.2377 39.9417 51.4671C39.9406 51.7731 39.7982 52.0663 39.5456 52.2827C39.2931 52.4991 38.9509 52.6211 38.5938 52.6221ZM38.5938 50.6846C38.413 50.6839 38.236 50.7292 38.0852 50.8147C37.9344 50.9002 37.8167 51.0222 37.7469 51.1651C37.6771 51.308 37.6584 51.4654 37.6931 51.6175C37.7279 51.7695 37.8145 51.9093 37.9421 52.0191C38.0696 52.1289 38.2323 52.2038 38.4096 52.2343C38.5869 52.2648 38.7707 52.2495 38.9379 52.1904C39.105 52.1313 39.2479 52.031 39.3484 51.9023C39.449 51.7735 39.5026 51.6221 39.5026 51.4671C39.5026 51.2603 39.407 51.0618 39.2367 50.9152C39.0664 50.7685 38.8352 50.6856 38.5938 50.6846Z" fill="#263238"/>
<path d="M30.2774 22.5938H6.33057V37.8073H30.2774V22.5938Z" fill="white"/>
<path d="M30.4974 37.9923H6.11157V22.4062H30.4974V37.9923ZM6.55064 37.6161H30.0584V22.7825H6.55064V37.6161Z" fill="#263238"/>
<path d="M30.2774 30.3542L26.3521 27.3672L19.9549 33.029L14.7914 30.1962L6.33057 37.803H30.2774V30.3542Z" fill="#263238"/>
<path d="M30.4977 37.9929H5.81763L14.7615 29.9572L19.9205 32.79L26.3441 27.1094L30.4977 30.2732V37.9929ZM6.84066 37.6167H30.0586V30.4425L26.366 27.6285L19.9864 33.2715L14.8273 30.4425L6.84066 37.6167Z" fill="#263238"/>
<path d="M14.0724 26.793C14.0724 27.2567 13.9118 27.7099 13.6111 28.0955C13.3103 28.481 12.8828 28.7814 12.3827 28.9586C11.8827 29.1359 11.3324 29.1821 10.8017 29.0914C10.271 29.0006 9.78357 28.777 9.40119 28.4489C9.01881 28.1207 8.75864 27.7028 8.65359 27.2479C8.54854 26.793 8.60334 26.3216 8.81105 25.8934C9.01876 25.4652 9.37004 25.0995 9.82045 24.8424C10.2709 24.5853 10.8002 24.4485 11.3414 24.4492C12.0661 24.4502 12.7607 24.6976 13.2727 25.137C13.7848 25.5764 14.0724 26.172 14.0724 26.793Z" fill="#263238"/>
<path d="M11.3417 29.3254C10.7572 29.3254 10.1859 29.1769 9.69998 28.8987C9.21404 28.6205 8.8353 28.2251 8.61165 27.7624C8.388 27.2998 8.32948 26.7907 8.4435 26.2996C8.55751 25.8085 8.83895 25.3574 9.2522 25.0033C9.66545 24.6492 10.192 24.4081 10.7652 24.3104C11.3384 24.2127 11.9325 24.2628 12.4725 24.4544C13.0124 24.6461 13.4739 24.9706 13.7986 25.3869C14.1233 25.8033 14.2966 26.2928 14.2966 26.7936C14.2954 27.4647 13.9837 28.1081 13.4298 28.5827C12.8759 29.0573 12.125 29.3244 11.3417 29.3254ZM11.3417 24.6417C10.8441 24.6417 10.3576 24.7681 9.94391 25.005C9.53018 25.2418 9.20772 25.5785 9.0173 25.9724C8.82688 26.3663 8.77706 26.7997 8.87413 27.2179C8.97121 27.636 9.21082 28.0201 9.56267 28.3216C9.91452 28.623 10.3628 28.8284 10.8508 28.9115C11.3389 28.9947 11.8447 28.952 12.3044 28.7889C12.7641 28.6257 13.1571 28.3494 13.4335 27.9949C13.71 27.6404 13.8575 27.2237 13.8575 26.7973C13.8564 26.2259 13.5909 25.6782 13.1194 25.2742C12.6478 24.8701 12.0085 24.6427 11.3417 24.6417Z" fill="#263238"/>
<path d="M44.552 26.7383H20.6052V41.9518H44.552V26.7383Z" fill="white"/>
<path d="M44.7718 42.1368H20.386V26.5508H44.7718V42.1368ZM20.8251 41.7606H44.3328V26.927H20.8251V41.7606Z" fill="#263238"/>
<path d="M44.552 34.4988L40.6311 31.5117L34.2295 37.1735L29.0705 34.3445L20.6052 41.9475H44.552V34.4988Z" fill="#FCA311"/>
<path d="M44.5524 42.1373H20.6056C20.5631 42.1368 20.5217 42.1258 20.4864 42.1056C20.4511 42.0853 20.4234 42.0568 20.4067 42.0233C20.3899 41.9899 20.3849 41.953 20.3921 41.9171C20.3994 41.8812 20.4186 41.848 20.4475 41.8213L28.904 34.2145C28.9394 34.1834 28.9863 34.1638 29.0368 34.159C29.0872 34.1542 29.138 34.1645 29.1806 34.1882L34.1903 36.9344L40.4646 31.3855C40.5049 31.3512 40.5594 31.332 40.6161 31.332C40.6729 31.332 40.7273 31.3512 40.7676 31.3855L44.6885 34.3725C44.7116 34.3899 44.7302 34.4113 44.7431 34.4353C44.7559 34.4593 44.7628 34.4853 44.7631 34.5117V41.9454C44.7643 41.9947 44.7429 42.0424 44.7035 42.0783C44.6641 42.1141 44.6098 42.1353 44.5524 42.1373ZM21.1193 41.7611H44.3328V34.5869L40.6403 31.788L34.3879 37.3219C34.3525 37.353 34.3055 37.3726 34.2551 37.3774C34.2047 37.3822 34.1539 37.3719 34.1113 37.3483L29.1059 34.602L21.1193 41.7611Z" fill="#263238"/>
<path d="M25.616 33.2812C27.1267 33.2812 28.3514 32.2319 28.3514 30.9375C28.3514 29.6431 27.1267 28.5938 25.616 28.5938C24.1053 28.5938 22.8806 29.6431 22.8806 30.9375C22.8806 32.2319 24.1053 33.2812 25.616 33.2812Z" fill="#FCA311"/>
<path d="M25.6144 33.4699C25.0299 33.4699 24.4586 33.3214 23.9727 33.0432C23.4867 32.765 23.108 32.3696 22.8844 31.907C22.6607 31.4443 22.6022 30.9353 22.7162 30.4441C22.8302 29.953 23.1117 29.5019 23.5249 29.1478C23.9382 28.7937 24.4647 28.5526 25.0379 28.4549C25.6111 28.3572 26.2052 28.4073 26.7452 28.599C27.2851 28.7906 27.7466 29.1151 28.0713 29.5315C28.396 29.9478 28.5693 30.4373 28.5693 30.9381C28.5681 31.6093 28.2564 32.2527 27.7025 32.7273C27.1486 33.2019 26.3977 33.4689 25.6144 33.4699ZM25.6144 28.7825C25.1168 28.7825 24.6303 28.9089 24.2166 29.1457C23.8029 29.3826 23.4804 29.7193 23.29 30.1132C23.0996 30.5071 23.0498 30.9405 23.1468 31.3586C23.2439 31.7768 23.4835 32.1609 23.8354 32.4623C24.1872 32.7638 24.6355 32.9691 25.1235 33.0523C25.6116 33.1355 26.1174 33.0928 26.5771 32.9296C27.0368 32.7665 27.4298 32.4902 27.7062 32.1357C27.9827 31.7812 28.1302 31.3644 28.1302 30.9381C28.1302 30.366 27.8653 29.8173 27.3936 29.4125C26.9219 29.0076 26.282 28.7797 25.6144 28.7787V28.7825Z" fill="#263238"/>
<path d="M191.237 150.988H17.6772V151.364H191.237V150.988Z" fill="#263238"/>
<path d="M13.426 150.988H7.28345V151.364H13.426V150.988Z" fill="#263238"/>
<path d="M77.9264 94.6185L72.2185 91.7894L74.8837 91.1988C75.7021 91.061 76.4611 90.7345 77.079 90.2545C77.3785 89.9473 77.6404 89.6145 77.8605 89.2614C78.2513 88.6858 78.5938 88.1892 79.0285 88.1327C79.113 88.1197 79.1999 88.1231 79.2827 88.1427C79.3655 88.1622 79.4422 88.1974 79.507 88.2456C80.0274 88.6332 80.4032 89.1434 80.5874 89.7127C80.7717 90.282 80.7563 90.8852 80.5432 91.4471C80.0515 92.8955 78.0932 94.4567 78.0098 94.5357L77.9264 94.6185ZM73.3864 91.9211L77.8649 94.152C78.304 93.7758 79.7661 92.4854 80.1613 91.3305C80.3514 90.841 80.3695 90.3144 80.2134 89.8161C80.0573 89.3179 79.7338 88.8699 79.2831 88.5278C79.2129 88.4826 79.1734 88.4864 79.1558 88.4901C78.9187 88.5278 78.5674 89.0431 78.2777 89.4532C78.0409 89.8292 77.7599 90.1834 77.439 90.5103C76.7552 91.0538 75.9058 91.4204 74.989 91.5675L73.3864 91.9211Z" fill="#263238"/>
<path d="M61.6847 119.215L58.2556 118.892L62.3214 116.176L61.6847 119.215Z" fill="white"/>
<path d="M61.865 119.421L57.6938 119.045L62.6378 115.738L61.865 119.421ZM58.8179 118.755L61.505 119.007L62.0011 116.626L58.8179 118.755Z" fill="#263238"/>
<path d="M63.5902 91.2536L63.4497 93.5484C63.4497 93.5484 60.7012 103.145 60.8417 103.499C60.9822 103.853 60.6353 113.976 60.9075 115.161C61.1797 116.346 61.6671 119.224 61.6671 119.224C61.6671 119.224 65.4431 119.107 67.1599 118.34C68.5776 117.627 69.9126 116.799 71.1466 115.868L69.7723 111.279C70.5928 110.805 71.2555 110.157 71.6954 109.398C72.0812 108.644 72.3584 107.854 72.5209 107.043L73.6186 106.749C73.6186 106.749 75.0631 107.396 75.748 106.806C76.433 106.215 75.8885 105.395 75.6822 104.981C75.4758 104.567 74.7206 103.1 74.7206 103.1C74.7206 103.1 75.5461 104.161 76.3671 104.044C77.1882 103.928 77.3989 103.984 77.4692 103.514C77.4337 102.915 77.3173 102.322 77.1223 101.746C77.1223 101.746 78.703 102.276 79.3177 101.746C79.517 101.583 79.6557 101.373 79.7167 101.143C79.7776 100.913 79.7579 100.672 79.6601 100.452C79.5943 100.275 77.737 96.6897 77.737 96.6897C77.737 96.6897 81.3813 97.3932 81.6535 97.3932C81.986 97.3761 82.3039 97.2705 82.5629 97.0911C82.8219 96.9117 83.009 96.6674 83.098 96.3925C83.3703 95.5686 80.3495 94.5679 77.8292 92.9803C75.309 91.3928 72.4682 90.7419 71.3003 90.7419C70.1324 90.7419 64.1566 90.3695 63.5902 91.2536Z" fill="white"/>
<path d="M61.4919 119.408L61.4656 119.239C61.4656 119.213 60.9826 116.346 60.7104 115.187C60.5479 114.476 60.5962 110.816 60.6401 107.588C60.6665 105.707 60.6928 103.74 60.6401 103.544C60.504 103.202 62.2164 97.1034 63.2482 93.4994L63.4063 91.1632C63.8453 90.4634 66.5105 90.4108 70.3831 90.5123C70.787 90.5123 71.1031 90.5311 71.2919 90.5311C72.4599 90.5311 75.3006 91.1481 77.9482 92.7883C78.8483 93.3526 79.8143 93.8455 80.6661 94.2932C82.3389 95.1396 83.5463 95.7528 83.3224 96.4224C83.2167 96.7342 83.0007 97.0102 82.7043 97.2123C82.4078 97.4144 82.0454 97.5328 81.6671 97.551C81.4256 97.551 79.1776 97.1222 78.1282 96.919C78.6112 97.852 79.823 100.211 79.8845 100.361C79.998 100.618 80.021 100.897 79.9507 101.165C79.8805 101.432 79.72 101.676 79.4894 101.866C78.9756 102.306 77.9965 102.156 77.4477 102.02C77.6078 102.51 77.6905 103.016 77.6936 103.525C77.6145 104.067 77.3072 104.104 76.7496 104.172L76.4159 104.217C76.0586 104.249 75.701 104.16 75.4192 103.969C75.608 104.345 75.8012 104.721 75.8934 104.898L75.9636 105.034C76.2007 105.478 76.6398 106.309 75.9153 106.933C75.1909 107.558 73.9527 107.08 73.6102 106.933L72.7321 107.171C72.5664 107.958 72.2923 108.726 71.9154 109.458C71.4853 110.21 70.8405 110.857 70.0406 111.339L71.4105 115.913L71.3095 115.992C70.0626 116.934 68.7128 117.77 67.2789 118.49C65.5226 119.265 61.8476 119.39 61.6895 119.393L61.4919 119.408ZM63.8234 91.3099L63.6873 93.5671C62.6116 97.3291 61.0529 103.047 61.0748 103.472C61.1275 103.608 61.1187 104.714 61.0748 107.611C61.0353 110.662 60.9826 114.458 61.1363 115.135C61.3734 116.135 61.7598 118.4 61.8695 119.036C62.6599 118.998 65.6411 118.821 67.0725 118.182C68.4373 117.497 69.7236 116.704 70.9143 115.812L69.5401 111.17L69.6718 111.094C70.4569 110.639 71.092 110.019 71.5159 109.292C71.8902 108.554 72.1614 107.779 72.3238 106.986V106.87L73.641 106.52L73.72 106.554C74.0844 106.715 75.125 107.05 75.5948 106.648C76.0646 106.245 75.8319 105.696 75.5553 105.169L75.4807 105.03C75.2743 104.616 74.5191 103.149 74.5191 103.149L74.9011 102.968C75.1118 103.232 75.7792 103.905 76.3324 103.826L76.6793 103.781C77.215 103.717 77.215 103.717 77.2501 103.461C77.2196 102.887 77.1061 102.318 76.912 101.768L76.7979 101.392L77.2062 101.527C77.6057 101.663 78.7473 101.93 79.1688 101.569C79.3406 101.431 79.4601 101.253 79.5118 101.056C79.5634 100.859 79.5449 100.654 79.4586 100.467C79.4059 100.331 78.2819 98.1492 77.5443 96.7046L77.3643 96.3623L77.8033 96.445C79.1864 96.7121 81.4564 97.141 81.6759 97.1485C81.9595 97.1292 82.2293 97.0359 82.4491 96.8812C82.6689 96.7265 82.8281 96.5178 82.9053 96.2832C83.0326 95.907 81.7769 95.2525 80.4465 94.5791C79.5684 94.1389 78.6112 93.6461 77.6936 93.0743C75.2699 91.5694 72.495 90.8735 71.2963 90.8735C71.1031 90.8735 70.7826 90.8735 70.3743 90.8509C68.8595 90.8547 64.3459 90.7079 63.8234 91.3099Z" fill="#263238"/>
<path d="M77.1446 96.464C76.4465 95.9976 74.5102 94.7486 73.9877 94.6131C73.5487 94.5003 69.597 94.1128 67.2129 93.8607C66.0625 93.7479 65.5137 93.6952 65.2547 93.6425C65.022 93.5974 65.0263 93.5485 65.0307 93.462V93.2852H65.2415V93.4507L65.2854 93.2889C65.3732 93.2889 66.2426 93.3905 67.248 93.4883C70.4752 93.8043 73.6584 94.1203 74.1019 94.2407C74.8044 94.4213 77.1403 95.9787 77.4037 96.1556L77.1446 96.464Z" fill="#263238"/>
<path d="M76.9553 101.828C76.0377 100.53 74.4043 98.4118 73.9082 98.2576C73.3242 98.077 67.6075 97.223 64.6877 96.7942L64.758 96.418C65.1093 96.4669 73.3067 97.6594 74.075 97.8964C74.8434 98.1334 76.9378 101.049 77.3461 101.628L76.9553 101.828Z" fill="#263238"/>
<path d="M74.1284 102.935C73.5566 102.494 72.9293 102.109 72.258 101.787C71.6784 101.558 66.4579 100.501 63.7795 99.9739L63.8805 99.5977C64.1967 99.6616 71.674 101.136 72.4424 101.437C73.1521 101.775 73.815 102.18 74.4182 102.645L74.1284 102.935Z" fill="#263238"/>
<path d="M73.0784 106.403L70.7338 104.567L66.3563 104.454L65.3201 105.12L65.0566 104.819L66.2158 104.074L70.9094 104.195L73.3726 106.125L73.0784 106.403Z" fill="#263238"/>
<path d="M58.2556 118.892L59.0503 121.698C59.0503 121.698 60.9339 122.123 64.7011 120.848C67.3619 119.87 69.8887 118.644 72.2356 117.191L71.937 115.152C71.937 115.152 65.3949 119.234 58.2556 118.892Z" fill="white"/>
<path d="M59.9548 121.952C59.6319 121.96 59.3091 121.935 58.9933 121.877L58.8659 121.847L57.9878 118.691H58.2864C65.2632 119.022 71.7614 115.027 71.8272 114.985L72.1258 114.801L72.4858 117.265L72.3805 117.329C72.3453 117.351 68.5474 119.737 64.7977 121.004C63.267 121.577 61.6242 121.899 59.9548 121.952ZM59.2304 121.531C59.7002 121.595 61.5135 121.723 64.6177 120.67C67.2231 119.715 69.6995 118.521 72.0029 117.107L71.7658 115.482C70.409 116.257 64.688 119.274 58.5366 119.089L59.2304 121.531Z" fill="#263238"/>
<path d="M72.4331 116.516C72.4331 116.516 67.476 119.236 63.9064 120.169C61.5152 120.757 59.0508 121.099 56.5652 121.188C56.5652 121.188 60.9295 138.35 62.317 140.984C63.7044 143.617 65.9437 151.179 65.9437 151.179H90.9706C90.9706 151.179 76.0993 126.541 75.6032 124.672C75.1071 122.802 72.4331 116.516 72.4331 116.516Z" fill="#263238"/>
<path d="M90.974 151.364H65.7847L65.7408 151.221C65.7408 151.146 63.4927 143.645 62.1272 141.064C60.7617 138.483 56.5423 121.934 56.3623 121.234L56.3052 121.012H56.573C59.0362 120.922 61.4782 120.582 63.8484 120C67.3609 119.086 72.2741 116.396 72.3224 116.37L72.5551 116.242L72.6473 116.464C72.7571 116.72 75.3344 122.784 75.8262 124.643C76.3179 126.501 91.0267 150.856 91.1936 151.105L91.3604 151.379L90.974 151.364ZM66.1184 150.988H90.614C88.8972 148.144 75.8657 126.497 75.3915 124.71C74.9524 123.07 72.7966 117.939 72.318 116.81C71.295 117.356 67.0887 119.541 63.9757 120.358C61.6514 120.927 59.2593 121.269 56.8452 121.377C57.3589 123.382 61.2359 138.487 62.5224 140.913C63.8089 143.34 65.7847 149.92 66.1184 150.988Z" fill="#263238"/>
<path d="M82.593 52.8592C82.593 52.8592 77.9037 62.2002 78.4877 63.3928C79.0716 64.5853 81.4207 66.5077 80.3669 67.8131C79.3131 69.1186 73.2145 73.4374 74.3868 75.6494C75.5591 77.8615 78.6062 77.9593 78.6062 77.9593C78.6062 77.9593 78.0223 80.8711 78.8389 81.5746L79.66 82.2781C79.66 82.2781 79.66 83.7829 80.2483 84.4864C80.8367 85.1899 82.3559 85.7918 82.3559 85.7918C82.3559 85.7918 79.4273 89.5087 80.0112 90.7125C80.5952 91.9163 87.2822 93.8274 90.1098 94.4294C92.9374 95.0313 97.9604 94.23 97.9604 94.23L99.3698 100.249L125.977 86.8903L121.876 77.9518C121.876 77.9518 128.902 72.5269 129.262 64.3897C129.622 56.2525 126.68 48.6231 121.407 45.9107C116.133 43.1983 108.981 43.7024 108.981 43.7024C107.658 42.5359 105.966 41.7247 104.114 41.368C102.261 41.0112 100.327 41.1243 98.5487 41.6935C92.0856 43.6046 82.593 52.8592 82.593 52.8592Z" fill="white"/>
<path d="M99.1991 100.548L97.7765 94.4459C96.771 94.5926 92.5735 95.1531 90.0401 94.6114C87.6472 94.096 80.4816 92.1585 79.8098 90.7854C79.2522 89.638 81.408 86.6848 82.0359 85.8647C81.286 85.5599 80.6167 85.1273 80.0688 84.5931C79.5244 83.9386 79.4541 82.682 79.4454 82.3359L78.6858 81.6851C77.913 81.023 78.2467 78.826 78.3521 78.1074C77.5793 78.0322 75.2171 77.6447 74.1853 75.7035C73.2501 73.9354 76.4992 71.0499 78.6463 69.1388C79.1932 68.6826 79.7064 68.1976 80.183 67.6867C80.846 66.8666 79.9415 65.7079 79.1424 64.6771C78.815 64.2882 78.5285 63.8753 78.2862 63.4431C77.6847 62.1979 81.9085 53.7108 82.3915 52.7477L82.4266 52.6988C82.8174 52.3226 92.0335 43.3991 98.4614 41.4956C100.266 40.9299 102.221 40.817 104.098 41.1702C105.974 41.5234 107.694 42.3279 109.056 43.4894C109.974 43.4405 116.586 43.1998 121.508 45.7466C126.636 48.38 129.85 55.8777 129.468 64.3949C129.139 71.949 123.032 77.2497 122.123 77.9983L126.237 86.967L126.074 87.0497L99.1991 100.548ZM98.1233 94.0095L99.5108 99.9572L125.692 86.8127L121.605 77.9043L121.714 77.814C121.785 77.7613 128.683 72.3478 129.029 64.3911C129.389 56.0056 126.276 48.6471 121.28 46.0777C116.13 43.4443 109.056 43.8882 108.986 43.892H108.876L108.815 43.8318C107.513 42.7031 105.859 41.9189 104.052 41.5728C102.244 41.2266 100.358 41.333 98.6195 41.8793C92.4725 43.7039 83.3179 52.4468 82.813 52.9509C81.0128 56.5361 78.3213 62.5026 78.7253 63.3227C78.957 63.7329 79.2287 64.1255 79.5376 64.4965C80.4157 65.6251 81.408 66.8929 80.5782 67.9237C80.0853 68.4519 79.556 68.9544 78.9931 69.4285C77.0524 71.1515 73.8033 74.0369 74.6024 75.5756C75.7089 77.656 78.6023 77.7726 78.6331 77.7764H78.8834L78.8394 77.9871C78.6858 78.7696 78.4004 80.9177 79.0151 81.4368L79.8932 82.1892V82.2682C79.8932 82.2682 79.8932 83.7204 80.4421 84.3674C80.9909 85.0145 82.4486 85.6051 82.4618 85.6126L82.6989 85.7029L82.554 85.8873C81.7549 86.8993 79.7878 89.7208 80.2313 90.6312C80.7494 91.6996 87.0632 93.5731 90.163 94.2389C92.8984 94.822 97.8731 94.0433 97.9214 94.0358L98.1233 94.0095Z" fill="#263238"/>
<path d="M80.4807 63.2929C80.4807 63.2929 80.4807 64.3952 82.0043 63.8949C83.5278 63.3945 84.3489 62.4879 85.5168 62.6873C86.6848 62.8866 88.2127 63.3907 87.2731 61.9875C86.3335 60.5843 84.1074 61.1824 82.8166 61.6828C81.9234 62.0845 81.13 62.6314 80.4807 63.2929Z" fill="#263238"/>
<path d="M81.3062 64.2142C81.0942 64.2197 80.8854 64.1684 80.7091 64.0674C80.5732 63.9744 80.4632 63.8566 80.3872 63.7225C80.3113 63.5884 80.2712 63.4415 80.27 63.2925V63.2248L80.3227 63.1721C80.9942 62.4868 81.8181 61.9229 82.7464 61.513C85.0383 60.6177 86.698 60.7606 87.4795 61.8892C87.8176 62.3971 87.8879 62.7169 87.6991 62.9313C87.4224 63.2511 86.7594 63.1157 85.9867 62.9652L85.4861 62.8674C84.8363 62.7583 84.2875 63.0404 83.5938 63.3978C83.1179 63.6595 82.6153 63.8837 82.0922 64.0674C81.8427 64.1567 81.5764 64.2064 81.3062 64.2142ZM80.7135 63.3527C80.7199 63.4316 80.7454 63.5085 80.7885 63.5785C80.8316 63.6484 80.8913 63.7099 80.9637 63.759C81.1177 63.816 81.2849 63.8419 81.4524 63.8348C81.6199 63.8276 81.7832 63.7875 81.9297 63.7176C82.4298 63.5433 82.9103 63.3305 83.3654 63.0818C84.1075 62.7056 84.7529 62.3633 85.5608 62.5025L86.0745 62.6003C86.4784 62.683 87.2293 62.8335 87.3346 62.7094C87.3346 62.7094 87.4268 62.5927 87.0844 62.0773C86.2326 60.802 84.1075 61.3927 82.9132 61.8554C82.0749 62.2293 81.3282 62.7376 80.7135 63.3527Z" fill="#263238"/>
<path d="M83.2435 71.6174C82.7693 71.6174 82.3214 71.2148 81.878 70.3947C81.4374 69.5104 81.1134 68.5868 80.912 67.6409C80.6852 66.7007 80.5835 65.7416 80.6091 64.7818C80.6662 63.7886 80.9515 63.277 81.4872 63.1754C82.0229 63.0738 82.5146 63.4801 82.9976 64.383C83.4418 65.2727 83.7659 66.2029 83.9636 67.1556C84.189 68.0972 84.2892 69.0576 84.2621 70.0185C84.2094 71.0079 83.924 71.5233 83.384 71.6249L83.2435 71.6174ZM81.6628 63.9541C81.4697 64.2739 81.3248 65.5154 81.777 67.498C82.2292 69.4805 82.8966 70.5866 83.2128 70.8236C83.4059 70.5038 83.5464 69.2623 83.0986 67.2798C82.6507 65.2934 81.979 64.1911 81.6628 63.9541Z" fill="#263238"/>
<path d="M105.769 64.7307L83.3796 66.0352L83.4392 66.7858L105.828 65.4814L105.769 64.7307Z" fill="#263238"/>
<path d="M80.1292 79.0597C79.8281 79.0033 79.5166 79.0007 79.2143 79.0522C78.9119 79.1037 78.6252 79.2081 78.3722 79.3589C78.1191 79.5097 77.9051 79.7036 77.7435 79.9285C77.582 80.1535 77.4764 80.4046 77.4333 80.6661C77.3486 80.9771 77.3398 81.2997 77.4077 81.6137C77.4755 81.9276 77.6185 82.2262 77.8276 82.4905C78.0367 82.7548 78.3074 82.9792 78.6227 83.1495C78.9379 83.3198 79.2909 83.4324 79.6594 83.4801C80.2478 83.4801 81.3015 82.8782 83.172 83.5817C85.0424 84.2852 86.6845 85.188 86.6845 86.896C86.6845 88.6039 85.982 89.8078 84.4584 89.7062C82.9349 89.6046 81.8811 87.1969 81.06 87.4979C80.239 87.7989 78.1271 90.6129 79.5365 92.5202C80.9459 94.4275 90.32 98.0428 93.3671 97.945C96.4143 97.8472 107.786 89.4052 109.31 86.2828C110.833 83.1603 108.84 81.8624 108.489 80.9595C108.137 80.0567 104.62 72.4198 104.62 70.2115C104.62 68.0032 106.263 62.9809 109.542 62.7777C112.822 62.5746 114.811 68.6051 113.766 70.8134C113.207 72.0659 112.278 73.1728 111.07 74.0262C111.07 74.0262 110.363 80.4554 112.357 81.5502C114.35 82.6449 119.623 84.0594 122.087 84.161C124.55 84.2626 125.485 84.5635 126.776 82.4531C128.067 80.3426 125.836 79.4434 126.543 78.2358C127.25 77.0282 132.989 71.088 133.568 64.7754C134.148 58.4627 132.277 53.3276 129.112 49.3098C125.946 45.2919 119.149 41.5751 116.919 41.2741C115.285 41.0174 113.679 40.6475 112.115 40.1681C112.115 40.1681 114.574 39.2652 112.699 37.8582C110.825 36.4512 107.075 35.7477 100.976 37.4557C94.8775 39.1636 92.568 41.1989 92.568 41.1989C92.568 41.1989 92.9193 38.4865 89.4023 39.6941C85.8854 40.9017 79.7911 46.3227 80.621 49.8515C81.4508 53.3802 83.3169 53.2674 85.8898 52.5639C88.4627 51.8604 92.4539 50.3556 94.2321 50.555C96.0103 50.7544 97.1607 50.8559 93.9994 53.1658C90.8381 55.4757 86.4957 57.8871 88.8403 58.9932C91.185 60.0992 97.7491 63.2104 98.5701 65.5203C99.3912 67.8301 95.7557 84.003 94.4648 85.9103C93.174 87.8177 90.7152 88.4196 89.196 87.0126C87.6768 85.6056 86.3816 81.9941 83.8042 80.384C81.2269 78.7738 80.1292 79.0597 80.1292 79.0597Z" fill="#263238"/>
<path d="M93.2492 98.1329C89.943 98.1329 80.7445 94.5026 79.3571 92.6178C78.637 91.6397 78.8214 90.5148 79.098 89.7436C79.5371 88.5699 80.4152 87.5278 80.9816 87.3246C81.548 87.1215 82.0046 87.6369 82.571 88.2238C83.1374 88.8106 83.7697 89.4728 84.4854 89.5217C84.6981 89.5419 84.9134 89.5232 85.117 89.4668C85.3206 89.4104 85.5079 89.3175 85.6665 89.1944C86.189 88.7805 86.4744 87.9642 86.4744 86.8958C86.4744 85.248 84.8498 84.4128 83.0891 83.7545C82.2034 83.3917 81.1905 83.3285 80.2528 83.5777C80.0601 83.6279 79.8611 83.6582 79.66 83.668C78.9159 83.5824 78.2394 83.2535 77.772 82.75C77.4972 82.4566 77.3045 82.1132 77.2086 81.746C77.1127 81.3789 77.1162 80.9978 77.2188 80.632C77.2675 80.342 77.3849 80.0635 77.5638 79.8138C77.7428 79.564 77.9795 79.3483 78.2594 79.1799C78.8172 78.8901 79.4769 78.7795 80.121 78.8676C80.4064 78.815 81.5436 78.751 83.8926 80.2144C85.5084 81.2189 86.6105 82.9682 87.5852 84.5069C88.0595 85.3458 88.6412 86.1369 89.3195 86.8657C89.5801 87.1212 89.9093 87.3184 90.2788 87.4403C90.6484 87.5623 91.047 87.6052 91.4402 87.5654C92.0345 87.4753 92.5964 87.2688 93.0823 86.9622C93.5682 86.6555 93.9649 86.2568 94.2415 85.7973C95.5587 83.8711 99.0932 67.7396 98.3248 65.5577C97.5213 63.3005 90.8607 60.1667 88.7004 59.1359C88.4943 59.0588 88.3147 58.9378 88.1787 58.7843C88.0426 58.6309 87.9547 58.4502 87.9233 58.2594C87.8091 57.1759 89.7893 55.8065 92.0857 54.2265C92.6652 53.8239 93.2668 53.4101 93.82 53.0038C95.506 51.7737 95.7826 51.2921 95.7168 51.1228C95.6509 50.9535 94.8957 50.8256 94.2327 50.7466H94.1668C92.9287 50.6037 90.4304 51.3786 88.2306 52.0633C87.4052 52.3191 86.628 52.5599 85.9431 52.748C84.4107 53.1618 83.1901 53.3387 82.2154 52.8458C81.3373 52.4019 80.7489 51.4614 80.3845 49.8926C79.5063 46.1946 85.7587 40.751 89.3107 39.5358C90.5314 39.1183 91.4534 39.107 92.0637 39.502C92.2808 39.6642 92.4562 39.8634 92.5787 40.0868C92.7011 40.3103 92.768 40.5531 92.775 40.7999C93.6531 40.1829 96.1295 38.6668 100.929 37.3238C108.116 35.3073 111.492 36.7331 112.862 37.7602C113.455 38.2041 113.71 38.6555 113.626 39.107C113.56 39.3316 113.441 39.5423 113.277 39.726C113.112 39.9098 112.905 40.0627 112.669 40.1754C114.073 40.5868 115.512 40.9063 116.972 41.1309C119.194 41.4319 126.087 45.1525 129.31 49.2493C132.822 53.7224 134.346 58.9666 133.802 64.8354C133.327 69.9968 129.477 74.8611 127.624 77.1973C127.207 77.724 126.877 78.1416 126.746 78.3635C126.491 78.7999 126.697 79.1987 126.952 79.7028C127.317 80.4138 127.769 81.2979 126.978 82.5845C125.758 84.5859 124.783 84.5295 122.803 84.4279L122.087 84.394C119.58 84.2925 114.245 82.8591 112.248 81.7606C110.167 80.6057 110.829 74.3194 110.86 74.0523V73.9658L110.939 73.9168C112.117 73.0835 113.024 72.0042 113.574 70.7831C114.298 69.2783 113.534 66.043 112.037 64.271C111.519 63.6578 110.667 62.9393 109.574 63.007C106.461 63.1989 104.854 68.1723 104.854 70.2526C104.854 72.0471 107.255 77.5735 108.283 79.9323C108.494 80.4289 108.652 80.7825 108.722 80.9405C108.824 81.1619 108.955 81.3726 109.113 81.5688C109.771 82.4867 110.768 83.8749 109.552 86.3954C107.932 89.7022 96.4719 98.0577 93.416 98.163L93.2492 98.1329ZM81.2143 87.6595C81.194 87.6559 81.1731 87.6559 81.1528 87.6595C80.7577 87.8062 79.9235 88.7279 79.5195 89.8414C79.3368 90.2569 79.2611 90.7012 79.2975 91.144C79.3339 91.5869 79.4815 92.0177 79.7303 92.4071C81.0475 94.2016 90.3426 97.8583 93.3677 97.7454C96.248 97.6476 107.58 89.3486 109.117 86.2073C110.263 83.8674 109.376 82.6297 108.726 81.723C108.548 81.5029 108.401 81.2655 108.287 81.0158C108.226 80.8615 108.072 80.5117 107.848 80.0226C106.812 77.645 104.393 72.0735 104.393 70.2113C104.393 67.7321 106.202 62.7926 109.521 62.5894C110.544 62.5255 111.532 63.0183 112.371 64.0115C113.942 65.8699 114.728 69.2783 113.96 70.8847C113.393 72.1412 112.468 73.256 111.269 74.1275C111.084 75.9446 110.948 80.5606 112.467 81.4032C114.421 82.4829 119.637 83.8824 122.087 83.984L122.812 84.0178C124.757 84.1232 125.486 84.1608 126.574 82.3776C127.264 81.249 126.891 80.5229 126.535 79.8194C126.254 79.2739 125.991 78.7548 126.337 78.1604C126.615 77.7445 126.919 77.3414 127.246 76.9528C129.073 74.6391 132.88 69.8351 133.349 64.7714C133.885 58.9892 132.397 53.8239 128.932 49.4262C125.762 45.4046 119.044 41.7629 116.889 41.4695C115.246 41.2042 113.631 40.8268 112.059 40.3409L111.536 40.1791L112.046 39.991C112.046 39.991 113.082 39.6148 113.196 38.9979C113.253 38.6856 113.042 38.347 112.573 37.9972C111.255 37.0191 108.046 35.676 101.065 37.621C95.0889 39.2951 92.7223 41.2701 92.7223 41.2889L92.2832 41.6651L92.3491 41.1347C92.3491 41.1347 92.4633 40.1641 91.809 39.739C91.3349 39.4267 90.5533 39.4568 89.4864 39.8217C86.1407 40.9692 80.02 46.2924 80.8279 49.7535C81.1616 51.1905 81.7061 52.0746 82.4525 52.4583C83.2867 52.8797 84.402 52.7104 85.8201 52.3229C86.5007 52.1386 87.2735 51.8978 88.0945 51.6457C90.4523 50.9122 92.8935 50.1409 94.2415 50.3065H94.3029C95.2513 50.4156 95.9978 50.5021 96.1514 50.9498C96.3051 51.3975 95.7124 52.0784 94.1185 53.2408C93.5565 53.6509 92.955 54.0685 92.3623 54.471C90.3513 55.8592 88.2745 57.2925 88.3624 58.1766C88.3897 58.3059 88.4547 58.4272 88.5514 58.5291C88.6482 58.6311 88.7734 58.7104 88.9156 58.7597C91.1373 59.8055 97.8945 62.9882 98.7507 65.3959C99.6288 67.8826 95.8353 84.1458 94.6279 85.9365C94.3168 86.4465 93.8725 86.8881 93.3294 87.2268C92.7864 87.5655 92.1594 87.7921 91.4973 87.8889C91.035 87.9341 90.5668 87.8836 90.1321 87.7415C89.6974 87.5995 89.3088 87.3701 88.999 87.0726C88.2964 86.3212 87.694 85.5047 87.2032 84.6386C86.2548 83.1338 85.1747 81.4258 83.638 80.4703C81.2275 78.9655 80.2089 79.1912 80.2001 79.1912H80.1474H80.0903C79.5443 79.1112 78.9829 79.1992 78.5053 79.4395C78.2667 79.5864 78.0666 79.7744 77.9176 79.9914C77.7687 80.2084 77.6742 80.4497 77.6403 80.6997C77.5498 81.0117 77.5447 81.3373 77.6254 81.6513C77.7061 81.9652 77.8705 82.2588 78.1057 82.5093C78.4921 82.9224 79.0421 83.1995 79.6512 83.288C79.8164 83.2761 79.9797 83.2496 80.1386 83.209C81.1696 82.9371 82.2822 83.0069 83.256 83.4046C85.0606 84.0818 86.9046 85.0223 86.9046 86.892C86.9046 88.0846 86.5753 88.9762 85.9563 89.469C85.7535 89.6278 85.5135 89.7477 85.2522 89.8203C84.9909 89.893 84.7144 89.9169 84.4415 89.8903C83.537 89.8301 82.8389 89.1041 82.2461 88.4608C81.8685 88.0846 81.4602 87.6595 81.2143 87.6595Z" fill="#263238"/>
<path d="M107.936 74.8337V74.4575C108.984 74.3058 110.021 74.1061 111.044 73.8594L111.154 74.2356C110.094 74.4822 109.02 74.6818 107.936 74.8337Z" fill="#263238"/>
<path d="M95.6819 103.367C95.6819 103.367 90.4482 107.013 89.7105 108.551C88.9729 110.09 89.1397 113.036 89.1397 113.318C89.1397 113.6 85.131 116.188 83.7392 119.694C82.3473 123.2 82.2683 127.542 82.2683 127.542L91.3439 113.385L96.5205 104.402L95.6819 103.367Z" fill="#FCA311"/>
<path d="M82.0305 128.292V127.539C82.0305 127.494 82.1271 123.123 83.5146 119.639C84.5639 117.006 87.0754 114.865 88.2785 113.842C88.4961 113.667 88.7028 113.482 88.8975 113.289V113.183C88.8361 111.02 89.0337 109.44 89.4903 108.485C90.2367 106.92 95.3079 103.376 95.5231 103.218L95.7119 103.09L96.7305 104.403L91.5407 113.465L82.0305 128.292ZM95.6416 103.647C94.7064 104.309 90.5528 107.307 89.9338 108.624C89.6396 109.248 89.3015 110.539 89.3761 113.172V113.319C89.3761 113.462 89.2444 113.578 88.6253 114.105C87.4398 115.109 84.9811 117.197 83.9668 119.748C82.9526 122.299 82.6496 125.327 82.5442 126.738L91.1719 113.289L96.2607 104.425L95.6416 103.647Z" fill="#263238"/>
<path d="M117.526 88.3029C117.526 88.3029 94.5492 99.2503 94.9005 100.654C95.2517 102.057 96.5426 106.18 96.5426 106.18C96.5426 106.18 114.593 93.9271 117.877 92.4185C121.161 90.9099 128.076 88.7016 128.076 88.7016C128.076 88.7016 126.786 85.7899 126.434 85.4889C126.083 85.1879 120.103 87.3962 117.526 88.3029Z" fill="white"/>
<path d="M96.4146 106.502L96.3312 106.227C96.3312 106.186 95.0359 102.089 94.6847 100.694C94.61 100.389 94.4344 99.6816 105.969 93.7865C111.606 90.9086 117.358 88.1435 117.42 88.1435L118.855 87.6356C125.064 85.4236 126.271 85.1188 126.565 85.3784C126.934 85.6907 128.041 88.1661 128.26 88.6589L128.335 88.8357L128.128 88.8997C128.058 88.9222 121.191 91.123 117.96 92.6052C114.728 94.0875 96.8361 106.224 96.6561 106.348L96.4146 106.502ZM117.622 88.4708C106.724 93.6624 95.1369 99.6854 95.1149 100.618C95.4091 101.788 96.3751 104.907 96.6692 105.851C98.9875 104.283 114.671 93.6661 117.771 92.2516C120.713 90.9011 126.614 88.9749 127.79 88.5912C127.37 87.5824 126.873 86.5984 126.302 85.6455H126.276C125.556 85.6455 121.34 87.1503 119.049 87.9629L117.622 88.4708Z" fill="#263238"/>
<path d="M97.5956 102.264L79.1942 132.292L65.9475 151.177H145.305C145.305 151.177 144.721 135.509 143.548 125.566C142.376 115.623 133.841 96.237 132.058 94.2431C130.275 92.2493 129.832 91.2335 129.832 91.2335C129.832 91.2335 129.481 88.017 128.19 87.5167C126.899 87.0163 114.127 90.7106 97.5956 102.264Z" fill="#263238"/>
<path d="M145.532 151.365H65.5562L79.0048 132.197L97.4237 102.143L97.4589 102.12C113.612 90.8339 126.683 86.6957 128.281 87.3278C129.599 87.8469 129.994 90.7136 130.038 91.1688C130.646 92.2154 131.382 93.2041 132.233 94.1182C134.046 96.1873 142.604 115.705 143.767 125.55C144.931 135.395 145.524 151.015 145.524 151.173L145.532 151.365ZM66.3333 150.988H145.08C145.006 149.153 144.417 134.812 143.324 125.584C142.169 115.802 133.664 96.3904 131.877 94.3401C130.09 92.2898 129.643 91.3305 129.625 91.2816V91.229C129.533 90.3675 129.076 88.0425 128.115 87.6663C126.942 87.2111 114.328 90.8302 97.7838 102.383L79.3956 132.382L66.3333 150.988Z" fill="#263238"/>
<path d="M162.969 56.0947C180.232 56.0947 194.226 44.1041 194.226 29.313C194.226 14.5218 180.232 2.53125 162.969 2.53125C145.706 2.53125 131.712 14.5218 131.712 29.313C131.712 44.1041 145.706 56.0947 162.969 56.0947Z" fill="#263238"/>
<path d="M162.969 56.2835C156.743 56.2857 150.656 54.7058 145.478 51.7437C140.3 48.7816 136.264 44.5702 133.879 39.6423C131.495 34.7144 130.869 29.2914 132.082 24.059C133.296 18.8266 136.292 14.02 140.694 10.247C145.096 6.47411 150.704 3.90436 156.81 2.86281C162.917 1.82125 169.246 2.35469 174.999 4.39564C180.751 6.43659 185.668 9.89338 189.127 14.3288C192.586 18.7642 194.433 23.979 194.433 29.3136C194.424 36.4621 191.106 43.3156 185.208 48.3714C179.31 53.4272 171.312 56.2725 162.969 56.2835ZM162.969 2.71996C156.83 2.71773 150.828 4.27552 145.722 7.19631C140.616 10.1171 136.636 14.2697 134.285 19.1288C131.934 23.988 131.317 29.3354 132.513 34.4949C133.709 39.6543 136.664 44.3938 141.004 48.1142C145.345 51.8345 150.875 54.3684 156.896 55.3954C162.917 56.4225 169.158 55.8965 174.831 53.884C180.503 51.8715 185.351 48.463 188.762 44.0894C192.173 39.7159 193.994 34.5738 193.994 29.3136C193.985 22.2649 190.713 15.5071 184.897 10.5218C179.082 5.53661 171.196 2.73091 162.969 2.71996Z" fill="#263238"/>
<path d="M141.135 54.0451C143.53 54.0451 145.473 52.4383 145.473 50.4561C145.473 48.474 143.53 46.8672 141.135 46.8672C138.739 46.8672 136.797 48.474 136.797 50.4561C136.797 52.4383 138.739 54.0451 141.135 54.0451Z" fill="#263238"/>
<path d="M141.134 54.2322C140.273 54.2042 139.442 53.96 138.742 53.5299C138.042 53.0999 137.505 52.503 137.198 51.8136C136.892 51.1242 136.828 50.3727 137.016 49.6526C137.204 48.9325 137.634 48.2756 138.255 47.7637C138.875 47.2518 139.657 46.9074 140.504 46.7734C141.351 46.6395 142.225 46.7219 143.017 47.0103C143.81 47.2988 144.486 47.7806 144.962 48.3958C145.437 49.011 145.691 49.7324 145.692 50.4702C145.665 51.4857 145.171 52.451 144.317 53.1557C143.464 53.8604 142.319 54.2474 141.134 54.2322ZM141.134 47.0543C140.36 47.0823 139.613 47.3045 138.986 47.6931C138.358 48.0818 137.878 48.6198 137.604 49.2404C137.331 49.861 137.276 50.5369 137.447 51.184C137.617 51.8311 138.006 52.4209 138.565 52.8802C139.124 53.3395 139.828 53.6481 140.589 53.7676C141.351 53.887 142.137 53.8122 142.849 53.5522C143.561 53.2923 144.169 52.8588 144.596 52.3055C145.024 51.7522 145.252 51.1036 145.252 50.4401C145.226 49.5244 144.778 48.6548 144.007 48.0206C143.235 47.3865 142.203 47.0392 141.134 47.0543Z" fill="#263238"/>
<path d="M137.819 55.0458C137.841 55.5799 137.677 56.1074 137.346 56.5607C137.016 57.014 136.535 57.3724 135.965 57.5899C135.395 57.8074 134.763 57.8742 134.148 57.7815C133.534 57.6889 132.966 57.4411 132.517 57.07C132.068 56.6989 131.759 56.2214 131.629 55.6987C131.499 55.1759 131.554 54.6319 131.788 54.1362C132.021 53.6406 132.422 53.216 132.939 52.9169C133.456 52.6178 134.065 52.4578 134.689 52.4575C135.093 52.451 135.494 52.5129 135.871 52.6395C136.247 52.7661 136.59 52.955 136.881 53.1954C137.171 53.4358 137.404 53.723 137.565 54.0405C137.726 54.358 137.813 54.6996 137.819 55.0458Z" fill="#263238"/>
<path d="M134.689 57.8168C134.053 57.7983 133.438 57.6198 132.92 57.3036C132.401 56.9873 132.003 56.5473 131.775 56.0384C131.546 55.5296 131.498 54.9743 131.635 54.442C131.773 53.9097 132.09 53.4239 132.548 53.0451C133.006 52.6663 133.583 52.4114 134.209 52.3121C134.835 52.2128 135.481 52.2735 136.066 52.4867C136.652 52.6999 137.151 53.0561 137.502 53.5109C137.853 53.9657 138.04 54.499 138.039 55.0442C138.032 55.4147 137.939 55.7804 137.767 56.1202C137.595 56.4601 137.346 56.7676 137.035 57.0251C136.724 57.2825 136.356 57.485 135.954 57.6208C135.552 57.7567 135.122 57.8232 134.689 57.8168ZM134.689 52.644C134.141 52.6624 133.61 52.8187 133.164 53.0934C132.718 53.3681 132.376 53.7491 132.181 54.189C131.986 54.6288 131.946 55.1082 132.066 55.5674C132.186 56.0266 132.461 56.4455 132.857 56.7718C133.253 57.0981 133.752 57.3175 134.292 57.4028C134.832 57.488 135.389 57.4353 135.895 57.2512C136.4 57.0671 136.832 56.7597 137.135 56.3673C137.438 55.9749 137.6 55.5148 137.6 55.0442C137.585 54.3952 137.27 53.778 136.725 53.3279C136.179 52.8779 135.447 52.6319 134.689 52.644Z" fill="#263238"/>
<path d="M161.771 54.2979C179.034 54.2979 193.028 42.3073 193.028 27.5161C193.028 12.725 179.034 0.734375 161.771 0.734375C144.508 0.734375 130.513 12.725 130.513 27.5161C130.513 42.3073 144.508 54.2979 161.771 54.2979Z" fill="white"/>
<path d="M161.771 54.4866C155.545 54.4866 149.46 52.9048 144.283 49.9413C139.107 46.9779 135.072 42.7657 132.69 37.8376C130.308 32.9096 129.684 27.4868 130.899 22.2552C132.113 17.0235 135.111 12.218 139.513 8.44617C143.915 4.67437 149.524 2.10574 155.63 1.06511C161.736 0.0244675 168.065 0.558561 173.816 2.59985C179.568 4.64113 184.484 8.09792 187.943 12.5331C191.402 16.9683 193.248 22.1826 193.248 27.5167C193.238 34.6671 189.919 41.5224 184.018 46.5785C178.117 51.6346 170.116 54.4786 161.771 54.4866ZM161.771 0.923088C155.632 0.923088 149.631 2.48278 144.527 5.40493C139.423 8.32707 135.445 12.4804 133.096 17.3398C130.746 22.1991 130.132 27.5462 131.329 32.7049C132.527 37.8636 135.483 42.6021 139.824 46.3213C144.164 50.0405 149.695 52.5733 155.716 53.5994C161.736 54.6255 167.977 54.0989 173.648 52.0861C179.32 50.0733 184.167 46.6647 187.578 42.2914C190.988 37.9181 192.809 32.7765 192.809 27.5167C192.793 20.4694 189.518 13.7146 183.7 8.73313C177.882 3.75165 169.996 0.949853 161.771 0.941898V0.923088Z" fill="#263238"/>
<path d="M139.936 52.2482C142.332 52.2482 144.274 50.6414 144.274 48.6593C144.274 46.6771 142.332 45.0703 139.936 45.0703C137.541 45.0703 135.598 46.6771 135.598 48.6593C135.598 50.6414 137.541 52.2482 139.936 52.2482Z" fill="white"/>
<path d="M139.936 52.4354C139.076 52.4073 138.244 52.1631 137.544 51.733C136.844 51.303 136.308 50.7061 136.001 50.0167C135.694 49.3273 135.63 48.5758 135.818 47.8557C136.006 47.1356 136.437 46.4787 137.057 45.9668C137.677 45.4549 138.459 45.1105 139.306 44.9766C140.153 44.8426 141.027 44.925 141.82 45.2135C142.612 45.5019 143.288 45.9837 143.764 46.5989C144.239 47.2141 144.493 47.9355 144.494 48.6734C144.468 49.6891 143.975 50.655 143.121 51.36C142.267 52.0649 141.122 52.4515 139.936 52.4354ZM139.936 45.2575C139.163 45.2855 138.416 45.5076 137.788 45.8962C137.161 46.2849 136.68 46.823 136.407 47.4436C136.133 48.0642 136.078 48.74 136.249 49.3871C136.42 50.0342 136.809 50.624 137.367 51.0833C137.926 51.5427 138.63 51.8512 139.391 51.9707C140.153 52.0902 140.939 52.0153 141.651 51.7554C142.364 51.4954 142.971 51.0619 143.399 50.5086C143.826 49.9553 144.054 49.3067 144.055 48.6433C144.029 47.7272 143.582 46.857 142.81 46.2227C142.039 45.5883 141.005 45.2413 139.936 45.2575Z" fill="#263238"/>
<path d="M136.62 53.2332C136.641 53.7675 136.476 54.2952 136.146 54.7485C135.815 55.2019 135.334 55.5603 134.764 55.7777C134.194 55.9951 133.561 56.0616 132.947 55.9687C132.332 55.8758 131.764 55.6276 131.316 55.2562C130.867 54.8847 130.558 54.4068 130.428 53.8838C130.299 53.3608 130.355 52.8166 130.589 52.3211C130.823 51.8255 131.225 51.4011 131.742 51.1025C132.26 50.8038 132.869 50.6445 133.493 50.6449C133.897 50.6389 134.298 50.7012 134.674 50.828C135.049 50.9548 135.392 51.1438 135.682 51.3842C135.973 51.6246 136.205 51.9115 136.366 52.2288C136.526 52.5461 136.613 52.8874 136.62 53.2332Z" fill="white"/>
<path d="M133.494 56.0239C132.858 56.0062 132.242 55.8284 131.723 55.5128C131.204 55.1971 130.805 54.7576 130.576 54.2489C130.347 53.7403 130.298 53.1852 130.434 52.6527C130.571 52.1202 130.888 51.634 131.345 51.2547C131.802 50.8754 132.379 50.6198 133.005 50.5198C133.63 50.4198 134.276 50.4798 134.862 50.6923C135.448 50.9048 135.948 51.2605 136.3 51.7149C136.651 52.1693 136.839 52.7023 136.839 53.2475C136.824 53.9956 136.464 54.7079 135.836 55.2284C135.209 55.7489 134.367 56.035 133.494 56.0239ZM133.494 50.8474C132.945 50.8651 132.414 51.0208 131.967 51.295C131.52 51.5693 131.178 51.9501 130.982 52.3899C130.786 52.8297 130.745 53.3092 130.865 53.7687C130.985 54.2282 131.259 54.6474 131.655 54.9741C132.051 55.3008 132.55 55.5205 133.09 55.6061C133.63 55.6916 134.188 55.6391 134.694 55.4551C135.2 55.2711 135.631 54.9637 135.934 54.5712C136.238 54.1786 136.4 53.7183 136.4 53.2475C136.385 52.5993 136.071 51.9826 135.526 51.5327C134.981 51.0827 134.25 50.8363 133.494 50.8474Z" fill="#263238"/>
<path d="M175.113 23.785C175.114 21.9677 174.605 20.1769 173.627 18.5641C172.65 16.9512 171.233 15.5639 169.497 14.5195C167.762 13.4751 165.758 12.8044 163.655 12.5641C161.553 12.3239 159.414 12.5211 157.419 13.1392C155.425 13.7573 153.633 14.778 152.197 16.115C150.76 17.4519 149.721 19.0657 149.166 20.8198C148.612 22.5739 148.559 24.4167 149.011 26.1921C149.464 27.9675 150.409 29.6233 151.767 31.0194C153.71 33.0192 154.774 35.5389 154.775 38.1409V39.6946H169.045V38.1446C169.042 35.5498 170.102 33.0365 172.039 31.042C174.031 29.0097 175.12 26.439 175.113 23.785Z" fill="#FCA311"/>
<path d="M169.041 39.8783H154.771C154.713 39.8783 154.657 39.8584 154.616 39.8232C154.574 39.7879 154.551 39.74 154.551 39.6902V38.1402C154.549 35.5832 153.502 33.1075 151.592 31.1429C149.959 29.4628 148.919 27.419 148.593 25.2507C148.268 23.0824 148.669 20.8795 149.752 18.8999C150.835 16.9203 152.553 15.246 154.707 14.0731C156.86 12.9003 159.359 12.2773 161.91 12.2773C164.462 12.2773 166.96 12.9003 169.114 14.0731C171.267 15.246 172.985 16.9203 174.068 18.8999C175.151 20.8795 175.553 23.0824 175.227 25.2507C174.901 27.419 173.861 29.4628 172.228 31.1429C170.321 33.107 169.277 35.5815 169.278 38.1364V39.6939C169.277 39.7196 169.271 39.745 169.258 39.7684C169.246 39.7918 169.228 39.8128 169.206 39.8301C169.183 39.8473 169.157 39.8605 169.129 39.8688C169.101 39.8771 169.07 39.8803 169.041 39.8783ZM154.99 39.5021H168.821V38.1402C168.824 35.4946 169.912 32.9341 171.895 30.9059C174.019 28.7228 175.088 25.9253 174.881 23.0882C174.673 20.2511 173.206 17.5898 170.779 15.6509C169.479 14.6016 167.939 13.796 166.255 13.2856C164.571 12.7752 162.782 12.5711 161.001 12.6865C158.618 12.8311 156.328 13.5364 154.383 14.7247C152.438 15.913 150.914 17.5382 149.977 19.4213C149.041 21.3044 148.73 23.3723 149.078 25.3974C149.425 27.4224 150.418 29.3259 151.948 30.8983C153.928 32.9305 155.015 35.4927 155.021 38.1402L154.99 39.5021Z" fill="#263238"/>
<path d="M169.045 39.6875H154.771V42.7122H169.045V39.6875Z" fill="white"/>
<path d="M169.041 42.9053H154.771C154.713 42.9053 154.657 42.8855 154.616 42.8502C154.575 42.815 154.552 42.7671 154.552 42.7172V39.7076C154.552 39.6577 154.575 39.6099 154.616 39.5746C154.657 39.5394 154.713 39.5195 154.771 39.5195H169.041C169.099 39.5195 169.155 39.5394 169.196 39.5746C169.237 39.6099 169.261 39.6577 169.261 39.7076V42.7172C169.261 42.7671 169.237 42.815 169.196 42.8502C169.155 42.8855 169.099 42.9053 169.041 42.9053ZM154.991 42.5291H168.821V39.8957H154.991V42.5291Z" fill="#263238"/>
<path d="M154.771 42.7266H169.045V43.9756C169.045 44.2092 168.991 44.4406 168.887 44.6565C168.783 44.8724 168.63 45.0686 168.437 45.2338C168.244 45.399 168.015 45.5301 167.763 45.6195C167.511 45.709 167.241 45.755 166.968 45.755H156.843C156.293 45.755 155.764 45.5675 155.375 45.2338C154.985 44.9001 154.767 44.4475 154.767 43.9756V42.7266H154.771Z" fill="white"/>
<path d="M166.969 45.9399H156.844C156.235 45.9389 155.652 45.7312 155.223 45.3623C154.793 44.9934 154.552 44.4936 154.552 43.9724V42.7272C154.552 42.6773 154.575 42.6294 154.616 42.5942C154.657 42.5589 154.713 42.5391 154.771 42.5391H169.041C169.099 42.5391 169.155 42.5589 169.196 42.5942C169.237 42.6294 169.261 42.6773 169.261 42.7272V43.9724C169.261 44.4936 169.019 44.9934 168.59 45.3623C168.16 45.7312 167.577 45.9389 166.969 45.9399ZM154.991 42.9303V43.9874C154.991 44.4088 155.186 44.813 155.533 45.1114C155.881 45.4097 156.352 45.5778 156.844 45.5788H166.969C167.46 45.5778 167.932 45.4097 168.279 45.1114C168.626 44.813 168.821 44.4088 168.821 43.9874V42.9303H154.991Z" fill="#263238"/>
<path d="M156.57 45.7461H167.239V46.3593C167.239 46.676 167.167 46.9896 167.025 47.2821C166.884 47.5747 166.676 47.8405 166.415 48.0645C166.154 48.2884 165.844 48.466 165.502 48.5872C165.161 48.7084 164.795 48.7708 164.425 48.7708H159.384C158.638 48.7708 157.922 48.5167 157.394 48.0645C156.867 47.6122 156.57 46.9989 156.57 46.3593V45.7461Z" fill="#263238"/>
<path d="M164.426 48.9595H159.385C158.581 48.9585 157.81 48.6843 157.241 48.197C156.672 47.7097 156.352 47.049 156.351 46.3599V45.5586H167.46V46.3599C167.458 47.049 167.138 47.7097 166.57 48.197C166.001 48.6843 165.23 48.9585 164.426 48.9595ZM156.79 45.9498V46.3749C156.791 46.9643 157.065 47.5293 157.551 47.946C158.038 48.3627 158.697 48.5973 159.385 48.5983H164.426C165.113 48.5973 165.773 48.3627 166.259 47.946C166.746 47.5293 167.019 46.9643 167.02 46.3749V45.9498H156.79Z" fill="#263238"/>
<path d="M183.016 24.0325H176.983C176.924 24.0325 176.869 24.0126 176.827 23.9774C176.786 23.9421 176.763 23.8942 176.763 23.8444C176.763 23.7945 176.786 23.7466 176.827 23.7113C176.869 23.6761 176.924 23.6562 176.983 23.6562H183.016C183.074 23.6562 183.13 23.6761 183.171 23.7113C183.212 23.7466 183.235 23.7945 183.235 23.8444C183.235 23.8942 183.212 23.9421 183.171 23.9774C183.13 24.0126 183.074 24.0325 183.016 24.0325Z" fill="#263238"/>
<path d="M146.341 24.0325H140.194C140.136 24.0325 140.08 24.0126 140.039 23.9774C139.997 23.9421 139.974 23.8942 139.974 23.8444C139.974 23.7945 139.997 23.7466 140.039 23.7113C140.08 23.6761 140.136 23.6562 140.194 23.6562H146.341C146.399 23.6562 146.455 23.6761 146.496 23.7113C146.537 23.7466 146.56 23.7945 146.56 23.8444C146.559 23.8939 146.536 23.9412 146.495 23.9763C146.454 24.0114 146.399 24.0315 146.341 24.0325Z" fill="#263238"/>
<path d="M161.62 10.884C161.561 10.884 161.506 10.8642 161.464 10.8289C161.423 10.7937 161.4 10.7458 161.4 10.6959V5.5006C161.4 5.45071 161.423 5.40287 161.464 5.36759C161.506 5.33232 161.561 5.3125 161.62 5.3125C161.678 5.3125 161.734 5.33232 161.775 5.36759C161.816 5.40287 161.839 5.45071 161.839 5.5006V10.6959C161.839 10.7458 161.816 10.7937 161.775 10.8289C161.734 10.8642 161.678 10.884 161.62 10.884Z" fill="#263238"/>
<path d="M172.584 14.6381C172.556 14.638 172.527 14.6329 172.501 14.6232C172.474 14.6135 172.451 14.5994 172.431 14.5817C172.41 14.5642 172.394 14.5434 172.383 14.5205C172.371 14.4976 172.366 14.473 172.366 14.4482C172.366 14.4233 172.371 14.3987 172.383 14.3758C172.394 14.3529 172.41 14.3321 172.431 14.3146L176.606 10.7256C176.647 10.6912 176.702 10.6719 176.76 10.6719C176.817 10.6719 176.873 10.6912 176.914 10.7256C176.934 10.7431 176.95 10.7639 176.962 10.7869C176.973 10.8098 176.978 10.8344 176.978 10.8592C176.978 10.884 176.973 10.9086 176.962 10.9315C176.95 10.9545 176.934 10.9753 176.914 10.9927L172.742 14.5704C172.723 14.5903 172.699 14.6066 172.671 14.6182C172.644 14.6298 172.615 14.6366 172.584 14.6381Z" fill="#263238"/>
<path d="M146.485 37.0015C146.427 37.0013 146.371 36.9825 146.327 36.9489C146.287 36.9131 146.264 36.8652 146.264 36.8153C146.264 36.7654 146.287 36.7176 146.327 36.6818L150.564 33.0514C150.585 33.0339 150.609 33.02 150.636 33.0105C150.663 33.001 150.691 32.9961 150.72 32.9961C150.749 32.9961 150.778 33.001 150.805 33.0105C150.831 33.02 150.856 33.0339 150.876 33.0514C150.897 33.069 150.913 33.0898 150.924 33.1127C150.935 33.1356 150.941 33.1602 150.941 33.185C150.941 33.2098 150.935 33.2343 150.924 33.2572C150.913 33.2802 150.897 33.301 150.876 33.3185L146.639 36.9489C146.597 36.9817 146.542 37.0004 146.485 37.0015Z" fill="#263238"/>
<path d="M150.525 14.5348C150.467 14.5351 150.412 14.5162 150.371 14.4821L146.314 11.006C146.273 10.9706 146.25 10.9226 146.25 10.8725C146.25 10.8224 146.273 10.7743 146.314 10.7389C146.355 10.7035 146.411 10.6836 146.47 10.6836C146.528 10.6836 146.584 10.7035 146.626 10.7389L150.678 14.215C150.709 14.2413 150.729 14.2746 150.737 14.3107C150.745 14.3469 150.741 14.3843 150.725 14.4183C150.708 14.4524 150.681 14.4815 150.645 14.5022C150.61 14.523 150.568 14.5343 150.525 14.5348Z" fill="#263238"/>
<path d="M176.759 37.0002C176.702 36.9997 176.647 36.9809 176.605 36.9475L172.566 33.4865C172.546 33.4689 172.529 33.4481 172.518 33.4252C172.507 33.4023 172.501 33.3777 172.501 33.3529C172.501 33.3281 172.507 33.3036 172.518 33.2807C172.529 33.2577 172.546 33.2369 172.566 33.2194C172.587 33.2018 172.611 33.1879 172.638 33.1784C172.664 33.1689 172.693 33.1641 172.722 33.1641C172.751 33.1641 172.78 33.1689 172.806 33.1784C172.833 33.1879 172.857 33.2018 172.878 33.2194L176.913 36.6804C176.943 36.7067 176.963 36.74 176.972 36.7761C176.98 36.8123 176.975 36.8497 176.959 36.8837C176.943 36.9178 176.915 36.947 176.879 36.9677C176.844 36.9884 176.802 36.9997 176.759 37.0002Z" fill="#263238"/>
<path d="M56.5696 120.895L59.8406 119.793L60.0382 121.151L56.5696 120.895Z" fill="white"/>
<path d="M60.2923 121.359L55.6162 121.017L60.0069 119.512L60.2923 121.359ZM57.5218 120.78L59.7874 120.945L59.66 120.057L57.5218 120.78Z" fill="#263238"/>
<path d="M115.106 49.9352V48.7652H113.538C113.46 48.1146 113.258 47.4793 112.941 46.8842L114.307 46.2108L113.644 45.1838L112.278 45.8572C111.832 45.3239 111.286 44.8574 110.662 44.4766L111.453 43.3066L110.267 42.7197L109.477 43.8859C108.782 43.6152 108.041 43.4437 107.281 43.3781V42.0312H105.912V43.3781C105.152 43.4437 104.411 43.6152 103.716 43.8859L102.926 42.7197L101.745 43.3066L102.531 44.4766C101.907 44.8574 101.361 45.3239 100.915 45.8572L99.5495 45.1838L98.8689 46.1996L100.23 46.873C99.9125 47.4676 99.7122 48.1032 99.6373 48.754H98.0654V49.9239H99.5934C99.6683 50.5747 99.8686 51.2103 100.186 51.8049L98.825 52.4784L99.5056 53.4941L100.871 52.8207C101.318 53.3533 101.864 53.8197 102.487 54.2014L101.701 55.3713L102.882 55.9582L103.672 54.7882C104.366 55.0618 105.108 55.2347 105.868 55.2999V56.6467H107.238V55.2999C107.997 55.2347 108.739 55.0618 109.433 54.7882L110.223 55.9582L111.409 55.3713L110.618 54.2014C111.241 53.8197 111.787 53.3533 112.234 52.8207L113.6 53.4941L114.285 52.4784L112.919 51.8049C113.236 51.2099 113.438 50.5746 113.516 49.9239L115.106 49.9352ZM106.566 44.7587C107.903 44.7618 109.19 45.1931 110.174 45.9678C111.159 46.7426 111.77 47.8048 111.887 48.9458H107.567C107.477 48.7801 107.334 48.6398 107.154 48.5412C106.975 48.4426 106.766 48.3898 106.553 48.389C106.499 48.3852 106.444 48.3852 106.39 48.389L104.142 45.2402C104.894 44.9169 105.725 44.7519 106.566 44.7587ZM101.209 49.3484C101.207 48.6104 101.413 47.8828 101.81 47.2278C102.207 46.5728 102.782 46.0096 103.488 45.5863L105.74 48.7201C105.563 48.8928 105.465 49.1146 105.464 49.3446C105.465 49.5538 105.545 49.7571 105.692 49.9239L103.497 53.0991C102.792 52.6773 102.216 52.1162 101.818 51.4633C101.42 50.8105 101.211 50.085 101.209 49.3484ZM106.566 53.9418C105.727 53.9403 104.899 53.7703 104.151 53.4452L106.346 50.2851C106.424 50.3005 106.504 50.308 106.583 50.3077C106.826 50.3079 107.062 50.24 107.256 50.1143C107.449 49.9886 107.589 49.8121 107.655 49.6117H111.927C111.85 50.7844 111.252 51.8872 110.254 52.6929C109.257 53.4985 107.937 53.9455 106.566 53.9418Z" fill="#D1D1D1"/>
<path d="M118.737 65.2903H120.103V63.9435C120.862 63.878 121.604 63.7051 122.298 63.4319L123.084 64.6019L124.27 64.0112L123.479 62.845C124.102 62.4618 124.648 61.9942 125.095 61.4606L126.46 62.134L127.141 61.1183L125.78 60.4449C126.095 59.8496 126.296 59.2143 126.373 58.5638H127.94V57.3713H126.377C126.299 56.7207 126.097 56.0853 125.78 55.4903L127.141 54.8169L126.456 53.8011L125.095 54.4783C124.647 53.9455 124.101 53.4781 123.479 53.0939L124.265 51.9239L123.08 51.3408L122.294 52.507C121.6 52.235 120.858 52.0633 120.098 51.9991V50.6523H118.728V51.9954C117.969 52.0626 117.228 52.2354 116.533 52.507L115.743 51.3408L114.562 51.9277L115.348 53.0939C114.725 53.4761 114.181 53.9439 113.736 54.4783L112.371 53.8049L111.686 54.8207L113.051 55.494C112.734 56.0887 112.534 56.7243 112.459 57.3751H110.887V58.5488H112.459C112.535 59.1997 112.737 59.8353 113.056 60.4298L111.677 61.1333L112.362 62.149L113.727 61.4756C114.176 62.0073 114.722 62.4735 115.343 62.8563L114.557 64.0263L115.743 64.6132L116.529 63.4432C117.223 63.7152 117.965 63.8868 118.724 63.951L118.737 65.2903ZM124.774 57.9695C124.774 59.1162 124.273 60.2214 123.369 61.0674C122.466 61.9133 121.225 62.4388 119.892 62.5403V58.8385C120.085 58.7616 120.249 58.6389 120.363 58.4849C120.477 58.3309 120.538 58.152 120.537 57.9695C120.537 57.9243 120.537 57.8792 120.537 57.834L124.182 55.9041C124.564 56.5438 124.767 57.2509 124.774 57.9695ZM119.409 53.3798C120.27 53.3786 121.119 53.5554 121.883 53.8953C122.648 54.2353 123.305 54.7282 123.8 55.3323L120.147 57.2509C119.946 57.0978 119.687 57.0135 119.418 57.0139C119.175 57.0147 118.939 57.0834 118.746 57.2095L115.04 55.3285C115.533 54.7277 116.187 54.2371 116.948 53.898C117.708 53.5589 118.552 53.3812 119.409 53.3798ZM114.057 57.9732C114.056 57.254 114.255 56.5449 114.636 55.9041L118.32 57.7851C118.302 57.853 118.294 57.9224 118.294 57.992C118.294 58.2006 118.374 58.4033 118.521 58.5692C118.669 58.735 118.876 58.8547 119.11 58.91V62.5704C117.741 62.5039 116.454 61.9902 115.514 61.1349C114.574 60.2797 114.052 59.1481 114.057 57.9732Z" fill="#D1D1D1"/>
</svg>
