<svg width="198" height="174" viewBox="0 0 198 174" fill="none" xmlns="http://www.w3.org/2000/svg">
<g clip-path="url(#clip0_1411_3023)">
<path d="M133.788 13.7217C112.833 1.58614 83.3861 4.03863 64.8612 22.0518C54.7326 31.904 50.6186 45.4561 40.1051 55.097C28.2684 65.964 14.1222 76.514 8.75715 91.3135C3.05533 107.043 8.05946 125.078 20.8104 137.107C36.328 151.738 59.1353 147.34 80.6915 147.108C168.962 146.135 234.569 94.3579 151.086 30.5298C144.109 25.1597 140.717 17.7176 133.788 13.7217Z" fill="#CCE9FF"/>
<path d="M140.958 91.9468C140.958 91.9468 130.396 105.287 119.618 100.953C108.816 96.6192 116.923 92.8136 116.923 92.8136C116.923 92.8136 114.927 89.156 128.014 93.2153C134.197 95.0969 140.958 91.9468 140.958 91.9468Z" fill="#FDB239"/>
<path d="M128.087 50.7832C128.087 50.7832 138.311 61.3543 124.646 75.9635C110.981 90.5939 113.098 98.3319 113.098 98.3319C113.098 98.3319 94.0441 72.8979 128.087 50.7832Z" fill="#005E7D"/>
<path d="M115.119 97.6561C108.768 98.7766 113.916 82.5183 123.443 77.571C132.995 72.6238 141.511 72.1375 146.876 67.3594C146.876 67.3594 146.443 92.0957 115.119 97.6561Z" fill="#00BBF9"/>
<path d="M156.908 192.9C159.94 188.482 162.201 183.767 163.669 178.904L175.65 176.896L175.77 165.246L175.89 153.597L163.981 151.377C162.61 146.493 160.445 141.736 157.51 137.275L164.342 128.417L155.056 120.108L145.793 111.799L135.593 117.634C130.564 114.97 125.199 112.983 119.666 111.693L117.38 101.165L104.124 101.059L90.8681 100.953L88.342 111.44C82.7845 112.645 77.3714 114.548 72.2951 117.127L62.2147 111.123L52.7597 119.283L43.3048 127.423L49.9449 136.387C46.9136 140.806 44.6521 145.521 43.1845 150.383L31.2035 152.392L31.0832 164.041L30.9629 175.691L42.8958 177.911C44.2671 182.794 46.4324 187.551 49.3675 192.012L42.5349 200.871L51.8215 209.18L61.108 217.489L71.3087 211.653C76.3369 214.317 81.7019 216.305 87.2353 217.594L89.5209 228.123L102.777 228.229L116.033 228.335L118.559 217.848C124.117 216.643 129.53 214.74 134.606 212.161L144.687 218.165L154.142 210.004L163.596 201.844L156.908 192.9ZM80.2584 184.634C67.7 173.386 67.8924 155.31 80.6914 144.273C93.4905 133.237 114.06 133.406 126.619 144.654C139.177 155.902 138.985 173.978 126.186 185.014C113.387 196.051 92.8168 195.881 80.2584 184.634Z" fill="#FDB239"/>
<path d="M127.75 123.11C127.75 123.11 130.107 126.62 131.094 127.191C132.441 127.973 131.599 128.755 130.949 128.755C130.3 128.755 127.052 128.967 126.33 128.248C125.608 127.529 125.248 125.372 124.574 124.823C123.9 124.252 123.203 122.032 124.911 121.482C126.402 120.975 127.75 123.11 127.75 123.11Z" fill="#005E7D"/>
<path d="M126.739 121.567C126.739 121.567 129.434 125.668 129.891 126.281C130.348 126.894 129.025 126.894 128.183 126.598C127.365 126.302 125.272 123.364 124.959 122.835C124.598 122.201 124.887 121.461 124.887 121.461L126.739 121.567Z" fill="#FEEDCF"/>
<path d="M123.997 123.787L124.622 127.973L124.959 127.995L124.863 124.971L123.997 123.787ZM104.702 124.591C104.702 124.591 107.059 128.1 108.046 128.671C109.393 129.453 108.551 130.236 107.901 130.236C107.252 130.236 104.004 130.447 103.282 129.728C102.561 129.009 102.2 126.853 101.526 126.303C100.852 125.732 100.131 123.449 101.863 122.963C103.354 122.519 104.702 124.591 104.702 124.591Z" fill="#005E7D"/>
<path d="M103.812 123.068C103.812 123.068 106.362 127.149 106.819 127.762C107.276 128.375 105.953 128.375 105.111 128.079C104.293 127.783 102.2 124.844 101.887 124.316C101.526 123.681 101.815 122.941 101.815 122.941L103.812 123.068Z" fill="#FEEDCF"/>
<path d="M100.949 125.268L101.574 129.454L101.887 129.475L101.791 126.452L100.949 125.268Z" fill="#005E7D"/>
<path d="M94.2607 92.7291L115.528 101.249C115.528 101.249 117.91 101.926 118.175 104.252C118.993 111.482 125.152 122.941 125.152 122.941C127.124 123.787 126.98 123.047 126.98 123.047C125.729 119.537 124.213 105.076 123.684 99.262C123.564 98.0357 123.492 97.1901 123.492 96.9152C123.492 96.7249 123.251 96.4924 122.866 96.2175C119.955 94.1456 107.95 89.8326 107.95 89.8326C98.904 89.6212 94.2607 92.7291 94.2607 92.7291Z" fill="#FEEDCF"/>
<path d="M90.2668 96.3874C90.9164 101.44 99.1203 100.87 99.1203 100.87H109.056C109.056 100.87 106.434 105.986 105.448 110.278C104.389 114.844 101.863 122.942 101.863 122.942C101.863 122.942 102.031 123.217 103.836 123.069C103.836 123.069 111.631 109.39 114.638 105.965C115.287 105.225 117.116 101.208 117.429 98.8187C117.525 98.0153 117.477 97.3811 117.116 97.1485C116.779 96.8948 115.985 96.4085 114.927 95.8377C111.823 94.104 106.41 91.4613 103.379 90.8693C99.3368 90.0659 92.9613 88.5859 92.9613 88.5859C92.9613 88.5859 89.5932 91.3344 90.2668 96.3874Z" fill="#FEEDCF"/>
<path d="M97.0271 57.4864C97.0271 57.4864 95.5355 55.0127 96.2573 52.3488C96.979 49.7061 99.7698 47.0633 103.86 48.2895C107.95 49.4946 111.246 52.2854 108.792 55.5202C106.338 58.7549 111.005 60.2137 109.826 61.736C108.647 63.2793 109.08 64.865 109.586 65.2244C110.091 65.5838 111.703 66.8524 111.534 68.3534C111.366 69.8545 103.595 63.9559 103.595 63.9559C103.595 63.9559 99.4089 56.535 97.0271 57.4864Z" fill="#005E7D"/>
<path d="M109.489 89.219C109.489 89.219 108.864 91.8407 92.9854 88.5213C92.9854 88.5425 98.3022 86.978 109.489 89.219Z" fill="#EB4747"/>
<path d="M92.8172 89.283C92.5766 89.7059 92.336 90.1076 92.0714 90.5304L109.49 90.9744C108.575 88.2682 108.864 84.6106 109.033 81.841C109.225 78.4582 111.366 76.0903 111.126 72.6653C112.28 72.8344 112.473 72.8555 113.628 73.0247C111.871 68.6271 111.27 66.4283 105.809 64.737C104.028 64.1873 102.85 64.0816 100.925 64.2084C94.5975 64.6735 92.6969 64.737 89.5693 69.7688C94.4291 70.4453 93.6352 71.9887 95.1028 76.2383C95.8245 78.3102 96.5703 80.6359 96.1854 82.8135C95.8245 84.9489 92.8172 87.3168 92.8172 89.283Z" fill="white"/>
<path d="M102.898 65.7736C100.299 65.3507 100.853 64.0822 100.853 64.0822C100.853 64.0822 100.973 63.3634 101.021 62.4543C101.045 62.2217 101.045 61.9891 101.045 61.7354C101.045 61.3549 101.021 60.9743 100.973 60.6149C100.756 59.0927 105.664 60.0018 105.664 60.0018C105.664 60.0018 105.376 63.0885 106.049 64.0188C106.747 64.949 105.496 66.1964 102.898 65.7736Z" fill="#FEEDCF"/>
<path d="M97.9656 64.0608C97.9656 64.0608 103.186 69.3675 105.111 70.5938C105.111 70.5938 107.324 68.839 105.953 64.1877C105.977 64.1877 103.451 63.0672 97.9656 64.0608ZM98.1099 51.3121C98.1099 51.3121 95.3914 55.9 98.0859 60.2552C100.78 64.6105 106.073 58.3525 106.41 57.6336C106.747 56.8936 108.575 52.7498 104.967 51.5024C101.358 50.2339 98.8798 50.0647 98.1099 51.3121Z" fill="#FEEDCF"/>
<path d="M99 52.9401C99 52.9401 97.1235 55.0966 96.907 56.6822C96.907 56.6822 96.1612 53.68 98.2542 50.7836C100.347 47.8871 105.712 50.6356 106.41 51.7984C107.132 52.9612 109.225 53.976 105.688 58.9444C105.736 58.9444 99.385 55.0754 99 52.9401Z" fill="#005E7D"/>
<path d="M103.355 60.7207C103.355 60.7207 102.873 61.6298 101.045 62.4755C101.069 62.2429 101.069 62.0104 101.069 61.7567C101.045 61.7355 102.296 61.6087 103.355 60.7207Z" fill="#FCD2B1"/>
<path d="M75.9281 85.1393C75.9281 85.1393 74.629 85.6467 74.0275 85.4141C73.4261 85.1816 72.4637 85.1393 72.175 85.1393C71.766 85.1393 70.5391 84.7376 70.5391 85.1816C70.5631 85.6044 72.56 85.9004 72.9689 86.0484C73.3779 86.1753 71.742 86.9787 71.5976 87.3169C71.4533 87.6764 73.3058 89.9808 74.3403 89.3254C75.3748 88.67 75.9522 87.3592 76.1687 87.2746C76.3852 87.1901 76.9626 86.8307 76.9626 86.8307L75.9281 85.1393Z" fill="#FEEDCF"/>
<path d="M71.7903 87.1055C71.7903 87.1055 68.7589 89.3043 68.7108 89.6002C68.6627 89.8962 68.8311 90.0442 69.1198 89.8328C69.4085 89.6425 72.1271 87.782 72.1271 87.782C72.1271 87.782 69.0957 90.9322 68.9995 91.1648C68.9514 91.2916 69.2401 91.5876 69.4085 91.503C69.5769 91.4185 72.8007 88.4586 72.8007 88.4586C72.8007 88.4586 69.9859 91.3973 69.9618 91.6299C69.9378 91.8202 70.2986 92.0316 70.5152 91.8202C70.7317 91.6087 73.5465 89.0294 73.5465 89.0294C73.5465 89.0294 71.6459 91.2916 71.7662 91.4819C71.8384 91.6088 72.079 91.8625 72.5361 91.2705C72.9932 90.6785 74.2683 89.3677 74.2683 89.3677L71.7903 87.1055Z" fill="#FEEDCF"/>
<path d="M108.022 100.869H99.1203C99.1203 100.869 90.9164 101.439 90.2668 96.3864C89.6172 91.3334 92.9613 88.5215 92.9613 88.5215C92.9613 88.5215 97.2918 89.5363 101.069 90.3397C102.97 89.9803 105.255 89.7477 107.902 89.8112C107.902 89.8112 123.948 94.4624 123.467 96.9149C123.467 96.9361 116.755 93.7859 108.022 100.869Z" fill="#254368"/>
<path d="M102.224 92.1157L119.209 91.9043L110.644 95.731L102.224 92.1157Z" fill="#E6E6E6"/>
<path d="M107.517 90.2134C107.517 90.2134 103.691 91.5031 99.0241 90.3403L98.8076 88.7969L108.455 89.262L107.517 90.2134Z" fill="#00BBF9"/>
<path d="M110.644 95.7325L102.224 92.8572V92.1172L111.294 94.9925L110.644 95.7325Z" fill="#F2F2F2"/>
<path d="M107.444 90.9326C107.396 91.4823 108.022 91.884 108.623 91.6726L109.61 91.292C109.898 91.1863 110.067 90.9115 110.019 90.6366C109.61 88.3744 108.72 79.6004 110.019 78.0782C110.5 77.5285 110.789 77.0422 110.957 76.5982C111.799 78.5222 112.858 80.9958 113.291 82.3278L121.302 91.7149L123.997 92.3069C120.652 85.2031 117.934 81.4398 117.934 81.4398C117.405 80.1924 115.913 76.4502 114.566 73.1098C113.724 70.9956 112.954 69.0505 112.545 68.0145C112.328 67.486 111.919 67.042 111.366 66.746C110.115 66.0906 108.046 65.0546 106.169 64.2724H106.145C106.097 64.2512 106.025 64.2301 105.977 64.1878C109.538 68.9236 108.142 82.3278 107.444 90.9326C107.444 90.9115 107.444 90.9115 107.444 90.9326ZM94.1883 64.5895C93.0335 64.7375 90.2187 67.1688 88.703 69.6002C86.9949 72.3909 85.2386 75.5623 83.9154 76.5982C81.5096 78.5222 74.7492 85.3088 74.4364 85.1397C74.3161 85.0762 76.2889 87.1693 76.5295 87.2539C76.6498 87.2962 87.6204 78.945 88.679 77.6765C89.6894 76.4714 92.3599 71.4184 93.1538 71.5241C93.226 71.6298 94.1883 73.4903 95.1025 76.1965C95.1266 76.2388 95.1266 76.2811 95.1507 76.3234C95.7762 78.205 95.7281 80.2558 95.3912 82.5603C95.1266 84.294 93.659 87.1482 92.7689 88.5224C92.6726 88.6916 92.6967 89.0087 92.7929 89.2413C92.8651 89.3892 92.9613 89.495 93.0816 89.5372L96.3054 90.5943L97.0513 90.8481C97.6046 91.0172 98.1579 90.9326 98.591 90.6578C98.9519 90.4252 99.1924 90.0869 99.2646 89.6852C99.9864 84.8437 100.877 79.8964 101.598 78.0359C104.774 69.8539 100.371 63.7227 100.371 63.7227C100.371 63.7227 95.1988 64.2512 94.1883 64.5895Z" fill="#FDB239"/>
<path d="M110.644 95.7316L115.696 83.6172L131.96 83.8498L127.148 95.0128L110.644 95.7316Z" fill="#F2F2F2"/>
<path d="M120.893 88.9669C120.388 89.8338 120.556 90.7852 121.23 91.0812C121.903 91.3771 122.866 90.912 123.371 90.0452C123.876 89.1784 123.708 88.227 123.034 87.931C122.336 87.635 121.398 88.1001 120.893 88.9669Z" fill="#D3D3D3"/>
<path d="M103.739 55.8785C103.739 55.8785 104.774 57.2951 103.811 58.5424C102.849 59.7687 104.052 60.9738 104.269 62.2846C104.485 63.5954 100.251 67.0416 104.942 68.7964C109.658 70.5301 111.149 67.6547 109.946 66.0691C108.743 64.4834 107.901 63.1937 107.781 60.9315C107.685 58.6693 106.843 55.1597 103.739 55.8785Z" fill="#005E7D"/>
<path d="M157.318 94.992V97.6771L160.613 94.992H173.437C174.255 94.992 174.904 94.3789 174.904 93.639V76.7887C174.904 76.0487 174.255 75.4355 173.437 75.4355H152.915C152.097 75.4355 151.447 76.0487 151.447 76.7887V93.639C151.447 94.3789 152.097 94.992 152.915 94.992H157.318Z" fill="#FDB239"/>
<path d="M169.755 90.9325V90.2559C169.755 88.0149 167.783 86.2178 165.353 86.2178H160.95C158.52 86.2178 156.547 88.036 156.547 90.2559V90.9325H169.755ZM166.099 81.5031C166.099 82.983 164.775 84.1881 163.163 84.1881C161.551 84.1881 160.228 82.983 160.228 81.5031C160.228 80.0231 161.551 78.7969 163.163 78.7969C164.775 78.818 166.099 80.0231 166.099 81.5031Z" fill="white"/>
<path d="M64.5006 74.3154C64.5006 75.3725 63.5623 76.2182 62.4315 76.2182H61.0602V80.6792L56.2245 76.2182H40.3219C39.1671 76.2182 38.2529 75.3725 38.2529 74.3154V58.4165C38.2529 57.3594 39.1912 56.5137 40.3219 56.5137H62.4556C63.6104 56.5137 64.5246 57.3594 64.5246 58.4165V74.3154H64.5006Z" fill="#FDB239"/>
<path d="M42.3906 62.2422H60.3622V63.5107H42.3906V62.2422ZM42.3906 65.4135H60.3622V66.682H42.3906V65.4135ZM42.3906 68.606H60.3622V69.8745H42.3906V68.606Z" fill="#CCE9FF"/>
<path d="M59.7607 44.6523C62.8402 42.4113 64.6205 39.3034 64.8611 35.688C64.8852 35.4555 64.8852 35.2441 64.8852 35.0115C64.9092 33.6161 64.7168 32.4321 64.2837 31.1213C64.2597 31.0791 64.2597 31.0579 64.2356 31.0156C64.2356 31.0579 64.2597 31.0791 64.2837 31.1213L60.2419 32.263C60.5306 33.1087 60.675 34.0178 60.675 34.9692C60.6268 37.8657 59.0631 40.4027 56.6572 41.9673L59.0871 45.1386C59.3036 44.9695 59.5442 44.8215 59.7607 44.6523Z" fill="#005E7D"/>
<path d="M43.4494 39.8536C42.3427 38.3948 41.6932 36.6189 41.7172 34.7161C41.7894 29.8957 46.0958 26.0689 51.3165 26.1323C55.5267 26.1958 59.0392 28.754 60.2181 32.2636L64.2599 31.1219C64.2599 31.0796 64.2358 31.0585 64.2117 31.0162C64.1636 30.8682 64.0915 30.6991 64.0433 30.5511C64.0193 30.5088 64.0193 30.4665 63.9952 30.4242C62.0706 25.6672 57.4514 22.5382 51.942 22.2633C51.8217 22.2633 51.6774 22.2633 51.5571 22.2422H50.6428C50.4985 22.2422 50.3541 22.2633 50.2098 22.2633C50.1136 22.2633 50.0173 22.2845 49.9211 22.2845C49.8489 22.2845 49.7527 22.3056 49.6805 22.3056C49.5121 22.3268 49.3437 22.3479 49.1993 22.369H49.1753C47.9964 22.5382 46.8897 22.8342 45.8312 23.2359C45.7109 23.2782 45.5665 23.3416 45.4462 23.3839C41.236 25.1809 38.1806 28.8808 37.6273 33.3207V33.4053C37.6032 33.5532 37.6032 33.7012 37.5792 33.8492C37.5792 33.9338 37.5551 33.9972 37.5551 34.0818C37.5551 34.1875 37.5551 34.2932 37.5311 34.3778V34.6315C37.4829 37.4011 38.4212 39.9593 40.0331 42.0735L43.4494 39.8536Z" fill="#CCE9FF"/>
<path d="M59.0874 45.1176L56.6575 41.9462C55.0697 42.9822 53.145 43.5742 51.076 43.5319C47.9243 43.4896 45.1576 42.0308 43.4735 39.832L40.0332 42.0731C40.1776 42.2845 40.346 42.4748 40.5144 42.6651C42.824 45.3501 45.9516 46.9569 49.6325 47.3375H49.7047C49.8971 47.3586 50.0896 47.3798 50.258 47.3798H50.4505C50.6429 47.3798 50.8354 47.4009 51.0279 47.4009C53.963 47.4432 56.7056 46.6187 58.9671 45.181C59.2318 45.033 59.3039 44.9696 59.0874 45.1176Z" fill="#FDB239"/>
<path d="M51.4609 34.6517L66.353 39.0916C69.0235 31.5227 64.5246 23.4041 56.2967 20.9516C54.6607 20.4653 53.1931 20.2539 51.4609 20.2539V34.6517Z" fill="#00BBF9"/>
<path d="M172.691 45.879L172.619 42.75L169.587 42.5808C169.347 41.566 168.914 40.6146 168.336 39.7689L170.309 37.549L167.855 35.3925L165.594 37.2319C164.679 36.6822 163.645 36.2805 162.538 36.069L162.225 33.2148L158.833 33.2783L158.641 36.0479C157.534 36.2593 156.5 36.661 155.585 37.2107L153.155 35.4136L150.798 37.6758L152.795 39.7689C152.193 40.6146 151.76 41.566 151.52 42.5808L148.416 42.8768L148.488 46.0059L151.52 46.175C151.76 47.1898 152.193 48.1412 152.771 48.9869L150.798 51.2068L153.252 53.3633L155.513 51.524C156.427 52.0737 157.462 52.4754 158.569 52.6868L158.881 55.541L162.274 55.4775L162.466 52.7079C163.573 52.4965 164.607 52.0948 165.521 51.5451L167.951 53.3422L170.309 51.08L168.312 48.9869C168.914 48.1412 169.347 47.1898 169.587 46.175L172.691 45.879ZM160.662 48.4795C158.184 48.5218 156.139 46.7247 156.091 44.4413C156.042 42.158 157.991 40.2763 160.469 40.234C162.947 40.1918 164.992 41.9888 165.04 44.2722C165.112 46.5344 163.14 48.4161 160.662 48.4795Z" fill="#FDB239"/>
<path d="M160.156 46.3866L158.713 45.0546L159.483 44.3569L160.156 44.9912L162.466 42.877L163.212 43.5746L160.156 46.3866Z" fill="#FDB239"/>
</g>
<defs>
<clipPath id="clip0_1411_3023">
<rect width="198" height="174" fill="white"/>
</clipPath>
</defs>
</svg>
