<svg width="341" height="341" viewBox="0 0 341 341" fill="none" xmlns="http://www.w3.org/2000/svg">
<g id="Frame 305">
<rect width="341" height="341" rx="16" fill="#CCF1FE"/>
<g id="directbox-default-2">
<g id="vuesax/outline/directbox-notif">
<g id="directbox-notif">
<path id="Vector" d="M219.333 301.74H121.667C51.4688 301.74 51.4688 264.504 51.4688 231.542V219.333C51.4688 192.109 51.4688 161.344 109.458 161.344C123.986 161.344 129.358 164.884 136.927 170.5C137.293 170.866 137.782 171.11 138.148 171.599L150.6 184.784C161.1 195.893 180.145 195.893 190.644 184.784L203.096 171.599C203.462 171.233 203.829 170.866 204.317 170.5C211.886 164.762 217.258 161.344 231.786 161.344C289.775 161.344 289.775 192.109 289.775 219.333V231.542C289.531 278.178 265.969 301.74 219.333 301.74ZM109.458 179.656C69.7812 179.656 69.7812 192.109 69.7812 219.333V231.542C69.7812 264.993 69.7812 283.427 121.667 283.427H219.333C255.714 283.427 271.219 267.923 271.219 231.542V219.333C271.219 192.109 271.219 179.656 231.542 179.656C222.752 179.656 220.92 180.755 215.671 184.662L203.829 197.236C195.039 206.515 183.197 211.642 170.5 211.642C157.803 211.642 145.961 206.515 137.171 197.236L125.329 184.662C120.08 180.755 118.248 179.656 109.458 179.656Z" fill="#009CD0"/>
<path id="Vector_2" d="M255.958 179.657C250.953 179.657 246.802 175.506 246.802 170.5V97.2503C246.802 70.0257 246.802 57.5732 207.125 57.5732H133.875C94.1979 57.5732 94.1979 70.0257 94.1979 97.2503V170.5C94.1979 175.506 90.047 179.657 85.0416 179.657C80.0362 179.657 75.8854 175.506 75.8854 170.5V97.2503C75.8854 70.0257 75.8854 39.2607 133.875 39.2607H207.125C265.115 39.2607 265.115 70.0257 265.115 97.2503V170.5C265.115 175.506 260.964 179.657 255.958 179.657Z" fill="#009CD0"/>
<path id="Vector_3" d="M193.452 145.839H152.798C147.793 145.839 143.642 141.688 143.642 136.683C143.642 131.677 147.793 127.526 152.798 127.526H193.452C198.457 127.526 202.608 131.677 202.608 136.683C202.608 141.688 198.579 145.839 193.452 145.839Z" fill="#009CD0"/>
<path id="Vector_4" d="M203.707 109.214H142.665C137.66 109.214 133.509 105.063 133.509 100.058C133.509 95.0522 137.66 90.9014 142.665 90.9014H203.707C208.712 90.9014 212.863 95.0522 212.863 100.058C212.863 105.063 208.834 109.214 203.707 109.214Z" fill="#009CD0"/>
</g>
</g>
</g>
</g>
</svg>
